<svg xmlns="http://www.w3.org/2000/svg" xmlns:xlink="http://www.w3.org/1999/xlink" width="80" zoomAndPan="magnify" viewBox="0 0 60 60" height="80" preserveAspectRatio="xMidYMid meet" version="1.0"><path fill="#38b47b" d="M 58.835938 24.058594 C 58.4375 22.324219 57.640625 20.703125 56.859375 19.09375 C 55.933594 17.191406 55.40625 15.371094 54.484375 13.449219 C 53.730469 11.914062 52.960938 10.351562 51.894531 9.015625 C 48.371094 4.578125 42.355469 3 36.796875 1.992188 C 33.46875 1.394531 30.085938 0.78125 26.730469 1.222656 C 24.570312 1.492188 22.492188 2.203125 20.472656 3.015625 C 17.230469 4.308594 14.445312 6.140625 11.972656 8.601562 C 3.894531 16.136719 0.726562 28.25 3.882812 38.828125 C 4.449219 40.691406 5.191406 42.511719 5.984375 44.289062 C 6.683594 45.839844 7.4375 47.386719 8.386719 48.796875 C 11.132812 52.835938 15.667969 54.910156 20.148438 56.84375 C 21.882812 57.582031 23.660156 58.238281 25.507812 58.648438 C 30.996094 59.902344 36.851562 59.019531 42.027344 56.785156 C 49.636719 53.503906 56.117188 47.730469 58.363281 39.753906 C 59.289062 36.46875 59.105469 32.929688 59.191406 29.515625 C 59.230469 27.695312 59.246094 25.835938 58.835938 24.058594 Z M 47.757812 45.226562 C 41.515625 51.539062 31.492188 53.800781 23.148438 50.757812 C 14.800781 47.714844 9.097656 39.894531 8.386719 31.050781 C 7.875 24.726562 9.640625 18.085938 14.6875 14.261719 C 18.867188 10.960938 23.585938 8.132812 28.863281 7.519531 C 32.0625 7.152344 35.289062 7.59375 38.460938 8.046875 C 42.058594 8.546875 45.96875 9.214844 48.355469 11.941406 C 49.363281 13.109375 50.003906 14.558594 50.660156 15.953125 C 51.453125 17.617188 52.308594 19.265625 52.960938 21 C 56.105469 29.304688 54 38.902344 47.757812 45.226562 Z M 47.757812 45.226562 " fill-opacity="1" fill-rule="nonzero"/><path fill="#010101" d="M 30.671875 59.921875 C 28.84375 59.921875 27.058594 59.730469 25.347656 59.34375 C 23.660156 58.964844 21.867188 58.359375 19.867188 57.496094 C 14.894531 55.355469 10.554688 53.253906 7.800781 49.191406 C 6.785156 47.691406 6.015625 46.085938 5.339844 44.578125 C 4.363281 42.394531 3.703125 40.683594 3.210938 39.027344 C -0.0351562 28.175781 3.289062 15.746094 11.476562 8.089844 C 14.007812 5.570312 16.867188 3.695312 20.214844 2.351562 C 21.9375 1.660156 24.222656 0.824219 26.644531 0.511719 C 30.132812 0.0625 33.585938 0.683594 36.925781 1.289062 C 42.554688 2.3125 48.800781 3.976562 52.453125 8.566406 C 53.578125 9.980469 54.363281 11.589844 55.121094 13.144531 C 55.601562 14.128906 55.976562 15.089844 56.335938 16.023438 C 56.6875 16.925781 57.050781 17.855469 57.5 18.785156 C 58.289062 20.394531 59.101562 22.066406 59.527344 23.894531 C 59.957031 25.765625 59.949219 27.710938 59.90625 29.539062 C 59.886719 30.21875 59.878906 30.902344 59.875 31.585938 C 59.847656 34.355469 59.824219 37.222656 59.058594 39.941406 C 56.929688 47.484375 50.984375 53.695312 42.316406 57.433594 C 38.496094 59.082031 34.5 59.921875 30.671875 59.921875 Z M 29.117188 1.78125 C 28.351562 1.78125 27.585938 1.824219 26.824219 1.921875 C 24.5625 2.214844 22.386719 3.011719 20.742188 3.667969 C 17.570312 4.945312 14.863281 6.722656 12.46875 9.105469 C 12.464844 9.109375 12.460938 9.113281 12.453125 9.121094 C 4.644531 16.417969 1.476562 28.269531 4.570312 38.621094 C 5.046875 40.214844 5.683594 41.871094 6.636719 43.996094 C 7.289062 45.449219 8.023438 46.988281 8.976562 48.398438 C 11.515625 52.136719 15.664062 54.136719 20.429688 56.191406 C 22.351562 57.015625 24.0625 57.597656 25.660156 57.957031 C 30.675781 59.089844 36.386719 58.441406 41.75 56.128906 C 50.015625 52.5625 55.675781 46.675781 57.683594 39.554688 C 58.402344 37.019531 58.425781 34.253906 58.449219 31.574219 C 58.457031 30.882812 58.464844 30.1875 58.480469 29.503906 C 58.527344 27.695312 58.535156 25.925781 58.140625 24.21875 C 57.753906 22.542969 56.972656 20.949219 56.222656 19.40625 C 55.742188 18.425781 55.371094 17.46875 55.007812 16.535156 C 54.65625 15.632812 54.292969 14.695312 53.839844 13.765625 C 53.113281 12.28125 52.367188 10.746094 51.335938 9.453125 C 47.976562 5.230469 42.035156 3.664062 36.667969 2.691406 C 34.1875 2.242188 31.644531 1.78125 29.117188 1.78125 Z M 11.96875 8.601562 L 11.984375 8.601562 Z M 11.96875 8.601562 " fill-opacity="1" fill-rule="nonzero"/><path fill="#38b47b" d="M 28.292969 33.625 C 31.761719 29.238281 34.386719 26.046875 37.855469 21.660156 C 39.515625 19.558594 41.75 18.121094 43.933594 16.5625 C 43.394531 18.605469 40.910156 23.382812 39.667969 25.09375 C 37.578125 27.976562 37.105469 29.078125 35.402344 32.203125 C 32.839844 36.910156 30.964844 39.796875 28.558594 44.589844 C 27.160156 41.027344 23.472656 37.882812 21.226562 34.78125 C 19.269531 32.074219 15.417969 26.460938 15.496094 26.515625 C 19.371094 29.25 24.625 30.628906 28.292969 33.625 Z M 28.292969 33.625 " fill-opacity="1" fill-rule="nonzero"/><path fill="#010101" d="M 28.558594 45.300781 C 28.546875 45.300781 28.539062 45.300781 28.527344 45.296875 C 28.25 45.285156 28 45.109375 27.898438 44.847656 C 27.03125 42.636719 25.179688 40.535156 23.390625 38.503906 C 22.390625 37.371094 21.449219 36.300781 20.652344 35.199219 C 14.425781 26.59375 14.511719 26.503906 14.992188 26.015625 C 15.234375 25.773438 15.625 25.738281 15.910156 25.9375 C 17.632812 27.152344 19.710938 28.125 21.714844 29.066406 C 23.9375 30.105469 26.234375 31.179688 28.175781 32.632812 C 29.734375 30.667969 31.128906 28.933594 32.523438 27.199219 C 34.046875 25.304688 35.566406 23.414062 37.300781 21.21875 C 38.816406 19.300781 40.796875 17.90625 42.710938 16.5625 L 43.523438 15.988281 C 43.769531 15.8125 44.097656 15.808594 44.339844 15.980469 C 44.585938 16.152344 44.699219 16.457031 44.625 16.746094 C 44.039062 18.964844 41.464844 23.832031 40.246094 25.515625 C 38.558594 27.839844 37.949219 28.972656 36.847656 31.03125 L 36.03125 32.546875 C 35.03125 34.375 34.140625 35.925781 33.28125 37.425781 C 31.933594 39.773438 30.660156 41.992188 29.195312 44.910156 C 29.074219 45.148438 28.828125 45.300781 28.558594 45.300781 Z M 17.890625 28.78125 C 19.113281 30.566406 20.714844 32.859375 21.804688 34.367188 C 22.558594 35.410156 23.480469 36.457031 24.453125 37.5625 C 25.976562 39.289062 27.535156 41.0625 28.582031 42.976562 C 29.796875 40.636719 30.894531 38.726562 32.046875 36.71875 C 32.902344 35.230469 33.789062 33.683594 34.777344 31.867188 L 35.59375 30.359375 C 36.726562 28.246094 37.347656 27.082031 39.09375 24.679688 C 39.996094 23.4375 41.5 20.652344 42.457031 18.480469 C 40.945312 19.570312 39.539062 20.675781 38.414062 22.105469 C 36.675781 24.300781 35.152344 26.195312 33.628906 28.089844 C 32.105469 29.984375 30.585938 31.875 28.851562 34.070312 C 28.734375 34.21875 28.5625 34.3125 28.371094 34.335938 C 28.179688 34.359375 27.992188 34.300781 27.84375 34.179688 C 25.925781 32.609375 23.476562 31.464844 21.109375 30.355469 C 20.039062 29.851562 18.945312 29.335938 17.890625 28.78125 Z M 17.890625 28.78125 " fill-opacity="1" fill-rule="nonzero"/><path fill="#010101" d="M 30.824219 52.789062 C 28.121094 52.789062 25.429688 52.34375 22.902344 51.425781 C 14.398438 48.324219 8.421875 40.351562 7.679688 31.109375 C 7.078125 23.667969 9.476562 17.320312 14.257812 13.695312 C 19.519531 9.542969 24.136719 7.355469 28.78125 6.8125 C 32.152344 6.425781 35.558594 6.910156 38.5625 7.34375 C 42.585938 7.902344 46.40625 8.636719 48.890625 11.472656 C 49.890625 12.628906 50.53125 13.996094 51.152344 15.324219 L 51.804688 16.6875 C 52.441406 17.996094 53.101562 19.347656 53.628906 20.746094 C 56.875 29.324219 54.769531 39.132812 48.265625 45.726562 C 43.761719 50.28125 37.257812 52.789062 30.824219 52.789062 Z M 31.375 8.09375 C 30.5625 8.09375 29.75 8.132812 28.945312 8.226562 C 24.574219 8.734375 20.183594 10.828125 15.125 14.820312 C 10.726562 18.152344 8.535156 24.046875 9.097656 30.996094 C 9.792969 39.683594 15.40625 47.179688 23.390625 50.089844 C 31.417969 53.015625 41.230469 50.816406 47.253906 44.730469 C 53.367188 38.53125 55.347656 29.316406 52.296875 21.253906 C 51.792969 19.914062 51.148438 18.589844 50.527344 17.3125 L 49.863281 15.929688 C 49.285156 14.691406 48.683594 13.410156 47.816406 12.410156 C 45.660156 9.945312 42.113281 9.273438 38.363281 8.753906 C 36.179688 8.4375 33.777344 8.09375 31.375 8.09375 Z M 47.757812 45.226562 L 47.773438 45.226562 Z M 47.757812 45.226562 " fill-opacity="1" fill-rule="nonzero"/></svg>