<svg xmlns="http://www.w3.org/2000/svg" xmlns:xlink="http://www.w3.org/1999/xlink" width="80" zoomAndPan="magnify" viewBox="0 0 60 60" height="80" preserveAspectRatio="xMidYMid meet" version="1.0"><defs><clipPath id="fb9c4272ff"><path d="M 0 8.289062 L 60 8.289062 L 60 51.789062 L 0 51.789062 Z M 0 8.289062 " clip-rule="nonzero"/></clipPath></defs><path fill="#b9e7f5" d="M 50.449219 25.597656 C 48.898438 25.597656 47.464844 26.101562 46.296875 26.945312 C 46.535156 26.144531 46.667969 25.296875 46.667969 24.421875 C 46.667969 19.585938 42.757812 15.667969 37.929688 15.667969 C 35.296875 15.667969 32.9375 16.839844 31.335938 18.6875 C 29.988281 13.953125 25.648438 10.480469 20.488281 10.480469 C 14.253906 10.480469 9.199219 15.546875 9.199219 21.792969 C 9.199219 23.382812 9.53125 24.894531 10.121094 26.269531 C 5.683594 26.578125 2.175781 30.273438 2.175781 34.800781 C 2.175781 39.527344 6 43.359375 10.71875 43.359375 C 11.859375 43.359375 12.945312 43.132812 13.941406 42.726562 C 15.007812 46.238281 18.261719 48.796875 22.117188 48.796875 C 25.796875 48.796875 28.921875 46.464844 30.125 43.195312 C 31.320312 46.605469 34.554688 49.054688 38.363281 49.054688 C 43.191406 49.054688 47.101562 45.132812 47.101562 40.300781 C 47.101562 39.851562 47.058594 39.414062 46.992188 38.984375 C 48.015625 39.554688 49.195312 39.878906 50.449219 39.878906 C 54.386719 39.878906 57.574219 36.683594 57.574219 32.738281 C 57.574219 28.796875 54.386719 25.597656 50.449219 25.597656 " fill-opacity="1" fill-rule="nonzero"/><g clip-path="url(#fb9c4272ff)"><path stroke-linecap="round" transform="matrix(0.0156687, 0, 0, -0.0156983, -3.813055, 63.753016)" fill="none" stroke-linejoin="round" d="M 3499.497944 2514.64575 C 3455.620663 2514.64575 3412.740592 2509.171432 3371.854943 2499.218128 C 3361.384228 2875.950713 3052.747439 3178.282346 2673.557975 3178.282346 C 2520.236791 3178.282346 2378.383534 3128.764654 2263.205669 3045.156894 C 2133.568245 3315.886784 1857.091509 3503.008914 1536.737492 3503.008914 C 1092.230711 3503.008914 731.988255 3142.699281 731.988255 2698.284223 C 731.988255 2610.197476 746.198511 2525.345553 772.375298 2445.967947 C 613.818757 2414.117372 477.45016 2321.302805 388.698385 2192.905173 C 320.140132 2093.620958 280.002392 1973.434803 280.002392 1843.793008 M 459.998968 1409.580088 C 515.593479 1354.090413 581.658704 1309.051709 655.203012 1277.947632 C 728.747319 1246.843555 809.521406 1229.674104 894.284337 1229.674104 C 948.632334 1229.674104 1001.235211 1236.89025 1051.594364 1250.078379 C 1151.066157 1014.185056 1384.662822 848.462531 1656.652108 848.462531 C 1822.438429 848.462531 1973.515888 909.924188 2089.192358 1011.199064 C 2226.807469 875.585287 2415.529641 791.977526 2623.94673 791.977526 C 3011.363184 791.977526 3330.969294 1080.872197 3379.83263 1455.116457 C 3418.225252 1446.158483 3458.362993 1441.430663 3499.497944 1441.430663 C 3609.939057 1441.430663 3712.651785 1474.774234 3798.162624 1532.254569 C 3941.511698 1628.552793 4035.997436 1792.284656 4035.997436 1978.162623 " stroke="#040606" stroke-width="60" stroke-opacity="1" stroke-miterlimit="10"/></g><path stroke-linecap="round" transform="matrix(0.0156687, 0, 0, -0.0156983, -3.813055, 63.753016)" fill="none" stroke-linejoin="round" d="M 762.652492 2483.044007 C 777.361353 2429.047329 806.779076 2379.280805 846.667514 2340.214084 " stroke="#040606" stroke-width="60" stroke-opacity="1" stroke-miterlimit="10"/><path stroke-linecap="round" transform="matrix(0.0156687, 0, 0, -0.0156983, -3.813055, 63.753016)" fill="none" stroke-linejoin="round" d="M 1058.325538 1232.908928 C 1041.372952 1279.191795 1035.888292 1329.704817 1042.619466 1378.47601 " stroke="#040606" stroke-width="60" stroke-opacity="1" stroke-miterlimit="10"/><path stroke-linecap="round" transform="matrix(0.0156687, 0, 0, -0.0156983, -3.813055, 63.753016)" fill="none" stroke-linejoin="round" d="M 2073.735588 994.029613 C 2114.621237 1036.828824 2147.279896 1087.341846 2169.218537 1142.333854 " stroke="#040606" stroke-width="60" stroke-opacity="1" stroke-miterlimit="10"/><path stroke-linecap="round" transform="matrix(0.0156687, 0, 0, -0.0156983, -3.813055, 63.753016)" fill="none" stroke-linejoin="round" d="M 3398.281033 1447.900311 C 3365.622374 1452.628131 3333.711624 1462.830268 3304.543204 1478.506723 " stroke="#040606" stroke-width="60" stroke-opacity="1" stroke-miterlimit="10"/><path stroke-linecap="round" transform="matrix(0.0156687, 0, 0, -0.0156983, -3.813055, 63.753016)" fill="none" stroke-linejoin="round" d="M 2275.670806 3056.852027 C 2250.989835 3038.936079 2230.796313 3014.30165 2217.832571 2986.432396 " stroke="#040606" stroke-width="60" stroke-opacity="1" stroke-miterlimit="10"/><path stroke-linecap="round" transform="matrix(0.0156687, 0, 0, -0.0156983, -3.813055, 63.753016)" fill="none" stroke-linejoin="round" d="M 3371.60564 2514.64575 C 3373.350759 2483.790505 3369.611218 2452.437595 3360.387017 2422.826513 " stroke="#040606" stroke-width="60" stroke-opacity="1" stroke-miterlimit="10"/><path stroke-linecap="round" transform="matrix(0.0156687, 0, 0, -0.0156983, -3.813055, 63.753016)" fill="none" stroke-linejoin="round" d="M 867.858247 1396.143126 C 757.167831 1421.275221 655.95092 1487.962363 589.137786 1580.030432 C 522.324653 1672.098501 490.164599 1788.800999 500.386012 1902.019841 " stroke="#040606" stroke-width="60" stroke-opacity="1" stroke-miterlimit="10"/><path stroke-linecap="round" transform="matrix(0.0156687, 0, 0, -0.0156983, -3.813055, 63.753016)" fill="none" stroke-linejoin="round" d="M 1764.101588 3281.796715 C 1846.371492 3261.143608 1921.910221 3215.109573 1978.003337 3151.657255 " stroke="#040606" stroke-width="60" stroke-opacity="1" stroke-miterlimit="10"/><path stroke-linecap="round" transform="matrix(0.0156687, 0, 0, -0.0156983, -3.813055, 63.753016)" fill="none" stroke-linejoin="round" d="M 2974.217076 1079.628034 C 3077.179107 1106.999623 3163.687157 1189.36322 3196.096513 1290.638096 " stroke="#040606" stroke-width="60" stroke-opacity="1" stroke-miterlimit="10"/></svg>