<svg xmlns="http://www.w3.org/2000/svg" xmlns:xlink="http://www.w3.org/1999/xlink" width="80" zoomAndPan="magnify" viewBox="0 0 60 60" height="80" preserveAspectRatio="xMidYMid meet" version="1.0"><path fill="#db1a35" d="M 57.609375 40.769531 C 57.609375 40.769531 54.804688 33.371094 48.574219 35.320312 C 48.574219 35.320312 45.613281 36.304688 42.007812 35.265625 C 41.902344 35.242188 41.800781 35.214844 41.695312 35.1875 C 41.695312 35.1875 38.789062 33.839844 35.335938 37.136719 C 35.335938 37.136719 30.144531 42.121094 33.128906 50.324219 C 33.128906 50.324219 36.320312 58.683594 43.433594 58.890625 C 43.433594 58.890625 52.753906 59.722656 56.363281 52.582031 C 59.972656 45.445312 57.609375 40.769531 57.609375 40.769531 Z M 57.609375 40.769531 " fill-opacity="1" fill-rule="nonzero"/><path fill="#f3fffa" d="M 53.765625 42.148438 C 53.765625 42.148438 55.066406 36.433594 50.132812 38.5625 C 50.132812 38.5625 44.863281 40.640625 46.289062 43.445312 C 46.289062 43.445312 47.691406 44.820312 49.976562 44.871094 C 50.003906 44.871094 52.417969 45.523438 53.765625 42.148438 Z M 53.765625 42.148438 " fill-opacity="1" fill-rule="nonzero"/><path fill="#fffdff" d="M 48.964844 36.046875 C 48.964844 36.046875 45.71875 39.109375 42.605469 38.902344 C 42.605469 38.902344 35.90625 38.695312 38.449219 36.359375 C 38.449219 36.359375 39.957031 35.371094 40.605469 35.578125 C 40.605469 35.578125 39.695312 40.460938 48.964844 36.046875 Z M 48.964844 36.046875 " fill-opacity="1" fill-rule="nonzero"/><path fill="#db1a35" d="M 26.558594 42.589844 C 26.558594 42.589844 26.792969 34.671875 20.304688 34.074219 C 20.304688 34.074219 17.214844 33.839844 14.253906 31.503906 C 14.175781 31.449219 14.097656 31.375 14.019531 31.296875 C 14.019531 31.296875 11.867188 28.933594 7.402344 30.644531 C 7.402344 30.644531 0.703125 33.242188 0.289062 41.992188 C 0.289062 41.992188 0.0273438 50.921875 6.519531 53.855469 C 6.519531 53.855469 14.824219 58.191406 20.902344 52.972656 C 26.976562 47.753906 26.558594 42.589844 26.558594 42.589844 Z M 26.558594 42.589844 " fill-opacity="1" fill-rule="nonzero"/><path fill="#f3fffa" d="M 22.511719 42.378906 C 22.511719 42.378906 25.910156 37.605469 20.511719 37.679688 C 20.511719 37.679688 14.851562 37.578125 15.113281 40.71875 C 15.113281 40.71875 15.890625 42.511719 17.96875 43.445312 C 17.96875 43.445312 19.964844 44.976562 22.511719 42.378906 Z M 22.511719 42.378906 " fill-opacity="1" fill-rule="nonzero"/><path fill="#fffdff" d="M 20.40625 34.902344 C 20.40625 34.902344 16.226562 36.488281 13.449219 35.113281 C 13.449219 35.113281 7.347656 32.359375 10.59375 31.191406 C 10.59375 31.191406 12.332031 30.855469 12.878906 31.296875 C 12.851562 31.269531 10.152344 35.421875 20.40625 34.902344 Z M 20.40625 34.902344 " fill-opacity="1" fill-rule="nonzero"/><path fill="#739802" d="M 44.835938 37.007812 C 44.835938 37.007812 45.796875 19.691406 34.789062 10.707031 C 34.789062 10.707031 43.355469 19.40625 51.921875 15.175781 C 51.921875 15.175781 52.726562 14.992188 56.335938 12.734375 C 56.335938 12.734375 52.78125 12.8125 48.03125 7.542969 C 48.03125 7.542969 41.097656 0.273438 34.789062 3.648438 C 34.789062 3.648438 32.011719 5.984375 30.195312 6.0625 C 30.195312 6.0625 40.5 6.503906 42.65625 10.8125 C 42.65625 10.8125 36.085938 5.878906 30.195312 7.621094 C 30.195312 7.621094 26.042969 27.867188 16.097656 34.097656 L 18.097656 34.4375 C 18.097656 34.4375 25.703125 27.089844 28.144531 19.121094 C 28.144531 19.121094 30.53125 10.996094 30.765625 9.4375 C 30.765625 9.4375 36.375 12.007812 41.566406 22.726562 C 41.566406 22.726562 44.082031 29.972656 43.902344 36.980469 L 44.835938 36.980469 Z M 44.835938 37.007812 " fill-opacity="1" fill-rule="nonzero"/></svg>