<svg xmlns="http://www.w3.org/2000/svg" xmlns:xlink="http://www.w3.org/1999/xlink" width="80" zoomAndPan="magnify" viewBox="0 0 60 60" height="80" preserveAspectRatio="xMidYMid meet" version="1.0"><defs><clipPath id="1203c140ff"><path d="M 21 1 L 40 1 L 40 59.753906 L 21 59.753906 Z M 21 1 " clip-rule="nonzero"/></clipPath></defs><g clip-path="url(#1203c140ff)"><path fill="#aa2b01" d="M 35.542969 37.546875 C 35.917969 36.050781 37.777344 31.792969 37.777344 31.792969 C 40.113281 26.21875 39.664062 14.703125 39.664062 14.703125 C 39.753906 2.285156 34.089844 1.582031 34.089844 1.582031 C 30.492188 0.503906 21.503906 1.582031 21.503906 1.582031 C 20.332031 3.378906 22.941406 3.441406 22.941406 3.441406 L 30.601562 3.441406 C 31.96875 3.679688 32.742188 4.371094 32.742188 4.371094 C 33.191406 4.609375 33.550781 5.148438 33.84375 5.898438 L 22.761719 5.898438 C 22.761719 5.898438 21.589844 6.890625 22.761719 7.632812 L 34.492188 8.511719 C 34.632812 9.386719 34.734375 10.355469 34.804688 11.367188 L 23.222656 11.367188 C 23.222656 11.367188 22.054688 12.359375 23.222656 13.105469 L 34.929688 13.980469 C 34.949219 14.757812 34.957031 15.546875 34.957031 16.324219 L 23.6875 16.65625 C 23.6875 16.65625 22.519531 17.648438 23.6875 18.394531 L 34.917969 18.890625 C 34.898438 19.710938 34.871094 20.5 34.839844 21.242188 L 23.222656 21.757812 C 22.054688 22.5 23.222656 23.492188 23.222656 23.492188 L 34.699219 23.84375 C 34.648438 24.6875 34.601562 25.34375 34.570312 25.730469 L 22.761719 26.582031 C 21.589844 27.324219 22.761719 28.316406 22.761719 28.316406 L 33.828125 28.316406 C 31.476562 31.628906 24.109375 30.984375 24.109375 30.984375 C 19.882812 31.074219 22.082031 32.800781 22.671875 32.871094 C 29.484375 33.710938 30.085938 35.039062 30.511719 37.546875 C 31.644531 44.199219 29.308594 48.722656 28.527344 54.570312 C 28.226562 57.089844 30.449219 59.484375 33.382812 59.230469 C 36.53125 59.007812 37.992188 57.65625 37.925781 54.871094 C 37.859375 52.210938 37.171875 49.585938 36.351562 47.136719 C 35.425781 44.382812 34.738281 40.765625 35.542969 37.546875 " fill-opacity="1" fill-rule="nonzero"/></g><path fill="#dddddd" d="M 35.28125 54.339844 C 35.28125 55.480469 34.355469 56.40625 33.21875 56.40625 C 32.078125 56.40625 31.152344 55.480469 31.152344 54.339844 C 31.152344 53.199219 32.078125 48.34375 33.21875 48.34375 C 34.355469 48.34375 35.28125 53.199219 35.28125 54.339844 " fill-opacity="1" fill-rule="nonzero"/></svg>