<svg xmlns="http://www.w3.org/2000/svg" xmlns:xlink="http://www.w3.org/1999/xlink" width="80" zoomAndPan="magnify" viewBox="0 0 60 60" height="80" preserveAspectRatio="xMidYMid meet" version="1.0"><defs><clipPath id="20f3c51971"><path d="M 20 35 L 33 35 L 33 53.773438 L 20 53.773438 Z M 20 35 " clip-rule="nonzero"/></clipPath><clipPath id="4f659a0c4c"><path d="M 22 40 L 33 40 L 33 53.773438 L 22 53.773438 Z M 22 40 " clip-rule="nonzero"/></clipPath></defs><path fill="#a66441" d="M 21.191406 37.539062 C 18.574219 47.203125 17.835938 47.203125 20.320312 48.011719 C 22.804688 48.824219 23.273438 49.296875 20.117188 49.226562 C 16.964844 49.160156 17.972656 48.6875 15.488281 49.835938 C 13.003906 50.984375 11.460938 50.917969 13.542969 49.429688 C 15.621094 47.945312 14.480469 49.160156 12.199219 48.550781 C 9.917969 47.945312 11.996094 47.808594 14.28125 47.472656 C 16.5625 47.132812 16.5625 49.226562 19.582031 37.878906 C 22.601562 26.527344 21.191406 37.539062 21.191406 37.539062 Z M 21.191406 37.539062 " fill-opacity="1" fill-rule="nonzero"/><path fill="#985b3b" d="M 20.15625 37.699219 C 19.121094 42.777344 18.03125 46.472656 17.085938 47.570312 C 16.269531 48.515625 13.949219 49.671875 12.578125 50.492188 C 12.6875 50.808594 13.894531 50.574219 15.488281 49.835938 C 17.972656 48.6875 16.964844 49.160156 20.117188 49.226562 C 23.273438 49.296875 22.804688 48.824219 20.320312 48.011719 C 17.886719 47.21875 18.546875 47.199219 21.039062 38.105469 Z M 20.15625 37.699219 " fill-opacity="1" fill-rule="nonzero"/><g clip-path="url(#20f3c51971)"><path fill="#a66441" d="M 30.960938 40.328125 C 28.34375 49.988281 27.605469 49.988281 30.089844 50.800781 C 32.574219 51.609375 33.042969 52.085938 29.886719 52.015625 C 26.734375 51.949219 27.738281 51.476562 25.257812 52.625 C 22.773438 53.773438 21.230469 53.707031 23.308594 52.21875 C 25.390625 50.734375 24.25 51.949219 21.96875 51.339844 C 19.683594 50.734375 21.765625 50.597656 24.046875 50.261719 C 26.332031 49.921875 26.332031 52.015625 29.351562 40.667969 C 32.371094 29.316406 30.960938 40.328125 30.960938 40.328125 Z M 30.960938 40.328125 " fill-opacity="1" fill-rule="nonzero"/></g><g clip-path="url(#4f659a0c4c)"><path fill="#985b3b" d="M 29.921875 40.488281 C 28.890625 45.566406 27.800781 49.261719 26.855469 50.355469 C 26.039062 51.300781 23.71875 52.460938 22.34375 53.277344 C 22.457031 53.597656 23.664062 53.359375 25.257812 52.625 C 27.738281 51.476562 26.734375 51.949219 29.886719 52.015625 C 33.042969 52.082031 32.570312 51.609375 30.089844 50.800781 C 27.65625 50.003906 28.316406 49.988281 30.808594 40.894531 Z M 29.921875 40.488281 " fill-opacity="1" fill-rule="nonzero"/></g><path fill="#9b5936" d="M 37.308594 25.230469 C 54.015625 9.945312 58.289062 7.554688 59.140625 8.035156 C 59.996094 8.511719 54.871094 22.175781 44.144531 31.917969 C 33.417969 41.664062 37.308594 25.230469 37.308594 25.230469 Z M 37.308594 25.230469 " fill-opacity="1" fill-rule="nonzero"/><path fill="#a66441" d="M 58.90625 7.980469 C 57.625 7.957031 52.839844 11.019531 37.308594 25.230469 C 37.308594 25.230469 36.832031 27.238281 36.671875 29.433594 L 36.765625 30.683594 C 36.765625 30.683594 52.332031 19.3125 59.128906 8.027344 C 59.070312 8 58.996094 7.980469 58.90625 7.980469 Z M 58.90625 7.980469 " fill-opacity="1" fill-rule="nonzero"/><path fill="#e4b378" d="M 6.046875 23.957031 C 6.613281 37.6875 18.4375 45.738281 29.582031 43.058594 C 38.757812 40.855469 47.074219 34.046875 41.0625 26.726562 C 35.460938 19.90625 27.539062 9.386719 18.191406 8.101562 C 6.710938 6.523438 5.695312 15.476562 6.046875 23.957031 Z M 6.046875 23.957031 " fill-opacity="1" fill-rule="nonzero"/><path fill="#ecc290" d="M 15.6875 7.921875 C 6.558594 7.917969 5.722656 16.136719 6.046875 23.957031 C 6.054688 24.199219 6.070312 24.4375 6.085938 24.675781 C 9 36.695312 20.445312 43.328125 31.304688 40.722656 C 35.183594 39.792969 38.925781 38.113281 41.683594 35.945312 C 43.570312 33.226562 43.773438 30.03125 41.0625 26.726562 C 35.460938 19.90625 27.535156 9.386719 18.191406 8.101562 C 17.292969 7.980469 16.460938 7.921875 15.6875 7.921875 Z M 15.6875 7.921875 " fill-opacity="1" fill-rule="nonzero"/><path fill="#a66441" d="M 15.6875 7.921875 C 16.460938 7.921875 17.292969 7.980469 18.191406 8.101562 C 27.1875 9.339844 34.863281 19.128906 40.417969 25.941406 C 34.171875 28.25 18.625 33.3125 17.183594 27.140625 C 15.40625 19.515625 13.164062 17.546875 6.648438 15.023438 C 7.683594 10.921875 10.171875 7.921875 15.6875 7.921875 Z M 15.6875 7.921875 " fill-opacity="1" fill-rule="nonzero"/><path fill="#8b4a34" d="M 16.566406 22.976562 C 15.5 26.984375 19.625 32.488281 25.078125 33.730469 C 33.992188 35.761719 49.699219 34.175781 49.699219 34.175781 C 49.699219 34.175781 39.945312 21.246094 28.277344 18.355469 C 22.847656 17.011719 17.632812 18.96875 16.566406 22.976562 Z M 16.566406 22.976562 " fill-opacity="1" fill-rule="nonzero"/><path fill="#ffffff" d="M 11.726562 14.246094 C 11.726562 14.53125 11.78125 14.804688 11.890625 15.066406 C 11.996094 15.332031 12.152344 15.5625 12.351562 15.765625 C 12.554688 15.964844 12.785156 16.121094 13.046875 16.230469 C 13.308594 16.339844 13.578125 16.394531 13.863281 16.394531 C 14.144531 16.394531 14.417969 16.339844 14.679688 16.230469 C 14.941406 16.121094 15.171875 15.964844 15.375 15.765625 C 15.574219 15.5625 15.726562 15.332031 15.835938 15.066406 C 15.945312 14.804688 16 14.53125 16 14.246094 C 16 13.960938 15.945312 13.683594 15.835938 13.421875 C 15.726562 13.160156 15.574219 12.925781 15.375 12.722656 C 15.171875 12.523438 14.941406 12.367188 14.679688 12.257812 C 14.417969 12.148438 14.144531 12.09375 13.863281 12.09375 C 13.578125 12.09375 13.308594 12.148438 13.046875 12.257812 C 12.785156 12.367188 12.554688 12.523438 12.351562 12.722656 C 12.152344 12.925781 11.996094 13.160156 11.890625 13.421875 C 11.78125 13.683594 11.726562 13.960938 11.726562 14.246094 Z M 11.726562 14.246094 " fill-opacity="1" fill-rule="nonzero"/><path fill="#d29c70" d="M 3.269531 12.878906 C 3.023438 12.878906 2.785156 12.890625 2.566406 12.90625 C 0.8125 13.050781 0.0507812 13.289062 0.0273438 13.597656 C 5.464844 14.28125 8.546875 15.867188 8.546875 15.867188 C 8.15625 13.898438 7.226562 13.207031 7.226562 13.207031 C 7.226562 13.207031 5.003906 12.867188 3.269531 12.878906 Z M 3.269531 12.878906 " fill-opacity="1" fill-rule="nonzero"/><path fill="#30150b" d="M 12.25 14.246094 C 12.25 14.460938 12.289062 14.667969 12.371094 14.867188 C 12.453125 15.066406 12.570312 15.242188 12.722656 15.394531 C 12.875 15.546875 13.046875 15.664062 13.246094 15.746094 C 13.441406 15.828125 13.648438 15.867188 13.863281 15.867188 C 14.078125 15.867188 14.28125 15.828125 14.480469 15.746094 C 14.679688 15.664062 14.851562 15.546875 15.003906 15.394531 C 15.15625 15.242188 15.273438 15.066406 15.355469 14.867188 C 15.4375 14.667969 15.476562 14.460938 15.476562 14.246094 C 15.476562 14.027344 15.4375 13.820312 15.355469 13.621094 C 15.273438 13.425781 15.15625 13.25 15.003906 13.097656 C 14.851562 12.945312 14.679688 12.828125 14.480469 12.742188 C 14.28125 12.660156 14.078125 12.621094 13.863281 12.621094 C 13.648438 12.621094 13.441406 12.660156 13.246094 12.742188 C 13.046875 12.828125 12.875 12.945312 12.722656 13.097656 C 12.570312 13.25 12.453125 13.425781 12.371094 13.621094 C 12.289062 13.820312 12.25 14.027344 12.25 14.246094 Z M 12.25 14.246094 " fill-opacity="1" fill-rule="nonzero"/><path fill="#ffffff" d="M 12.4375 13.097656 C 12.4375 13.273438 12.5 13.425781 12.625 13.550781 C 12.75 13.679688 12.898438 13.742188 13.078125 13.742188 C 13.253906 13.742188 13.40625 13.679688 13.53125 13.550781 C 13.65625 13.425781 13.71875 13.273438 13.71875 13.097656 C 13.71875 12.917969 13.65625 12.765625 13.53125 12.640625 C 13.40625 12.515625 13.253906 12.453125 13.078125 12.453125 C 12.898438 12.453125 12.75 12.515625 12.625 12.640625 C 12.5 12.765625 12.4375 12.917969 12.4375 13.097656 Z M 12.4375 13.097656 " fill-opacity="1" fill-rule="nonzero"/><path fill="#ecc290" d="M 45.589844 26.757812 C 45.480469 26.992188 45.816406 27.542969 46.289062 27.769531 C 46.757812 27.996094 47.152344 27.882812 47.296875 27.582031 C 47.4375 27.277344 47.28125 26.898438 46.808594 26.671875 C 46.339844 26.445312 45.699219 26.527344 45.589844 26.757812 Z M 45.589844 26.757812 " fill-opacity="0.274" fill-rule="nonzero"/><path fill="#ecc290" d="M 47.25 24.800781 C 47.140625 25.03125 47.480469 25.585938 47.949219 25.8125 C 48.421875 26.039062 48.8125 25.925781 48.957031 25.621094 C 49.101562 25.320312 48.941406 24.941406 48.472656 24.714844 C 48 24.488281 47.359375 24.570312 47.25 24.800781 Z M 47.25 24.800781 " fill-opacity="0.274" fill-rule="nonzero"/><path fill="#ecc290" d="M 48.816406 22.9375 C 48.707031 23.167969 49.042969 23.722656 49.515625 23.949219 C 49.988281 24.175781 50.378906 24.0625 50.523438 23.757812 C 50.667969 23.457031 50.507812 23.078125 50.039062 22.851562 C 49.566406 22.625 48.925781 22.707031 48.816406 22.9375 Z M 48.816406 22.9375 " fill-opacity="0.274" fill-rule="nonzero"/><path fill="#ecc290" d="M 50.097656 20.789062 C 49.988281 21.019531 50.328125 21.570312 50.796875 21.796875 C 51.269531 22.027344 51.660156 21.914062 51.804688 21.609375 C 51.949219 21.308594 51.789062 20.929688 51.320312 20.703125 C 50.847656 20.476562 50.207031 20.558594 50.097656 20.789062 Z M 50.097656 20.789062 " fill-opacity="0.274" fill-rule="nonzero"/><path fill="#ecc290" d="M 51.378906 18.972656 C 51.269531 19.203125 51.609375 19.757812 52.078125 19.984375 C 52.550781 20.210938 52.941406 20.097656 53.085938 19.792969 C 53.230469 19.492188 53.070312 19.113281 52.601562 18.886719 C 52.128906 18.660156 51.488281 18.742188 51.378906 18.972656 Z M 51.378906 18.972656 " fill-opacity="0.274" fill-rule="nonzero"/><path fill="#ecc290" d="M 52.613281 16.917969 C 52.503906 17.148438 52.84375 17.703125 53.3125 17.929688 C 53.785156 18.15625 54.175781 18.042969 54.320312 17.738281 C 54.464844 17.4375 54.304688 17.058594 53.835938 16.832031 C 53.363281 16.605469 52.722656 16.6875 52.613281 16.917969 Z M 52.613281 16.917969 " fill-opacity="0.274" fill-rule="nonzero"/><path fill="#ecc290" d="M 53.707031 14.960938 C 53.597656 15.191406 53.933594 15.742188 54.40625 15.96875 C 54.875 16.199219 55.265625 16.085938 55.410156 15.78125 C 55.554688 15.480469 55.398438 15.101562 54.925781 14.875 C 54.453125 14.648438 53.816406 14.730469 53.707031 14.960938 Z M 53.707031 14.960938 " fill-opacity="0.274" fill-rule="nonzero"/><path fill="#ecc290" d="M 54.84375 12.863281 C 54.734375 13.09375 55.070312 13.644531 55.542969 13.871094 C 56.011719 14.097656 56.40625 13.984375 56.550781 13.683594 C 56.691406 13.378906 56.535156 13 56.0625 12.773438 C 55.59375 12.546875 54.953125 12.628906 54.84375 12.863281 Z M 54.84375 12.863281 " fill-opacity="0.274" fill-rule="nonzero"/><path fill="#ecc290" d="M 55.789062 11.125 C 55.742188 11.378906 56.210938 11.824219 56.726562 11.921875 C 57.238281 12.019531 57.585938 11.808594 57.648438 11.476562 C 57.710938 11.148438 57.460938 10.824219 56.949219 10.726562 C 56.433594 10.628906 55.835938 10.875 55.789062 11.125 Z M 55.789062 11.125 " fill-opacity="0.274" fill-rule="nonzero"/><path fill="#ecc290" d="M 56.84375 10.007812 C 56.886719 10.1875 57.320312 10.339844 57.683594 10.253906 C 58.046875 10.167969 58.210938 9.925781 58.15625 9.695312 C 58.101562 9.460938 57.84375 9.324219 57.480469 9.410156 C 57.117188 9.496094 56.800781 9.832031 56.84375 10.007812 Z M 56.84375 10.007812 " fill-opacity="0.274" fill-rule="nonzero"/><path fill="#a66441" d="M 24.875 29.984375 C 24.5 30.191406 24.425781 31.277344 24.847656 32.050781 C 25.273438 32.828125 25.917969 33.058594 26.410156 32.785156 C 26.898438 32.515625 27.050781 31.839844 26.628906 31.066406 C 26.207031 30.292969 25.253906 29.773438 24.875 29.984375 Z M 24.875 29.984375 " fill-opacity="1" fill-rule="nonzero"/><path fill="#a66441" d="M 26.175781 27.941406 C 25.933594 28.074219 25.882812 28.785156 26.160156 29.289062 C 26.433594 29.792969 26.855469 29.945312 27.175781 29.769531 C 27.496094 29.589844 27.59375 29.152344 27.316406 28.648438 C 27.042969 28.140625 26.421875 27.804688 26.175781 27.941406 Z M 26.175781 27.941406 " fill-opacity="1" fill-rule="nonzero"/><path fill="#a66441" d="M 28.367188 30.320312 C 27.992188 30.527344 27.914062 31.617188 28.339844 32.390625 C 28.761719 33.164062 29.40625 33.394531 29.898438 33.125 C 30.390625 32.851562 30.542969 32.179688 30.117188 31.40625 C 29.695312 30.632812 28.742188 30.113281 28.367188 30.320312 Z M 28.367188 30.320312 " fill-opacity="1" fill-rule="nonzero"/><path fill="#a66441" d="M 29.667969 28.277344 C 29.421875 28.414062 29.371094 29.121094 29.648438 29.625 C 29.925781 30.132812 30.34375 30.28125 30.664062 30.105469 C 30.984375 29.929688 31.085938 29.488281 30.808594 28.984375 C 30.53125 28.480469 29.910156 28.140625 29.667969 28.277344 Z M 29.667969 28.277344 " fill-opacity="1" fill-rule="nonzero"/><path fill="#a66441" d="M 31.992188 30.660156 C 31.617188 30.867188 31.539062 31.953125 31.964844 32.726562 C 32.386719 33.503906 33.03125 33.734375 33.523438 33.460938 C 34.015625 33.191406 34.167969 32.515625 33.742188 31.742188 C 33.320312 30.96875 32.367188 30.449219 31.992188 30.660156 Z M 31.992188 30.660156 " fill-opacity="1" fill-rule="nonzero"/><path fill="#a66441" d="M 33.578125 28.664062 C 33.332031 28.800781 33.28125 29.507812 33.558594 30.011719 C 33.832031 30.515625 34.253906 30.667969 34.574219 30.492188 C 34.894531 30.3125 34.992188 29.875 34.71875 29.371094 C 34.441406 28.867188 33.820312 28.527344 33.578125 28.664062 Z M 33.578125 28.664062 " fill-opacity="1" fill-rule="nonzero"/><path fill="#a66441" d="M 35.71875 30.890625 C 35.34375 31.097656 35.269531 32.183594 35.691406 32.957031 C 36.113281 33.734375 36.757812 33.964844 37.25 33.691406 C 37.742188 33.421875 37.894531 32.746094 37.472656 31.972656 C 37.046875 31.199219 36.09375 30.679688 35.71875 30.890625 Z M 35.71875 30.890625 " fill-opacity="1" fill-rule="nonzero"/><path fill="#a66441" d="M 37.492188 28.796875 C 37.25 28.933594 37.199219 29.644531 37.476562 30.148438 C 37.75 30.652344 38.171875 30.804688 38.492188 30.625 C 38.8125 30.449219 38.910156 30.011719 38.636719 29.503906 C 38.359375 29 37.738281 28.664062 37.492188 28.796875 Z M 37.492188 28.796875 " fill-opacity="1" fill-rule="nonzero"/><path fill="#a66441" d="M 39.347656 31.066406 C 39.015625 31.339844 39.136719 32.421875 39.695312 33.105469 C 40.25 33.792969 40.925781 33.902344 41.359375 33.542969 C 41.792969 33.1875 41.820312 32.496094 41.265625 31.8125 C 40.710938 31.128906 39.679688 30.792969 39.347656 31.066406 Z M 39.347656 31.066406 " fill-opacity="1" fill-rule="nonzero"/><path fill="#a66441" d="M 41.273438 28.941406 C 41.027344 29.078125 40.976562 29.785156 41.253906 30.289062 C 41.53125 30.796875 41.949219 30.945312 42.269531 30.769531 C 42.589844 30.59375 42.691406 30.152344 42.414062 29.648438 C 42.136719 29.144531 41.515625 28.804688 41.273438 28.941406 Z M 41.273438 28.941406 " fill-opacity="1" fill-rule="nonzero"/><path fill="#a66441" d="M 43.15625 31.164062 C 42.832031 31.445312 42.984375 32.527344 43.558594 33.195312 C 44.132812 33.863281 44.808594 33.953125 45.234375 33.585938 C 45.660156 33.21875 45.667969 32.527344 45.09375 31.859375 C 44.519531 31.191406 43.480469 30.882812 43.15625 31.164062 Z M 43.15625 31.164062 " fill-opacity="1" fill-rule="nonzero"/><path fill="#cc905e" d="M 0.0273438 13.597656 C 0.00390625 13.910156 0.714844 14.292969 1.902344 14.722656 C 4.277344 15.582031 6.289062 17.066406 6.289062 17.066406 C 7.035156 16.8125 7.933594 16.566406 8.546875 15.867188 C 8.546875 15.867188 5.464844 14.28125 0.0273438 13.597656 Z M 0.0273438 13.597656 " fill-opacity="1" fill-rule="nonzero"/><path fill="#a66441" d="M 24.875 29.984375 C 24.5 30.191406 24.425781 31.277344 24.847656 32.050781 C 25.273438 32.828125 25.917969 33.058594 26.410156 32.785156 C 26.898438 32.515625 27.050781 31.839844 26.628906 31.066406 C 26.207031 30.292969 25.253906 29.773438 24.875 29.984375 Z M 24.875 29.984375 " fill-opacity="1" fill-rule="nonzero"/></svg>