<svg xmlns="http://www.w3.org/2000/svg" xmlns:xlink="http://www.w3.org/1999/xlink" width="80" zoomAndPan="magnify" viewBox="0 0 60 60" height="80" preserveAspectRatio="xMidYMid meet" version="1.0"><defs><clipPath id="b0f5cd94a6"><path d="M 9 5 L 50.851562 5 L 50.851562 57 L 9 57 Z M 9 5 " clip-rule="nonzero"/></clipPath><clipPath id="7e1c41a904"><path d="M 34 54 L 50.851562 54 L 50.851562 60 L 34 60 Z M 34 54 " clip-rule="nonzero"/></clipPath></defs><g clip-path="url(#b0f5cd94a6)"><path fill="#007fff" d="M 50.929688 55.789062 C 50.929688 55.789062 48.066406 12.300781 45.539062 5.566406 L 14.554688 5.691406 C 12.027344 12.429688 9.167969 55.917969 9.167969 55.917969 L 25.332031 56.421875 L 30.132812 23.585938 L 34.761719 56.296875 L 50.929688 55.789062 " fill-opacity="1" fill-rule="nonzero"/></g><path fill="#15407d" d="M 23.859375 5.671875 C 23.859375 5.671875 24.363281 18.363281 12.578125 16.765625 C 12.578125 16.765625 13.691406 7.171875 14.554688 5.734375 C 14.871094 5.207031 23.859375 5.671875 23.859375 5.671875 " fill-opacity="1" fill-rule="nonzero"/><path fill="#007fff" d="M 23.230469 5.75 C 23.230469 5.785156 23.230469 5.832031 23.230469 5.894531 C 23.230469 6.265625 23.207031 7.121094 23.039062 8.1875 C 22.914062 8.984375 22.707031 9.898438 22.367188 10.8125 C 22.113281 11.5 21.789062 12.183594 21.375 12.824219 C 20.75 13.785156 19.925781 14.636719 18.828125 15.257812 C 17.726562 15.878906 16.339844 16.273438 14.546875 16.273438 C 13.988281 16.273438 13.394531 16.234375 12.757812 16.152344 C 12.410156 16.105469 12.09375 16.351562 12.050781 16.695312 C 12.003906 17.042969 12.25 17.359375 12.59375 17.402344 C 13.28125 17.492188 13.929688 17.535156 14.546875 17.535156 C 16.890625 17.539062 18.734375 16.910156 20.136719 15.921875 C 21.1875 15.183594 21.984375 14.253906 22.585938 13.265625 C 23.488281 11.785156 23.960938 10.175781 24.210938 8.824219 C 24.460938 7.472656 24.492188 6.371094 24.492188 5.894531 C 24.492188 5.824219 24.492188 5.769531 24.492188 5.726562 C 24.484375 5.378906 24.195312 5.101562 23.847656 5.105469 C 23.5 5.113281 23.222656 5.402344 23.230469 5.75 " fill-opacity="1" fill-rule="nonzero"/><path fill="#15407d" d="M 36.386719 5.671875 C 36.386719 5.671875 35.882812 18.363281 47.667969 16.765625 C 47.667969 16.765625 46.554688 7.171875 45.691406 5.734375 C 45.375 5.207031 36.386719 5.671875 36.386719 5.671875 " fill-opacity="1" fill-rule="nonzero"/><path fill="#007fff" d="M 35.753906 5.726562 C 35.753906 5.765625 35.753906 5.824219 35.753906 5.898438 C 35.753906 6.320312 35.777344 7.234375 35.957031 8.382812 C 36.09375 9.246094 36.320312 10.238281 36.691406 11.25 C 36.972656 12.011719 37.335938 12.78125 37.8125 13.511719 C 38.527344 14.613281 39.496094 15.625 40.800781 16.359375 C 42.097656 17.09375 43.722656 17.535156 45.699219 17.535156 C 46.3125 17.535156 46.964844 17.492188 47.652344 17.402344 C 47.996094 17.359375 48.242188 17.042969 48.195312 16.695312 C 48.152344 16.351562 47.835938 16.105469 47.488281 16.152344 C 46.851562 16.234375 46.257812 16.273438 45.699219 16.273438 C 44.636719 16.273438 43.714844 16.132812 42.914062 15.890625 C 41.511719 15.46875 40.464844 14.734375 39.652344 13.839844 C 38.433594 12.5 37.765625 10.769531 37.410156 9.238281 C 37.054688 7.707031 37.015625 6.382812 37.015625 5.898438 C 37.015625 5.832031 37.015625 5.785156 37.015625 5.75 C 37.023438 5.402344 36.746094 5.113281 36.398438 5.105469 C 36.050781 5.101562 35.761719 5.375 35.753906 5.726562 " fill-opacity="1" fill-rule="nonzero"/><path fill="#007fff" d="M 45.828125 6.050781 C 45.828125 6.050781 46.082031 2.507812 45.152344 1.789062 C 42.847656 0 16.429688 1.105469 15.125 1.820312 C 14.09375 2.386719 14.464844 6.050781 14.464844 6.050781 L 45.828125 6.050781 " fill-opacity="1" fill-rule="nonzero"/><path fill="#007fff" d="M 9.234375 54.835938 C 9.066406 55.480469 8.871094 57.601562 9.304688 58.203125 C 10.378906 59.703125 24.085938 59.972656 24.804688 59.46875 C 25.375 59.070312 25.46875 56.046875 25.390625 55.90625 C 24.949219 55.109375 9.449219 54.007812 9.234375 54.835938 " fill-opacity="1" fill-rule="nonzero"/><g clip-path="url(#7e1c41a904)"><path fill="#007fff" d="M 50.828125 55.160156 C 50.980469 55.808594 51.125 57.933594 50.675781 58.523438 C 49.566406 59.996094 35.855469 59.929688 35.148438 59.410156 C 34.589844 58.996094 34.566406 55.972656 34.652344 55.832031 C 35.113281 55.050781 50.632812 54.324219 50.828125 55.160156 " fill-opacity="1" fill-rule="nonzero"/></g><path fill="#15407d" d="M 30.171875 22.722656 C 30.648438 22.722656 31.4375 5.925781 31.4375 5.925781 L 28.59375 5.925781 C 28.59375 5.925781 29.699219 22.722656 30.171875 22.722656 " fill-opacity="1" fill-rule="nonzero"/><path fill="#15407d" d="M 24.667969 6.027344 L 24.667969 1.0625 L 24.660156 1.019531 C 24.171875 1.019531 23.707031 1.007812 23.179688 1.085938 L 23.179688 6.027344 L 23.183594 6.050781 L 24.664062 6.050781 L 24.667969 6.027344 " fill-opacity="1" fill-rule="nonzero"/><path fill="#15407d" d="M 37.101562 6.027344 L 37.101562 1.0625 C 37.101562 0.988281 37.085938 0.917969 37.066406 0.851562 C 36.675781 0.800781 36.214844 0.789062 35.660156 0.828125 C 35.632812 0.902344 35.617188 0.980469 35.617188 1.0625 L 35.617188 6.027344 L 35.621094 6.050781 L 37.101562 6.050781 L 37.101562 6.027344 " fill-opacity="1" fill-rule="nonzero"/></svg>