<svg xmlns="http://www.w3.org/2000/svg" xmlns:xlink="http://www.w3.org/1999/xlink" width="80" zoomAndPan="magnify" viewBox="0 0 60 60" height="80" preserveAspectRatio="xMidYMid meet" version="1.0"><path fill="#15407d" d="M 42.390625 4.386719 C 43.304688 6.296875 42.136719 8.867188 42.683594 11.058594 C 43.152344 12.933594 44.546875 14.90625 43.910156 16.875 C 43.457031 18.28125 41.609375 18.660156 41.164062 19.929688 C 40.691406 21.257812 42.296875 23.570312 42.660156 24.871094 C 43.476562 27.796875 43.53125 31.335938 43.199219 34.339844 C 42.886719 37.15625 40.914062 38.359375 39.050781 40.105469 C 36.246094 42.734375 34.570312 45.75 32.847656 48.765625 C 30.78125 52.375 28.121094 56.933594 22.664062 57.667969 C 19.1875 58.136719 14.757812 53.945312 15.085938 50.652344 C 15.550781 45.996094 16.839844 44.355469 19.132812 40.519531 C 21.113281 37.214844 22.148438 34.359375 22.703125 30.476562 C 23.011719 28.328125 23.679688 26.394531 23.671875 24.085938 C 23.660156 19.976562 22.625 22.261719 20.628906 20.308594 C 18.8125 18.527344 20.507812 13.160156 20.410156 10.839844 C 20.226562 6.472656 19.214844 3.523438 24.800781 3.355469 C 28.433594 3.25 32.164062 2.839844 35.789062 2.839844 C 37.609375 2.839844 39.808594 1.878906 41.433594 3.136719 C 41.867188 3.472656 42.179688 3.882812 42.390625 4.386719 " fill-opacity="1" fill-rule="nonzero"/><path fill="#007fff" d="M 41.210938 5.097656 C 41.535156 6.332031 40.816406 8.152344 40.964844 9.613281 C 41.164062 11.574219 42.050781 13.308594 42.570312 15.179688 C 43.496094 18.507812 35.039062 18.941406 32.574219 18.886719 C 29.84375 18.820312 27.59375 18.578125 24.945312 19.570312 C 21.3125 20.933594 21.339844 18.191406 21.488281 15.523438 C 21.636719 12.847656 20.015625 5.988281 22.664062 4.753906 C 24.851562 3.738281 29.890625 4.726562 32.402344 4.511719 C 34.542969 4.324219 40.125 2.535156 41.210938 5.097656 " fill-opacity="1" fill-rule="nonzero"/><path fill="#15407d" d="M 39.910156 5.566406 C 39.195312 7.007812 37.050781 7.398438 35.566406 7.648438 C 33.894531 7.933594 31.9375 7.984375 30.246094 8.042969 C 28.371094 8.105469 25.621094 8.585938 23.78125 8.164062 C 21.585938 7.664062 21.328125 5.339844 23.105469 5.566406 C 22.714844 5.515625 22.929688 6.722656 23.792969 6.988281 C 25.265625 7.4375 25.496094 6.46875 25.65625 5.566406 C 25.375 8.035156 29.089844 7.3125 28.355469 4.976562 L 28.847656 4.976562 C 27.871094 8.179688 32.253906 6.417969 33.777344 6.375 C 33.640625 6.023438 33.597656 5.40625 33.433594 4.976562 L 33.777344 4.976562 C 33.933594 7.140625 36.042969 6.675781 37.554688 5.90625 C 38.472656 5.441406 40.039062 3.269531 39.910156 5.566406 " fill-opacity="1" fill-rule="nonzero"/><path fill="#15407d" d="M 36.257812 4.851562 C 36.230469 5.425781 36.574219 5.667969 36.011719 5.90625 C 35.808594 5.359375 36.257812 4.796875 36.257812 4.851562 " fill-opacity="1" fill-rule="nonzero"/><path fill="#15407d" d="M 23.058594 8.507812 C 23.480469 10.945312 24.523438 14.960938 23.546875 17.21875 C 22.941406 16.25 23.6875 15.597656 23.597656 14.347656 C 23.457031 12.386719 21.730469 10.195312 23.058594 8.507812 " fill-opacity="1" fill-rule="nonzero"/><path fill="#15407d" d="M 30.246094 10.273438 C 30.132812 11.761719 30.238281 13.367188 30.761719 14.765625 C 30.953125 15.28125 31.816406 18.132812 30.761719 16.847656 C 29.1875 14.929688 30.421875 10.964844 29.191406 8.851562 C 29.886719 9.070312 29.964844 9.566406 30.246094 10.273438 " fill-opacity="1" fill-rule="nonzero"/><path fill="#15407d" d="M 27.179688 14.617188 C 27.433594 15.347656 27.554688 16.128906 27.769531 16.875 C 26.550781 16.773438 25.632812 10.230469 26.246094 9.097656 C 26.796875 10.902344 26.714844 12.796875 27.179688 14.617188 " fill-opacity="1" fill-rule="nonzero"/><path fill="#15407d" d="M 34.464844 10.714844 C 34.78125 12.476562 35.230469 15.195312 35.199219 16.503906 C 33.246094 15.230469 34.441406 11.476562 33.777344 9.441406 C 34.710938 9.542969 34.398438 10.015625 34.464844 10.714844 " fill-opacity="1" fill-rule="nonzero"/><path fill="#15407d" d="M 38.265625 11.207031 C 38.597656 12.441406 39.179688 15.148438 38.734375 16.164062 C 37.835938 14.257812 37.824219 11.714844 37.308594 9.441406 C 37.875 9.945312 38.039062 10.492188 38.265625 11.207031 " fill-opacity="1" fill-rule="nonzero"/><path fill="#007fff" d="M 39.910156 19.226562 C 40.183594 21.347656 40.792969 23.273438 41.332031 25.015625 C 42.132812 27.609375 41.207031 27.136719 38.746094 28.230469 C 33.226562 30.683594 35.199219 36.484375 37.679688 39.710938 C 33.695312 42.222656 33.457031 47.933594 30.023438 50.898438 C 26.972656 46.953125 22.441406 45.132812 17.414062 45.351562 C 18.882812 42.28125 21.132812 39.914062 22.664062 36.398438 C 23.777344 33.855469 24.128906 31.027344 24.554688 28.402344 C 24.6875 27.574219 24.753906 26.125 24.847656 25.066406 C 25.09375 22.355469 23.5625 21.207031 26.589844 20.308594 C 28.96875 19.597656 31.773438 20.378906 34.195312 20.28125 C 36.179688 20.203125 37.929688 19.363281 39.910156 19.226562 " fill-opacity="1" fill-rule="nonzero"/><path fill="#007fff" d="M 42.019531 29.335938 C 42.15625 33.433594 41.753906 36.429688 38.367188 39.125 C 36.789062 37.335938 34.667969 33.820312 36.488281 31.519531 C 37.023438 30.839844 42.410156 25.957031 42.019531 29.335938 " fill-opacity="1" fill-rule="nonzero"/><path fill="#007fff" d="M 20.480469 46.3125 C 22.933594 46.84375 28.960938 48.210938 29.335938 51.21875 C 29.699219 54.101562 23.082031 56.914062 20.410156 56 C 16.183594 54.554688 13.871094 43.882812 20.480469 46.3125 " fill-opacity="1" fill-rule="nonzero"/></svg>