<svg xmlns="http://www.w3.org/2000/svg" xmlns:xlink="http://www.w3.org/1999/xlink" width="80" zoomAndPan="magnify" viewBox="0 0 60 60" height="80" preserveAspectRatio="xMidYMid meet" version="1.0"><defs><clipPath id="22c9689641"><path d="M 0 2.398438 L 60 2.398438 L 60 57.898438 L 0 57.898438 Z M 0 2.398438 " clip-rule="nonzero"/></clipPath><clipPath id="3359ef2ae2"><path d="M 20 2.398438 L 40 2.398438 L 40 11 L 20 11 Z M 20 2.398438 " clip-rule="nonzero"/></clipPath></defs><g clip-path="url(#22c9689641)"><path fill="#007fff" d="M 50.6875 8.675781 C 49.46875 7.070312 47.816406 5.851562 45.929688 5.148438 L 39.484375 2.757812 L 29.988281 6.652344 L 20.492188 2.757812 L 14.050781 5.148438 C 12.160156 5.851562 10.511719 7.070312 9.289062 8.675781 L -0.0078125 20.878906 C 1.8125 24.738281 4.628906 28.035156 8.160156 30.429688 L 8.789062 30.859375 L 13.632812 26.679688 C 13.824219 37.675781 12.394531 54.464844 12.394531 54.464844 C 12.394531 56.167969 20.273438 57.550781 29.988281 57.550781 C 39.707031 57.550781 47.582031 56.167969 47.582031 54.464844 C 47.582031 54.464844 46.152344 37.675781 46.34375 26.679688 L 51.191406 30.859375 L 51.820312 30.429688 C 55.347656 28.035156 58.167969 24.738281 59.984375 20.878906 L 50.6875 8.675781 " fill-opacity="1" fill-rule="nonzero"/></g><g clip-path="url(#3359ef2ae2)"><path fill="#2155ad" d="M 20.503906 3.007812 C 20.503906 7.296875 24.75 10.773438 29.988281 10.773438 C 35.226562 10.773438 39.472656 7.296875 39.472656 3.007812 L 39.484375 2.757812 C 38.628906 2.441406 37.683594 2.457031 36.835938 2.796875 C 35.207031 3.457031 32.316406 4.476562 29.988281 4.476562 C 27.664062 4.476562 24.773438 3.457031 23.144531 2.796875 C 22.296875 2.457031 21.351562 2.441406 20.492188 2.757812 L 20.503906 3.007812 " fill-opacity="1" fill-rule="nonzero"/></g><path fill="#2155ad" d="M 11.511719 28.507812 C 12.214844 27.902344 13.277344 18.828125 13.277344 18.828125 L 13.632812 26.679688 L 11.511719 28.507812 " fill-opacity="1" fill-rule="nonzero"/><path fill="#2155ad" d="M 48.464844 28.507812 C 47.765625 27.902344 46.699219 18.828125 46.699219 18.828125 L 46.34375 26.679688 L 48.464844 28.507812 " fill-opacity="1" fill-rule="nonzero"/></svg>