<svg xmlns="http://www.w3.org/2000/svg" xmlns:xlink="http://www.w3.org/1999/xlink" width="80" zoomAndPan="magnify" viewBox="0 0 60 60" height="80" preserveAspectRatio="xMidYMid meet" version="1.0"><defs><clipPath id="1f6f2f1669"><path d="M 10.125 9 L 49.875 9 L 49.875 60 L 10.125 60 Z M 10.125 9 " clip-rule="nonzero"/></clipPath><clipPath id="9c2cfbaa8d"><path d="M 40 0 L 49.875 0 L 49.875 8 L 40 8 Z M 40 0 " clip-rule="nonzero"/></clipPath><clipPath id="a9d337a146"><path d="M 10.125 8 L 49.875 8 L 49.875 60 L 10.125 60 Z M 10.125 8 " clip-rule="nonzero"/></clipPath><clipPath id="9f947df500"><path d="M 32 3 L 49.875 3 L 49.875 19 L 32 19 Z M 32 3 " clip-rule="nonzero"/></clipPath><clipPath id="659040e3f0"><path d="M 31 3 L 49.875 3 L 49.875 19 L 31 19 Z M 31 3 " clip-rule="nonzero"/></clipPath></defs><g clip-path="url(#1f6f2f1669)"><path fill="#ffe505" d="M 32.5625 10.3125 C 32.371094 10.144531 31.90625 9.929688 32.074219 9.757812 C 31.707031 10.039062 31.09375 9.535156 30.875 9.957031 L 10.925781 48.171875 C 10.527344 48.933594 10.449219 49.8125 10.710938 50.636719 C 10.972656 51.464844 11.535156 52.140625 12.300781 52.539062 L 25.277344 59.304688 C 25.734375 59.546875 26.25 59.671875 26.765625 59.671875 C 27.980469 59.671875 29.085938 59.003906 29.644531 57.933594 L 49.203125 19.332031 C 49.578125 18.609375 49.652344 17.808594 49.472656 17.070312 C 49.492188 17.421875 49.371094 17.753906 49.132812 18.007812 C 48.890625 18.269531 48.542969 18.417969 48.183594 18.417969 C 47.96875 18.417969 47.761719 18.363281 47.5625 18.261719 L 32.5625 10.3125 " fill-opacity="1" fill-rule="nonzero"/></g><path fill="#ffe505" d="M 40.925781 3.804688 C 41.15625 3.664062 41.464844 3.765625 41.574219 4.019531 C 42.109375 5.230469 43.042969 6.277344 44.308594 6.9375 C 45.578125 7.597656 46.96875 7.765625 48.269531 7.511719 C 48.539062 7.457031 48.800781 7.648438 48.816406 7.917969 L 48.457031 1.789062 C 48.390625 0.671875 47.113281 0.00390625 46.160156 0.589844 L 40.925781 3.804688 " fill-opacity="1" fill-rule="nonzero"/><g clip-path="url(#9c2cfbaa8d)"><path fill="#febf00" d="M 41.722656 3.683594 C 41.777344 3.742188 41.824219 3.8125 41.859375 3.890625 C 42.390625 5.097656 43.289062 6.054688 44.453125 6.660156 C 45.28125 7.09375 46.171875 7.3125 47.101562 7.3125 C 47.472656 7.3125 47.84375 7.277344 48.210938 7.203125 C 48.292969 7.1875 48.378906 7.1875 48.460938 7.195312 L 48.144531 1.804688 C 48.101562 1.105469 47.492188 0.683594 46.929688 0.683594 C 46.710938 0.683594 46.507812 0.742188 46.324219 0.855469 Z M 48.503906 7.9375 C 48.5 7.847656 48.40625 7.800781 48.332031 7.816406 C 46.925781 8.089844 45.4375 7.878906 44.164062 7.214844 C 42.875 6.539062 41.878906 5.480469 41.289062 4.144531 C 41.25 4.050781 41.148438 4.035156 41.089844 4.070312 L 40.765625 3.539062 L 46 0.324219 C 46.277344 0.152344 46.601562 0.0625 46.929688 0.0625 C 47.902344 0.0625 48.710938 0.8125 48.765625 1.769531 L 49.125 7.898438 L 49.125 7.902344 L 48.503906 7.9375 " fill-opacity="1" fill-rule="nonzero"/></g><g clip-path="url(#a9d337a146)"><path fill="#febf00" d="M 26.378906 59.984375 C 25.8125 59.984375 25.246094 59.84375 24.746094 59.582031 L 12.152344 52.8125 C 11.316406 52.375 10.699219 51.636719 10.414062 50.730469 C 10.128906 49.824219 10.210938 48.863281 10.648438 48.027344 L 30.472656 10.503906 C 30.496094 10.453125 31.171875 9.09375 32.921875 8.359375 L 33.164062 8.933594 C 31.628906 9.578125 31.035156 10.773438 31.027344 10.785156 L 11.203125 48.316406 C 10.84375 49.003906 10.773438 49.796875 11.007812 50.542969 C 11.242188 51.292969 11.753906 51.902344 12.441406 52.261719 L 25.035156 59.03125 C 25.445312 59.246094 25.910156 59.359375 26.378906 59.359375 C 27.476562 59.359375 28.472656 58.757812 28.980469 57.789062 L 48.542969 19.179688 L 48.546875 19.171875 C 48.554688 19.160156 49.226562 18 49.03125 16.839844 L 49.644531 16.734375 C 49.875 18.078125 49.167969 19.347656 49.089844 19.480469 L 29.53125 58.074219 C 28.917969 59.253906 27.710938 59.984375 26.378906 59.984375 " fill-opacity="1" fill-rule="nonzero"/></g><g clip-path="url(#9f947df500)"><path fill="#fbc58a" d="M 48.816406 7.917969 C 48.800781 7.648438 48.539062 7.457031 48.269531 7.511719 C 46.96875 7.765625 45.578125 7.597656 44.308594 6.9375 C 43.042969 6.277344 42.109375 5.230469 41.574219 4.019531 C 41.464844 3.765625 41.15625 3.664062 40.925781 3.804688 L 32.199219 9.164062 C 31.914062 9.335938 31.941406 9.75 32.242188 9.910156 L 48.175781 18.21875 C 48.746094 18.515625 49.414062 18.109375 49.378906 17.484375 L 48.816406 7.917969 " fill-opacity="1" fill-rule="nonzero"/></g><g clip-path="url(#659040e3f0)"><path fill="#e5934f" d="M 41.152344 4.050781 C 41.128906 4.050781 41.109375 4.058594 41.089844 4.070312 L 32.363281 9.429688 C 32.320312 9.457031 32.3125 9.492188 32.3125 9.519531 C 32.3125 9.542969 32.320312 9.597656 32.386719 9.632812 L 48.320312 17.945312 C 48.53125 18.054688 48.789062 18.011719 48.941406 17.851562 C 49.003906 17.785156 49.078125 17.671875 49.066406 17.5 L 48.503906 7.9375 C 48.5 7.847656 48.40625 7.800781 48.332031 7.816406 C 46.925781 8.089844 45.4375 7.878906 44.164062 7.214844 C 42.875 6.539062 41.878906 5.480469 41.289062 4.144531 C 41.261719 4.082031 41.199219 4.050781 41.152344 4.050781 Z M 48.574219 18.628906 C 48.386719 18.628906 48.203125 18.585938 48.03125 18.496094 L 32.097656 10.1875 C 31.855469 10.058594 31.699219 9.8125 31.6875 9.542969 C 31.679688 9.277344 31.808594 9.035156 32.035156 8.898438 L 40.765625 3.539062 C 40.882812 3.46875 41.015625 3.429688 41.152344 3.429688 C 41.457031 3.429688 41.734375 3.609375 41.859375 3.890625 C 42.390625 5.097656 43.289062 6.054688 44.453125 6.660156 C 45.28125 7.09375 46.171875 7.3125 47.101562 7.3125 C 47.472656 7.3125 47.84375 7.277344 48.210938 7.203125 C 48.261719 7.195312 48.308594 7.191406 48.359375 7.191406 C 48.765625 7.191406 49.101562 7.503906 49.125 7.902344 L 49.6875 17.464844 C 49.707031 17.769531 49.601562 18.058594 49.394531 18.277344 C 49.183594 18.5 48.886719 18.628906 48.574219 18.628906 " fill-opacity="1" fill-rule="nonzero"/></g></svg>