<svg xmlns="http://www.w3.org/2000/svg" xmlns:xlink="http://www.w3.org/1999/xlink" width="80" zoomAndPan="magnify" viewBox="0 0 60 60" height="80" preserveAspectRatio="xMidYMid meet" version="1.0"><path fill="#fbc810" d="M 11.625 30 C 11.625 19.859375 19.847656 11.636719 29.988281 11.636719 C 40.128906 11.636719 48.351562 19.859375 48.351562 30 C 48.351562 40.140625 40.128906 48.363281 29.988281 48.363281 C 19.847656 48.363281 11.625 40.140625 11.625 30 " fill-opacity="1" fill-rule="nonzero"/><path fill="#f7dff1" d="M 29.988281 48.363281 C 29.984375 48.363281 29.980469 48.363281 29.972656 48.363281 C 29.980469 48.363281 29.984375 48.363281 29.988281 48.363281 C 40.128906 48.363281 48.351562 40.140625 48.351562 30 C 48.351562 40.140625 40.128906 48.363281 29.988281 48.363281 M 29.972656 48.363281 C 29.96875 48.363281 29.964844 48.363281 29.960938 48.363281 C 29.964844 48.363281 29.96875 48.363281 29.972656 48.363281 M 29.957031 48.363281 C 29.953125 48.363281 29.949219 48.363281 29.945312 48.363281 C 29.949219 48.363281 29.953125 48.363281 29.957031 48.363281 M 29.945312 48.363281 C 29.941406 48.363281 29.933594 48.363281 29.929688 48.363281 C 29.933594 48.363281 29.9375 48.363281 29.945312 48.363281 M 29.925781 48.363281 C 29.921875 48.363281 29.917969 48.363281 29.914062 48.363281 C 29.921875 48.363281 29.921875 48.363281 29.925781 48.363281 M 29.914062 48.363281 C 29.910156 48.363281 29.90625 48.363281 29.902344 48.363281 C 29.90625 48.363281 29.910156 48.363281 29.914062 48.363281 M 29.898438 48.363281 C 29.894531 48.363281 29.890625 48.363281 29.886719 48.363281 C 29.890625 48.363281 29.894531 48.363281 29.898438 48.363281 M 29.882812 48.363281 C 29.878906 48.363281 29.875 48.363281 29.871094 48.363281 C 29.875 48.363281 29.878906 48.363281 29.882812 48.363281 M 29.867188 48.363281 C 29.863281 48.363281 29.859375 48.363281 29.859375 48.363281 C 29.863281 48.363281 29.863281 48.363281 29.867188 48.363281 M 29.855469 48.363281 C 29.847656 48.363281 29.847656 48.363281 29.839844 48.363281 C 29.84375 48.363281 29.851562 48.363281 29.855469 48.363281 M 29.835938 48.363281 C 29.832031 48.363281 29.832031 48.363281 29.828125 48.363281 C 29.832031 48.363281 29.832031 48.363281 29.835938 48.363281 M 29.820312 48.359375 C 29.820312 48.359375 29.816406 48.359375 29.816406 48.359375 C 29.816406 48.359375 29.820312 48.359375 29.820312 48.359375 M 29.808594 48.359375 C 29.804688 48.359375 29.800781 48.359375 29.796875 48.359375 C 29.800781 48.359375 29.804688 48.359375 29.808594 48.359375 M 29.789062 48.359375 C 29.789062 48.359375 29.785156 48.359375 29.785156 48.359375 C 29.785156 48.359375 29.789062 48.359375 29.789062 48.359375 M 29.777344 48.359375 C 29.773438 48.359375 29.773438 48.359375 29.769531 48.359375 C 29.773438 48.359375 29.773438 48.359375 29.777344 48.359375 M 29.761719 48.359375 C 29.761719 48.359375 29.761719 48.359375 29.757812 48.359375 C 29.761719 48.359375 29.761719 48.359375 29.761719 48.359375 M 29.742188 48.359375 C 29.742188 48.359375 29.742188 48.359375 29.738281 48.359375 C 29.742188 48.359375 29.742188 48.359375 29.742188 48.359375 M 29.730469 48.359375 C 29.730469 48.359375 29.726562 48.359375 29.726562 48.359375 C 29.726562 48.359375 29.730469 48.359375 29.730469 48.359375 M 29.71875 48.359375 C 29.71875 48.359375 29.714844 48.359375 29.714844 48.359375 C 29.714844 48.359375 29.71875 48.359375 29.71875 48.359375 M 29.683594 48.359375 L 29.683594 48.359375 M 48.351562 30 C 48.351562 29.996094 48.351562 29.988281 48.351562 29.984375 C 48.351562 29.988281 48.351562 29.992188 48.351562 30 M 48.351562 29.980469 C 48.351562 29.976562 48.351562 29.976562 48.351562 29.972656 C 48.351562 29.976562 48.351562 29.980469 48.351562 29.980469 M 48.351562 29.96875 C 48.351562 29.964844 48.351562 29.960938 48.351562 29.953125 C 48.351562 29.960938 48.351562 29.964844 48.351562 29.96875 M 48.351562 29.949219 C 48.351562 29.949219 48.351562 29.945312 48.351562 29.941406 C 48.351562 29.945312 48.351562 29.949219 48.351562 29.949219 M 48.351562 29.9375 C 48.351562 29.933594 48.351562 29.929688 48.351562 29.929688 C 48.351562 29.929688 48.351562 29.933594 48.351562 29.9375 M 48.351562 29.921875 C 48.351562 29.917969 48.351562 29.914062 48.351562 29.910156 C 48.351562 29.914062 48.351562 29.917969 48.351562 29.921875 M 48.351562 29.902344 L 48.351562 29.902344 " fill-opacity="1" fill-rule="nonzero"/><path fill="#f1ae0d" d="M 29.988281 48.363281 C 29.984375 48.363281 29.980469 48.363281 29.972656 48.363281 C 29.96875 48.363281 29.964844 48.363281 29.960938 48.363281 C 29.960938 48.363281 29.957031 48.363281 29.957031 48.363281 C 29.953125 48.363281 29.949219 48.363281 29.945312 48.363281 C 29.9375 48.363281 29.933594 48.363281 29.929688 48.363281 C 29.929688 48.363281 29.925781 48.363281 29.925781 48.363281 C 29.921875 48.363281 29.921875 48.363281 29.914062 48.363281 C 29.910156 48.363281 29.90625 48.363281 29.902344 48.363281 C 29.902344 48.363281 29.898438 48.363281 29.898438 48.363281 C 29.894531 48.363281 29.890625 48.363281 29.886719 48.363281 C 29.882812 48.363281 29.882812 48.363281 29.882812 48.363281 C 29.878906 48.363281 29.875 48.363281 29.871094 48.363281 C 29.871094 48.363281 29.867188 48.363281 29.867188 48.363281 C 29.863281 48.363281 29.863281 48.363281 29.859375 48.363281 C 29.859375 48.363281 29.855469 48.363281 29.855469 48.363281 C 29.851562 48.363281 29.84375 48.363281 29.839844 48.363281 C 29.839844 48.363281 29.839844 48.363281 29.835938 48.363281 C 29.832031 48.363281 29.832031 48.363281 29.828125 48.363281 C 29.828125 48.359375 29.824219 48.359375 29.820312 48.359375 C 29.820312 48.359375 29.816406 48.359375 29.816406 48.359375 C 29.8125 48.359375 29.808594 48.359375 29.808594 48.359375 C 29.804688 48.359375 29.800781 48.359375 29.796875 48.359375 C 29.796875 48.359375 29.792969 48.359375 29.789062 48.359375 C 29.789062 48.359375 29.785156 48.359375 29.785156 48.359375 C 29.78125 48.359375 29.78125 48.359375 29.777344 48.359375 C 29.773438 48.359375 29.773438 48.359375 29.769531 48.359375 C 29.769531 48.359375 29.765625 48.359375 29.761719 48.359375 C 29.761719 48.359375 29.761719 48.359375 29.757812 48.359375 C 29.753906 48.359375 29.75 48.359375 29.742188 48.359375 C 29.742188 48.359375 29.742188 48.359375 29.738281 48.359375 C 29.738281 48.359375 29.734375 48.359375 29.730469 48.359375 C 29.730469 48.359375 29.726562 48.359375 29.726562 48.359375 C 29.722656 48.359375 29.722656 48.359375 29.71875 48.359375 C 29.71875 48.359375 29.714844 48.359375 29.714844 48.359375 C 29.707031 48.359375 29.695312 48.359375 29.683594 48.359375 C 29.679688 48.359375 29.675781 48.359375 29.671875 48.359375 C 22.09375 48.230469 15.640625 43.511719 12.957031 36.863281 C 16.226562 41.921875 21.914062 45.269531 28.382812 45.269531 C 38.527344 45.269531 46.746094 37.050781 46.746094 26.90625 C 46.746094 24.480469 46.269531 22.164062 45.414062 20.042969 C 47.253906 22.886719 48.332031 26.265625 48.351562 29.902344 C 48.351562 29.90625 48.351562 29.910156 48.351562 29.910156 C 48.351562 29.914062 48.351562 29.917969 48.351562 29.921875 C 48.351562 29.921875 48.351562 29.925781 48.351562 29.929688 C 48.351562 29.929688 48.351562 29.933594 48.351562 29.9375 C 48.351562 29.9375 48.351562 29.941406 48.351562 29.941406 C 48.351562 29.945312 48.351562 29.949219 48.351562 29.949219 C 48.351562 29.953125 48.351562 29.953125 48.351562 29.953125 C 48.351562 29.960938 48.351562 29.964844 48.351562 29.96875 C 48.351562 29.96875 48.351562 29.96875 48.351562 29.972656 C 48.351562 29.976562 48.351562 29.976562 48.351562 29.980469 C 48.351562 29.984375 48.351562 29.984375 48.351562 29.984375 C 48.351562 29.988281 48.351562 29.996094 48.351562 30 C 48.351562 40.140625 40.128906 48.363281 29.988281 48.363281 " fill-opacity="1" fill-rule="nonzero"/><path fill="#5c363c" d="M 37.8125 22.652344 C 37.5 22.652344 37.246094 22.90625 37.246094 23.21875 L 37.246094 23.234375 C 37.246094 23.804688 36.78125 24.273438 36.175781 24.273438 C 35.605469 24.273438 35.140625 23.804688 35.140625 23.234375 L 35.140625 23.21875 C 35.140625 22.90625 34.886719 22.652344 34.574219 22.652344 C 34.261719 22.652344 34.007812 22.90625 34.007812 23.21875 L 34.007812 23.234375 C 34.007812 24.429688 34.980469 25.402344 36.207031 25.402344 C 37.402344 25.402344 38.378906 24.429688 38.378906 23.234375 L 38.378906 23.21875 C 38.378906 22.90625 38.125 22.652344 37.8125 22.652344 " fill-opacity="1" fill-rule="nonzero"/><path fill="#5c363c" d="M 23.089844 22.652344 C 22.777344 22.652344 22.523438 22.90625 22.523438 23.21875 L 22.523438 23.234375 C 22.523438 23.804688 22.058594 24.273438 21.453125 24.273438 C 20.882812 24.273438 20.417969 23.804688 20.417969 23.234375 L 20.417969 23.21875 C 20.417969 22.90625 20.164062 22.652344 19.851562 22.652344 C 19.539062 22.652344 19.285156 22.90625 19.285156 23.21875 L 19.285156 23.234375 C 19.285156 24.429688 20.257812 25.402344 21.488281 25.402344 C 22.683594 25.402344 23.65625 24.429688 23.65625 23.234375 L 23.65625 23.21875 C 23.65625 22.90625 23.402344 22.652344 23.089844 22.652344 " fill-opacity="1" fill-rule="nonzero"/><path fill="#f1ae0d" d="M 20.296875 28.394531 C 18.992188 28.394531 17.933594 27.800781 17.933594 27.074219 C 17.933594 26.339844 18.992188 25.75 20.296875 25.75 C 21.605469 25.75 22.660156 26.339844 22.660156 27.074219 C 22.660156 27.800781 21.605469 28.394531 20.296875 28.394531 " fill-opacity="1" fill-rule="nonzero"/><path fill="#f1ae0d" d="M 36.835938 28.394531 C 35.53125 28.394531 34.472656 27.800781 34.472656 27.074219 C 34.472656 26.339844 35.53125 25.75 36.835938 25.75 C 38.140625 25.75 39.199219 26.339844 39.199219 27.074219 C 39.199219 27.800781 38.140625 28.394531 36.835938 28.394531 " fill-opacity="1" fill-rule="nonzero"/><path fill="#5c363c" d="M 28.398438 30.316406 C 28.179688 30.316406 27.964844 30.28125 27.757812 30.21875 C 26.902344 29.972656 26.136719 29.21875 25.554688 28.042969 C 25.445312 27.820312 25.34375 27.582031 25.25 27.335938 C 25.136719 27.039062 25.289062 26.703125 25.585938 26.589844 C 25.882812 26.480469 26.21875 26.628906 26.332031 26.929688 C 26.410156 27.140625 26.496094 27.34375 26.59375 27.53125 C 27.019531 28.394531 27.550781 28.957031 28.089844 29.113281 C 28.269531 29.167969 28.453125 29.171875 28.621094 29.136719 C 28.707031 29.117188 28.777344 29.097656 28.847656 29.066406 C 29.441406 28.816406 30.023438 28.066406 30.4375 27.007812 C 30.554688 26.710938 30.890625 26.566406 31.1875 26.683594 C 31.484375 26.796875 31.628906 27.132812 31.515625 27.429688 C 30.96875 28.816406 30.199219 29.753906 29.292969 30.132812 C 29.152344 30.191406 29.007812 30.234375 28.859375 30.265625 C 28.714844 30.296875 28.558594 30.316406 28.398438 30.316406 " fill-opacity="1" fill-rule="nonzero"/><path fill="#fbc810" d="M 29.988281 9.191406 C 29.667969 9.191406 29.410156 8.929688 29.410156 8.613281 L 29.410156 0.578125 C 29.410156 0.257812 29.667969 0 29.988281 0 C 30.308594 0 30.566406 0.257812 30.566406 0.578125 L 30.566406 8.613281 C 30.566406 8.929688 30.308594 9.191406 29.988281 9.191406 " fill-opacity="1" fill-rule="nonzero"/><path fill="#fbc810" d="M 19.296875 12.054688 C 19.097656 12.054688 18.902344 11.953125 18.796875 11.765625 L 14.777344 4.808594 C 14.617188 4.53125 14.710938 4.179688 14.988281 4.019531 C 15.265625 3.859375 15.621094 3.953125 15.777344 4.230469 L 19.796875 11.1875 C 19.957031 11.464844 19.859375 11.820312 19.585938 11.976562 C 19.492188 12.03125 19.394531 12.054688 19.296875 12.054688 " fill-opacity="1" fill-rule="nonzero"/><path fill="#fbc810" d="M 11.464844 19.882812 C 11.367188 19.882812 11.269531 19.859375 11.179688 19.804688 L 4.222656 15.789062 C 3.945312 15.628906 3.851562 15.277344 4.007812 15 C 4.167969 14.722656 4.523438 14.628906 4.796875 14.789062 L 11.757812 18.804688 C 12.03125 18.964844 12.125 19.316406 11.96875 19.59375 C 11.863281 19.78125 11.667969 19.882812 11.464844 19.882812 " fill-opacity="1" fill-rule="nonzero"/><path fill="#fbc810" d="M 8.601562 30.578125 L 0.566406 30.578125 C 0.25 30.578125 -0.0117188 30.320312 -0.0117188 30 C -0.0117188 29.679688 0.25 29.421875 0.566406 29.421875 L 8.601562 29.421875 C 8.921875 29.421875 9.179688 29.679688 9.179688 30 C 9.179688 30.320312 8.921875 30.578125 8.601562 30.578125 " fill-opacity="1" fill-rule="nonzero"/><path fill="#fbc810" d="M 4.511719 45.289062 C 4.308594 45.289062 4.113281 45.183594 4.007812 45 C 3.851562 44.722656 3.945312 44.367188 4.222656 44.207031 L 11.179688 40.191406 C 11.453125 40.03125 11.808594 40.125 11.96875 40.402344 C 12.125 40.679688 12.03125 41.03125 11.757812 41.191406 L 4.796875 45.210938 C 4.707031 45.261719 4.609375 45.289062 4.511719 45.289062 " fill-opacity="1" fill-rule="nonzero"/><path fill="#fbc810" d="M 15.277344 56.054688 C 15.179688 56.054688 15.078125 56.03125 14.988281 55.976562 C 14.710938 55.820312 14.617188 55.464844 14.777344 55.191406 L 18.796875 48.230469 C 18.953125 47.953125 19.308594 47.859375 19.585938 48.019531 C 19.859375 48.179688 19.957031 48.53125 19.796875 48.808594 L 15.777344 55.765625 C 15.671875 55.953125 15.476562 56.054688 15.277344 56.054688 " fill-opacity="1" fill-rule="nonzero"/><path fill="#fbc810" d="M 29.988281 59.996094 C 29.667969 59.996094 29.410156 59.738281 29.410156 59.421875 L 29.410156 51.386719 C 29.410156 51.066406 29.667969 50.808594 29.988281 50.808594 C 30.308594 50.808594 30.566406 51.066406 30.566406 51.386719 L 30.566406 59.421875 C 30.566406 59.738281 30.308594 59.996094 29.988281 59.996094 " fill-opacity="1" fill-rule="nonzero"/><path fill="#fbc810" d="M 44.699219 56.054688 C 44.5 56.054688 44.304688 55.953125 44.199219 55.765625 L 40.183594 48.808594 C 40.023438 48.53125 40.117188 48.179688 40.394531 48.019531 C 40.667969 47.859375 41.023438 47.953125 41.183594 48.230469 L 45.199219 55.191406 C 45.359375 55.464844 45.265625 55.820312 44.988281 55.976562 C 44.898438 56.03125 44.796875 56.054688 44.699219 56.054688 " fill-opacity="1" fill-rule="nonzero"/><path fill="#fbc810" d="M 55.46875 45.289062 C 55.367188 45.289062 55.269531 45.261719 55.179688 45.210938 L 48.21875 41.191406 C 47.945312 41.03125 47.851562 40.679688 48.007812 40.402344 C 48.167969 40.125 48.523438 40.03125 48.800781 40.191406 L 55.757812 44.207031 C 56.035156 44.367188 56.128906 44.722656 55.96875 45 C 55.863281 45.183594 55.667969 45.289062 55.46875 45.289062 " fill-opacity="1" fill-rule="nonzero"/><path fill="#fbc810" d="M 59.410156 30.578125 L 51.375 30.578125 C 51.054688 30.578125 50.796875 30.320312 50.796875 30 C 50.796875 29.679688 51.054688 29.421875 51.375 29.421875 L 59.410156 29.421875 C 59.726562 29.421875 59.988281 29.679688 59.988281 30 C 59.988281 30.320312 59.726562 30.578125 59.410156 30.578125 " fill-opacity="1" fill-rule="nonzero"/><path fill="#fbc810" d="M 48.511719 19.882812 C 48.3125 19.882812 48.117188 19.78125 48.007812 19.59375 C 47.851562 19.316406 47.945312 18.964844 48.21875 18.804688 L 55.179688 14.789062 C 55.453125 14.628906 55.808594 14.722656 55.96875 15 C 56.128906 15.277344 56.035156 15.628906 55.757812 15.789062 L 48.800781 19.804688 C 48.707031 19.859375 48.609375 19.882812 48.511719 19.882812 " fill-opacity="1" fill-rule="nonzero"/><path fill="#fbc810" d="M 40.683594 12.054688 C 40.582031 12.054688 40.484375 12.03125 40.394531 11.976562 C 40.117188 11.820312 40.023438 11.464844 40.183594 11.1875 L 44.199219 4.230469 C 44.359375 3.953125 44.710938 3.859375 44.988281 4.019531 C 45.265625 4.179688 45.359375 4.53125 45.199219 4.808594 L 41.183594 11.765625 C 41.074219 11.953125 40.878906 12.054688 40.683594 12.054688 " fill-opacity="1" fill-rule="nonzero"/></svg>