<svg xmlns="http://www.w3.org/2000/svg" xmlns:xlink="http://www.w3.org/1999/xlink" width="80" zoomAndPan="magnify" viewBox="0 0 60 60" height="80" preserveAspectRatio="xMidYMid meet" version="1.0"><defs><clipPath id="41d679c5ae"><path d="M 23.886719 0 L 35.886719 0 L 35.886719 58.5 L 23.886719 58.5 Z M 23.886719 0 " clip-rule="nonzero"/></clipPath></defs><g clip-path="url(#41d679c5ae)"><path fill="#d42129" d="M 32.074219 24.339844 C 32.074219 23.402344 32.304688 22.472656 32.738281 21.640625 L 34.769531 19.144531 C 35.65625 18.0625 36.109375 16.691406 36.0625 15.296875 L 34.761719 0.667969 C 34.75 0.296875 34.445312 0 34.085938 0 C 33.726562 0 33.445312 0.296875 33.457031 0.667969 L 34.089844 13.667969 C 34.109375 14.179688 33.738281 14.597656 33.265625 14.597656 C 32.792969 14.597656 32.402344 14.179688 32.394531 13.667969 L 32.023438 0.667969 C 32.019531 0.296875 31.722656 0 31.363281 0 C 31.007812 0 30.71875 0.296875 30.71875 0.667969 L 30.851562 13.667969 C 30.855469 14.179688 30.476562 14.597656 30.003906 14.597656 C 29.53125 14.597656 29.152344 14.179688 29.15625 13.667969 L 29.289062 0.667969 C 29.285156 0.296875 28.996094 0 28.636719 0 C 28.28125 0 27.984375 0.296875 27.976562 0.667969 L 27.605469 13.667969 C 27.59375 14.179688 27.207031 14.597656 26.734375 14.597656 C 26.261719 14.597656 25.890625 14.179688 25.90625 13.667969 L 26.539062 0.667969 C 26.550781 0.296875 26.269531 0 25.910156 0 C 25.554688 0 25.25 0.296875 25.234375 0.667969 L 23.9375 15.296875 C 23.886719 16.691406 24.347656 18.058594 25.226562 19.144531 L 27.257812 21.640625 C 27.695312 22.476562 27.921875 23.402344 27.921875 24.339844 C 27.921875 24.339844 28.867188 38.308594 27.078125 51.789062 C 27.078125 51.789062 25.695312 58.558594 29.996094 58.558594 C 34.292969 58.558594 32.910156 51.789062 32.910156 51.789062 C 31.128906 38.308594 32.074219 24.339844 32.074219 24.339844 Z M 32.074219 24.339844 " fill-opacity="1" fill-rule="nonzero"/></g></svg>