<svg xmlns="http://www.w3.org/2000/svg" xmlns:xlink="http://www.w3.org/1999/xlink" width="80" zoomAndPan="magnify" viewBox="0 0 60 60" height="80" preserveAspectRatio="xMidYMid meet" version="1.0"><defs><clipPath id="fc710613bd"><path d="M 24.238281 0 L 36.988281 0 L 36.988281 60 L 24.238281 60 Z M 24.238281 0 " clip-rule="nonzero"/></clipPath></defs><g clip-path="url(#fc710613bd)"><path fill="#578200" d="M 32.621094 24.945312 C 32.621094 23.980469 32.855469 23.03125 33.300781 22.179688 L 35.382812 19.621094 C 36.285156 18.515625 36.753906 17.109375 36.703125 15.679688 L 35.371094 0.699219 C 35.359375 0.320312 35.046875 0.015625 34.679688 0.015625 C 34.3125 0.015625 34.023438 0.320312 34.039062 0.699219 L 34.683594 14.011719 C 34.703125 14.535156 34.324219 14.964844 33.839844 14.964844 C 33.355469 14.964844 32.957031 14.535156 32.945312 14.011719 L 32.566406 0.699219 C 32.5625 0.320312 32.257812 0.015625 31.890625 0.015625 C 31.527344 0.015625 31.230469 0.320312 31.230469 0.699219 L 31.367188 14.011719 C 31.371094 14.535156 30.984375 14.964844 30.5 14.964844 C 30.015625 14.964844 29.625 14.535156 29.628906 14.011719 L 29.765625 0.699219 C 29.761719 0.320312 29.46875 0.015625 29.101562 0.015625 C 28.734375 0.015625 28.429688 0.320312 28.421875 0.699219 L 28.042969 14.011719 C 28.03125 14.535156 27.632812 14.964844 27.152344 14.964844 C 26.667969 14.964844 26.285156 14.535156 26.304688 14.011719 L 26.953125 0.699219 C 26.964844 0.320312 26.675781 0.015625 26.308594 0.015625 C 25.941406 0.015625 25.628906 0.320312 25.617188 0.699219 L 24.285156 15.679688 C 24.238281 17.109375 24.707031 18.507812 25.609375 19.621094 L 27.6875 22.179688 C 28.136719 23.035156 28.367188 23.980469 28.367188 24.945312 C 28.367188 24.945312 29.335938 39.246094 27.503906 53.050781 C 27.503906 53.050781 26.085938 59.984375 30.488281 59.984375 C 34.890625 59.984375 33.476562 53.050781 33.476562 53.050781 C 31.652344 39.246094 32.621094 24.945312 32.621094 24.945312 Z M 32.621094 24.945312 " fill-opacity="1" fill-rule="nonzero"/></g></svg>