<svg xmlns="http://www.w3.org/2000/svg" xmlns:xlink="http://www.w3.org/1999/xlink" width="80" zoomAndPan="magnify" viewBox="0 0 60 60" height="80" preserveAspectRatio="xMidYMid meet" version="1.0"><defs><clipPath id="16ae4cb7fc"><path d="M 2 2.65625 L 58 2.65625 L 58 57.40625 L 2 57.40625 Z M 2 2.65625 " clip-rule="nonzero"/></clipPath><clipPath id="dea257285e"><path d="M 1.441406 12 L 30 12 L 30 40 L 1.441406 40 Z M 1.441406 12 " clip-rule="nonzero"/></clipPath><clipPath id="9c797729a7"><path d="M 30 12 L 58.441406 12 L 58.441406 40 L 30 40 Z M 30 12 " clip-rule="nonzero"/></clipPath></defs><g clip-path="url(#16ae4cb7fc)"><path fill="#facc08" d="M 57.226562 30.03125 C 57.226562 30.929688 57.183594 31.824219 57.09375 32.714844 C 57.007812 33.605469 56.875 34.492188 56.703125 35.371094 C 56.527344 36.25 56.308594 37.121094 56.050781 37.976562 C 55.792969 38.835938 55.492188 39.679688 55.148438 40.507812 C 54.808594 41.335938 54.425781 42.144531 54.003906 42.9375 C 53.582031 43.726562 53.125 44.496094 52.628906 45.238281 C 52.132812 45.984375 51.597656 46.703125 51.03125 47.398438 C 50.464844 48.089844 49.867188 48.753906 49.234375 49.386719 C 48.601562 50.023438 47.941406 50.625 47.25 51.191406 C 46.558594 51.761719 45.84375 52.292969 45.101562 52.792969 C 44.359375 53.289062 43.59375 53.75 42.804688 54.171875 C 42.015625 54.597656 41.210938 54.980469 40.382812 55.320312 C 39.558594 55.664062 38.71875 55.964844 37.863281 56.226562 C 37.007812 56.488281 36.140625 56.703125 35.265625 56.878906 C 34.390625 57.054688 33.507812 57.1875 32.617188 57.273438 C 31.726562 57.363281 30.835938 57.40625 29.941406 57.40625 C 29.050781 57.40625 28.160156 57.363281 27.269531 57.273438 C 26.378906 57.1875 25.496094 57.054688 24.621094 56.878906 C 23.746094 56.703125 22.878906 56.488281 22.023438 56.226562 C 21.167969 55.964844 20.328125 55.664062 19.503906 55.320312 C 18.675781 54.980469 17.871094 54.597656 17.082031 54.171875 C 16.292969 53.75 15.527344 53.289062 14.785156 52.792969 C 14.042969 52.292969 13.328125 51.761719 12.636719 51.191406 C 11.945312 50.625 11.285156 50.023438 10.652344 49.386719 C 10.019531 48.753906 9.421875 48.089844 8.855469 47.398438 C 8.285156 46.703125 7.753906 45.984375 7.257812 45.238281 C 6.761719 44.496094 6.304688 43.726562 5.882812 42.9375 C 5.460938 42.144531 5.078125 41.335938 4.738281 40.507812 C 4.394531 39.679688 4.09375 38.835938 3.835938 37.976562 C 3.578125 37.121094 3.359375 36.25 3.183594 35.371094 C 3.011719 34.492188 2.878906 33.605469 2.792969 32.714844 C 2.703125 31.824219 2.660156 30.929688 2.660156 30.03125 C 2.660156 29.136719 2.703125 28.242188 2.792969 27.347656 C 2.878906 26.457031 3.011719 25.570312 3.183594 24.691406 C 3.359375 23.8125 3.578125 22.945312 3.835938 22.085938 C 4.09375 21.226562 4.394531 20.386719 4.738281 19.558594 C 5.078125 18.726562 5.460938 17.917969 5.882812 17.128906 C 6.304688 16.335938 6.761719 15.570312 7.257812 14.824219 C 7.753906 14.078125 8.285156 13.359375 8.855469 12.667969 C 9.421875 11.972656 10.019531 11.308594 10.652344 10.675781 C 11.285156 10.042969 11.945312 9.441406 12.636719 8.871094 C 13.328125 8.304688 14.042969 7.769531 14.785156 7.273438 C 15.527344 6.773438 16.292969 6.3125 17.082031 5.890625 C 17.871094 5.46875 18.675781 5.085938 19.503906 4.742188 C 20.328125 4.398438 21.167969 4.097656 22.023438 3.835938 C 22.878906 3.578125 23.746094 3.359375 24.621094 3.183594 C 25.496094 3.007812 26.378906 2.878906 27.269531 2.789062 C 28.160156 2.703125 29.050781 2.660156 29.941406 2.660156 C 30.835938 2.660156 31.726562 2.703125 32.617188 2.789062 C 33.507812 2.878906 34.390625 3.007812 35.265625 3.183594 C 36.140625 3.359375 37.007812 3.578125 37.863281 3.835938 C 38.71875 4.097656 39.558594 4.398438 40.382812 4.742188 C 41.210938 5.085938 42.015625 5.46875 42.804688 5.890625 C 43.59375 6.3125 44.359375 6.773438 45.101562 7.273438 C 45.84375 7.769531 46.558594 8.304688 47.25 8.871094 C 47.941406 9.441406 48.601562 10.042969 49.234375 10.675781 C 49.867188 11.308594 50.464844 11.972656 51.03125 12.667969 C 51.597656 13.359375 52.132812 14.078125 52.628906 14.824219 C 53.125 15.570312 53.582031 16.335938 54.003906 17.128906 C 54.425781 17.917969 54.808594 18.726562 55.148438 19.558594 C 55.492188 20.386719 55.792969 21.226562 56.050781 22.085938 C 56.308594 22.945312 56.527344 23.8125 56.703125 24.691406 C 56.875 25.570312 57.007812 26.457031 57.09375 27.347656 C 57.183594 28.242188 57.226562 29.136719 57.226562 30.03125 Z M 57.226562 30.03125 " fill-opacity="1" fill-rule="nonzero"/></g><path fill="#000000" d="M 24.445312 26.046875 C 24.152344 26.046875 23.890625 25.960938 23.65625 25.789062 C 23.039062 25.332031 22.367188 24.988281 21.644531 24.746094 C 20.917969 24.503906 20.171875 24.382812 19.40625 24.378906 C 18.644531 24.378906 17.898438 24.492188 17.167969 24.726562 C 16.441406 24.960938 15.769531 25.300781 15.148438 25.75 C 15.003906 25.847656 14.847656 25.914062 14.675781 25.949219 C 14.507812 25.984375 14.335938 25.988281 14.167969 25.957031 C 13.996094 25.925781 13.835938 25.863281 13.6875 25.773438 C 13.542969 25.679688 13.417969 25.5625 13.316406 25.421875 C 13.214844 25.28125 13.144531 25.125 13.101562 24.957031 C 13.0625 24.785156 13.054688 24.617188 13.078125 24.441406 C 13.101562 24.269531 13.160156 24.109375 13.246094 23.957031 C 13.335938 23.808594 13.445312 23.679688 13.585938 23.574219 C 14.433594 22.960938 15.355469 22.492188 16.355469 22.171875 C 17.351562 21.851562 18.371094 21.695312 19.417969 21.699219 C 20.464844 21.703125 21.488281 21.871094 22.480469 22.199219 C 23.476562 22.527344 24.394531 23.003906 25.238281 23.625 C 25.472656 23.796875 25.632812 24.019531 25.722656 24.296875 C 25.808594 24.574219 25.808594 24.851562 25.71875 25.125 C 25.628906 25.402344 25.464844 25.625 25.230469 25.792969 C 24.996094 25.964844 24.734375 26.050781 24.445312 26.050781 Z M 24.445312 26.046875 " fill-opacity="1" fill-rule="nonzero"/><path fill="#000000" d="M 35.441406 26.046875 C 35.152344 26.046875 34.890625 25.964844 34.65625 25.792969 C 34.421875 25.625 34.257812 25.398438 34.167969 25.125 C 34.078125 24.847656 34.078125 24.574219 34.164062 24.296875 C 34.253906 24.019531 34.414062 23.796875 34.648438 23.625 C 35.492188 23.003906 36.410156 22.527344 37.40625 22.199219 C 38.398438 21.867188 39.417969 21.703125 40.46875 21.699219 C 41.515625 21.691406 42.535156 21.851562 43.53125 22.171875 C 44.53125 22.492188 45.453125 22.957031 46.300781 23.574219 C 46.441406 23.679688 46.550781 23.808594 46.640625 23.957031 C 46.726562 24.109375 46.785156 24.269531 46.808594 24.441406 C 46.832031 24.613281 46.824219 24.785156 46.785156 24.953125 C 46.742188 25.125 46.671875 25.277344 46.570312 25.417969 C 46.46875 25.5625 46.34375 25.679688 46.195312 25.769531 C 46.050781 25.863281 45.890625 25.925781 45.71875 25.957031 C 45.550781 25.988281 45.378906 25.984375 45.210938 25.949219 C 45.039062 25.914062 44.882812 25.84375 44.738281 25.75 C 44.117188 25.300781 43.445312 24.960938 42.714844 24.726562 C 41.988281 24.492188 41.242188 24.375 40.480469 24.378906 C 39.714844 24.382812 38.96875 24.503906 38.242188 24.746094 C 37.519531 24.984375 36.847656 25.332031 36.230469 25.785156 C 35.996094 25.960938 35.734375 26.046875 35.441406 26.046875 Z M 35.441406 26.046875 " fill-opacity="1" fill-rule="nonzero"/><path fill="#000000" d="M 30.492188 48.710938 C 28.375 48.710938 26.4375 48.324219 24.785156 47.796875 C 19.703125 46.183594 16.300781 43.003906 16.15625 42.871094 C 16.023438 42.75 15.925781 42.605469 15.851562 42.445312 C 15.777344 42.28125 15.738281 42.113281 15.734375 41.933594 C 15.726562 41.753906 15.753906 41.582031 15.820312 41.417969 C 15.882812 41.25 15.972656 41.101562 16.09375 40.972656 C 16.214844 40.84375 16.359375 40.742188 16.519531 40.667969 C 16.679688 40.59375 16.851562 40.554688 17.027344 40.550781 C 17.207031 40.542969 17.378906 40.570312 17.542969 40.636719 C 17.710938 40.699219 17.855469 40.789062 17.988281 40.914062 C 18.023438 40.945312 21.15625 43.851562 25.675781 45.265625 C 31.574219 47.109375 37.027344 45.648438 41.878906 40.925781 C 42.007812 40.804688 42.152344 40.707031 42.320312 40.644531 C 42.484375 40.578125 42.65625 40.546875 42.832031 40.550781 C 43.007812 40.550781 43.179688 40.589844 43.34375 40.660156 C 43.503906 40.730469 43.648438 40.828125 43.773438 40.957031 C 43.894531 41.085938 43.988281 41.230469 44.054688 41.398438 C 44.121094 41.5625 44.152344 41.734375 44.148438 41.910156 C 44.144531 42.089844 44.109375 42.261719 44.039062 42.421875 C 43.96875 42.585938 43.871094 42.730469 43.742188 42.855469 C 39.152344 47.324219 34.496094 48.710938 30.492188 48.710938 Z M 30.492188 48.710938 " fill-opacity="1" fill-rule="nonzero"/><path fill="#facc08" d="M 2.277344 23.300781 C 2.15625 21.488281 2.121094 19.648438 2.527344 17.875 C 2.796875 16.6875 3.277344 15.53125 4.011719 14.554688 C 4.859375 13.421875 5.460938 12.851562 6.898438 13.175781 C 8.613281 13.5625 9.089844 15.632812 9.210938 17.214844 C 9.265625 17.957031 8.769531 19.851562 9.660156 20.203125 C 10.53125 20.550781 10.742188 19.40625 10.96875 18.886719 C 11.488281 17.71875 12.242188 16.628906 12.953125 15.566406 C 13.503906 14.738281 14.109375 13.902344 14.953125 13.378906 C 15.800781 12.851562 16.953125 12.703125 17.773438 13.269531 C 18.65625 13.878906 18.898438 15.101562 18.742188 16.167969 C 18.679688 16.597656 18.535156 17.007812 18.382812 17.414062 C 18.308594 17.617188 18.105469 17.890625 18.15625 18.121094 C 18.25 18.554688 18.664062 18.152344 18.835938 18.007812 C 19.269531 17.644531 19.703125 17.265625 20.164062 16.9375 C 21.089844 16.273438 22.066406 15.710938 23.230469 16.164062 C 24.980469 16.832031 24.808594 18.878906 24.195312 20.242188 C 24.078125 20.496094 23.941406 20.734375 23.78125 20.964844 C 23.664062 21.140625 23.300781 21.480469 23.289062 21.695312 C 23.261719 22.171875 24.371094 21.496094 24.558594 21.445312 C 24.945312 21.347656 25.371094 21.1875 25.773438 21.160156 C 26.277344 21.121094 26.789062 21.152344 27.25 21.382812 C 28.03125 21.773438 28.46875 22.667969 28.507812 23.542969 C 28.546875 24.414062 28.25 25.269531 27.871094 26.058594 C 27.601562 26.621094 27.289062 27.160156 26.9375 27.671875 C 26.621094 28.136719 26.269531 28.582031 25.839844 28.929688 C 25.65625 29.082031 25.464844 29.238281 25.347656 29.449219 C 25.308594 29.519531 25.28125 29.601562 25.316406 29.667969 C 25.355469 29.734375 25.441406 29.757812 25.515625 29.75 C 25.765625 29.734375 26.023438 29.621094 26.285156 29.589844 C 26.898438 29.515625 27.378906 29.503906 27.769531 30.023438 C 28.09375 30.453125 28.242188 31.015625 28.261719 31.550781 C 28.316406 32.9375 27.53125 34.261719 26.464844 35.152344 C 25.398438 36.039062 24.078125 36.5625 22.765625 37 C 19.199219 38.1875 15.539062 38.855469 11.785156 39.007812 C 9.84375 39.085938 7.769531 38.980469 6.179688 37.867188 C 4.089844 36.398438 3.34375 33.625 3.101562 31.207031 C 2.839844 28.574219 2.449219 25.945312 2.277344 23.300781 Z M 2.277344 23.300781 " fill-opacity="1" fill-rule="nonzero"/><g clip-path="url(#dea257285e)"><path fill="#000000" d="M 10.847656 39.699219 C 9.132812 39.699219 7.300781 39.46875 5.800781 38.417969 C 3.910156 37.09375 2.78125 34.691406 2.441406 31.277344 C 2.34375 30.3125 2.226562 29.328125 2.113281 28.375 C 1.921875 26.734375 1.71875 25.035156 1.609375 23.347656 C 1.492188 21.550781 1.441406 19.625 1.875 17.726562 C 2.1875 16.355469 2.726562 15.152344 3.476562 14.152344 C 4.359375 12.972656 5.183594 12.105469 7.042969 12.523438 C 8.195312 12.78125 9.621094 13.796875 9.875 17.167969 C 9.894531 17.417969 9.871094 17.714844 9.839844 18.058594 C 9.808594 18.429688 9.722656 19.417969 9.90625 19.582031 C 9.917969 19.585938 9.929688 19.589844 9.9375 19.589844 C 10.035156 19.484375 10.160156 19.140625 10.222656 18.96875 C 10.265625 18.84375 10.308594 18.726562 10.359375 18.617188 C 10.855469 17.492188 11.546875 16.457031 12.21875 15.460938 L 12.394531 15.195312 C 12.984375 14.316406 13.636719 13.40625 14.601562 12.808594 C 15.570312 12.207031 17.039062 11.949219 18.152344 12.714844 C 19.339844 13.53125 19.578125 15.082031 19.40625 16.265625 C 19.378906 16.429688 19.347656 16.589844 19.304688 16.75 C 19.457031 16.628906 19.617188 16.507812 19.777344 16.390625 C 20.5 15.871094 21.847656 14.90625 23.472656 15.535156 C 24.214844 15.820312 24.765625 16.34375 25.054688 17.050781 C 25.445312 18.007812 25.355469 19.300781 24.804688 20.519531 C 24.777344 20.582031 24.746094 20.644531 24.714844 20.707031 C 25.023438 20.617188 25.371094 20.515625 25.722656 20.488281 C 26.191406 20.453125 26.886719 20.445312 27.550781 20.78125 C 28.480469 21.25 29.121094 22.320312 29.175781 23.507812 C 29.230469 24.636719 28.804688 25.667969 28.476562 26.347656 C 28.191406 26.941406 27.863281 27.507812 27.492188 28.050781 C 27.296875 28.339844 27.082031 28.617188 26.851562 28.878906 C 27.328125 28.890625 27.867188 29.035156 28.304688 29.613281 C 28.679688 30.113281 28.902344 30.789062 28.933594 31.519531 C 28.992188 33 28.230469 34.550781 26.894531 35.664062 C 25.726562 36.640625 24.320312 37.1875 22.976562 37.636719 C 19.351562 38.84375 15.628906 39.523438 11.808594 39.675781 C 11.496094 39.691406 11.171875 39.699219 10.847656 39.699219 Z M 6.167969 13.753906 C 5.550781 13.753906 5.1875 14.101562 4.546875 14.957031 C 3.910156 15.804688 3.449219 16.839844 3.179688 18.027344 C 2.785156 19.757812 2.832031 21.5625 2.945312 23.257812 C 3.050781 24.910156 3.25 26.59375 3.441406 28.21875 C 3.554688 29.175781 3.671875 30.164062 3.769531 31.140625 C 4.070312 34.148438 5.011719 36.226562 6.566406 37.316406 C 8.027344 38.34375 10.011719 38.410156 11.757812 38.339844 C 15.449219 38.191406 19.050781 37.53125 22.558594 36.363281 C 23.777344 35.960938 25.042969 35.46875 26.039062 34.636719 C 27.054688 33.785156 27.636719 32.644531 27.597656 31.578125 C 27.578125 31.121094 27.449219 30.710938 27.238281 30.429688 C 27.09375 30.238281 26.996094 30.183594 26.363281 30.257812 C 26.273438 30.273438 26.183594 30.292969 26.09375 30.320312 C 25.921875 30.371094 25.746094 30.40625 25.566406 30.421875 C 25.210938 30.449219 24.890625 30.28125 24.734375 29.992188 C 24.589844 29.730469 24.601562 29.414062 24.765625 29.121094 C 24.945312 28.796875 25.207031 28.582031 25.417969 28.410156 C 25.734375 28.152344 26.042969 27.796875 26.390625 27.292969 C 26.722656 26.808594 27.015625 26.300781 27.273438 25.769531 C 27.691406 24.898438 27.871094 24.203125 27.839844 23.574219 C 27.808594 22.863281 27.457031 22.238281 26.949219 21.984375 C 26.671875 21.84375 26.3125 21.792969 25.824219 21.832031 C 25.605469 21.847656 25.339844 21.925781 25.082031 22 C 24.96875 22.03125 24.859375 22.0625 24.753906 22.089844 C 24.714844 22.109375 24.664062 22.132812 24.601562 22.164062 C 24.066406 22.425781 23.460938 22.71875 22.976562 22.398438 C 22.714844 22.21875 22.597656 21.972656 22.625 21.65625 C 22.644531 21.28125 22.894531 20.984375 23.117188 20.726562 C 23.160156 20.679688 23.214844 20.613281 23.230469 20.589844 C 23.367188 20.390625 23.488281 20.183594 23.589844 19.964844 C 23.976562 19.105469 24.066406 18.164062 23.816406 17.5625 C 23.667969 17.195312 23.398438 16.945312 22.996094 16.789062 C 22.195312 16.480469 21.496094 16.808594 20.554688 17.484375 C 20.210938 17.734375 19.882812 18.007812 19.535156 18.300781 C 19.445312 18.375 19.355469 18.453125 19.265625 18.527344 L 19.222656 18.5625 C 18.996094 18.753906 18.578125 19.117188 18.074219 18.945312 C 17.9375 18.898438 17.609375 18.742188 17.507812 18.265625 C 17.417969 17.871094 17.589844 17.53125 17.703125 17.304688 C 17.722656 17.265625 17.742188 17.222656 17.757812 17.179688 C 17.898438 16.804688 18.027344 16.4375 18.082031 16.070312 C 18.191406 15.324219 18.078125 14.289062 17.398438 13.824219 C 16.785156 13.398438 15.882812 13.59375 15.308594 13.949219 C 14.570312 14.410156 14.015625 15.1875 13.507812 15.941406 L 13.328125 16.210938 C 12.691406 17.160156 12.03125 18.144531 11.582031 19.160156 C 11.554688 19.226562 11.519531 19.324219 11.480469 19.425781 C 11.308594 19.90625 11.070312 20.5625 10.472656 20.832031 C 10.25 20.933594 9.882812 21.015625 9.414062 20.832031 C 8.296875 20.390625 8.425781 18.917969 8.507812 17.945312 C 8.53125 17.683594 8.554688 17.414062 8.542969 17.273438 C 8.4375 15.863281 8.039062 14.125 6.75 13.832031 C 6.558594 13.785156 6.367188 13.757812 6.167969 13.753906 Z M 24.730469 22.09375 L 24.726562 22.09375 Z M 24.730469 22.09375 " fill-opacity="1" fill-rule="nonzero"/></g><path fill="#facc08" d="M 57.609375 23.300781 C 57.730469 21.488281 57.765625 19.648438 57.359375 17.875 C 57.089844 16.6875 56.609375 15.53125 55.875 14.554688 C 55.027344 13.421875 54.425781 12.851562 52.988281 13.175781 C 51.273438 13.5625 50.796875 15.632812 50.675781 17.214844 C 50.621094 17.957031 51.117188 19.851562 50.226562 20.203125 C 49.355469 20.550781 49.144531 19.40625 48.917969 18.886719 C 48.398438 17.71875 47.644531 16.628906 46.933594 15.566406 C 46.382812 14.738281 45.777344 13.902344 44.929688 13.378906 C 44.085938 12.851562 42.933594 12.703125 42.113281 13.269531 C 41.230469 13.878906 40.988281 15.101562 41.144531 16.167969 C 41.207031 16.597656 41.351562 17.007812 41.503906 17.414062 C 41.578125 17.617188 41.78125 17.890625 41.730469 18.121094 C 41.632812 18.554688 41.222656 18.152344 41.050781 18.007812 C 40.617188 17.644531 40.183594 17.265625 39.722656 16.9375 C 38.796875 16.273438 37.820312 15.710938 36.65625 16.164062 C 34.90625 16.832031 35.078125 18.878906 35.691406 20.242188 C 35.808594 20.496094 35.945312 20.734375 36.105469 20.964844 C 36.222656 21.140625 36.585938 21.480469 36.597656 21.695312 C 36.625 22.171875 35.511719 21.496094 35.328125 21.445312 C 34.941406 21.347656 34.515625 21.1875 34.113281 21.160156 C 33.609375 21.121094 33.097656 21.152344 32.636719 21.382812 C 31.855469 21.773438 31.417969 22.667969 31.378906 23.542969 C 31.339844 24.414062 31.636719 25.269531 32.015625 26.058594 C 32.285156 26.621094 32.597656 27.160156 32.949219 27.671875 C 33.265625 28.136719 33.617188 28.582031 34.046875 28.929688 C 34.230469 29.082031 34.421875 29.238281 34.539062 29.449219 C 34.578125 29.519531 34.605469 29.601562 34.570312 29.667969 C 34.53125 29.734375 34.445312 29.757812 34.367188 29.75 C 34.121094 29.734375 33.859375 29.621094 33.601562 29.589844 C 32.988281 29.515625 32.507812 29.503906 32.117188 30.023438 C 31.792969 30.453125 31.644531 31.015625 31.625 31.550781 C 31.570312 32.9375 32.355469 34.261719 33.421875 35.152344 C 34.488281 36.039062 35.808594 36.5625 37.121094 37 C 40.6875 38.1875 44.347656 38.855469 48.101562 39.007812 C 50.042969 39.085938 52.117188 38.980469 53.707031 37.867188 C 55.796875 36.398438 56.542969 33.625 56.785156 31.207031 C 57.046875 28.574219 57.4375 25.945312 57.609375 23.300781 Z M 57.609375 23.300781 " fill-opacity="1" fill-rule="nonzero"/><g clip-path="url(#9c797729a7)"><path fill="#000000" d="M 49.039062 39.699219 C 48.714844 39.699219 48.390625 39.691406 48.074219 39.679688 C 44.257812 39.527344 40.535156 38.847656 36.90625 37.640625 C 35.5625 37.191406 34.15625 36.644531 32.992188 35.667969 C 31.65625 34.554688 30.894531 33.003906 30.953125 31.523438 C 30.980469 30.796875 31.203125 30.117188 31.582031 29.617188 C 32.019531 29.039062 32.554688 28.894531 33.03125 28.882812 C 32.800781 28.621094 32.589844 28.34375 32.394531 28.054688 C 32.023438 27.511719 31.695312 26.945312 31.410156 26.351562 C 31.082031 25.671875 30.652344 24.640625 30.707031 23.511719 C 30.765625 22.324219 31.402344 21.253906 32.335938 20.785156 C 33 20.449219 33.695312 20.457031 34.160156 20.492188 C 34.515625 20.519531 34.863281 20.617188 35.167969 20.710938 C 35.136719 20.648438 35.105469 20.585938 35.078125 20.523438 C 34.53125 19.304688 34.4375 18.011719 34.832031 17.054688 C 35.121094 16.347656 35.667969 15.824219 36.414062 15.539062 C 38.035156 14.910156 39.382812 15.875 40.109375 16.394531 C 40.269531 16.511719 40.425781 16.632812 40.578125 16.753906 C 40.539062 16.59375 40.503906 16.433594 40.480469 16.269531 C 40.308594 15.085938 40.542969 13.535156 41.730469 12.71875 C 42.847656 11.953125 44.316406 12.210938 45.28125 12.8125 C 46.246094 13.410156 46.902344 14.320312 47.488281 15.199219 L 47.667969 15.464844 C 48.335938 16.460938 49.027344 17.496094 49.527344 18.621094 C 49.574219 18.730469 49.617188 18.847656 49.660156 18.972656 C 49.722656 19.144531 49.847656 19.488281 49.949219 19.59375 C 49.960938 19.59375 49.96875 19.589844 49.980469 19.582031 C 50.164062 19.421875 50.078125 18.433594 50.046875 18.0625 C 50.015625 17.71875 49.988281 17.417969 50.007812 17.167969 C 50.261719 13.800781 51.6875 12.785156 52.839844 12.523438 C 54.699219 12.105469 55.523438 12.976562 56.410156 14.15625 C 57.15625 15.15625 57.695312 16.355469 58.007812 17.730469 C 58.441406 19.628906 58.394531 21.554688 58.277344 23.347656 C 58.164062 25.035156 57.964844 26.734375 57.769531 28.378906 C 57.65625 29.332031 57.542969 30.3125 57.445312 31.277344 C 57.101562 34.695312 55.972656 37.097656 54.085938 38.417969 C 52.585938 39.46875 50.753906 39.699219 49.039062 39.699219 Z M 33.101562 30.226562 C 32.832031 30.226562 32.753906 30.292969 32.648438 30.429688 C 32.4375 30.710938 32.308594 31.121094 32.289062 31.578125 C 32.246094 32.644531 32.832031 33.789062 33.847656 34.636719 C 34.84375 35.46875 36.109375 35.960938 37.328125 36.367188 C 40.835938 37.53125 44.4375 38.191406 48.128906 38.339844 C 49.875 38.410156 51.859375 38.34375 53.320312 37.316406 C 54.875 36.230469 55.816406 34.148438 56.117188 31.140625 C 56.214844 30.164062 56.332031 29.175781 56.445312 28.21875 C 56.636719 26.59375 56.832031 24.910156 56.941406 23.257812 C 57.054688 21.5625 57.101562 19.757812 56.707031 18.027344 C 56.4375 16.839844 55.976562 15.808594 55.339844 14.957031 C 54.523438 13.863281 54.15625 13.601562 53.136719 13.832031 C 51.847656 14.121094 51.449219 15.859375 51.34375 17.269531 C 51.332031 17.410156 51.355469 17.679688 51.378906 17.941406 C 51.464844 18.914062 51.59375 20.386719 50.472656 20.828125 C 50.003906 21.015625 49.640625 20.933594 49.414062 20.828125 C 48.816406 20.558594 48.578125 19.902344 48.40625 19.421875 C 48.371094 19.320312 48.335938 19.226562 48.304688 19.160156 C 47.855469 18.140625 47.195312 17.15625 46.558594 16.207031 L 46.378906 15.941406 C 45.875 15.183594 45.320312 14.40625 44.578125 13.949219 C 44.003906 13.589844 43.105469 13.398438 42.488281 13.820312 C 41.808594 14.289062 41.695312 15.324219 41.804688 16.066406 C 41.859375 16.4375 41.988281 16.804688 42.128906 17.179688 C 42.144531 17.214844 42.164062 17.257812 42.1875 17.300781 C 42.296875 17.527344 42.46875 17.867188 42.382812 18.261719 C 42.277344 18.742188 41.949219 18.898438 41.8125 18.945312 C 41.308594 19.113281 40.890625 18.753906 40.664062 18.558594 L 40.621094 18.523438 C 40.535156 18.449219 40.445312 18.375 40.355469 18.300781 C 40.007812 18.007812 39.679688 17.734375 39.332031 17.484375 C 38.390625 16.808594 37.691406 16.476562 36.898438 16.785156 C 36.488281 16.941406 36.21875 17.195312 36.070312 17.5625 C 35.824219 18.164062 35.914062 19.105469 36.300781 19.964844 C 36.402344 20.183594 36.519531 20.390625 36.660156 20.589844 C 36.675781 20.613281 36.730469 20.675781 36.769531 20.722656 C 36.992188 20.984375 37.246094 21.28125 37.265625 21.65625 C 37.28125 21.964844 37.152344 22.234375 36.910156 22.394531 C 36.429688 22.71875 35.824219 22.421875 35.289062 22.164062 C 35.226562 22.132812 35.171875 22.105469 35.132812 22.089844 C 35.027344 22.0625 34.917969 22.03125 34.808594 21.996094 C 34.546875 21.921875 34.28125 21.84375 34.066406 21.828125 C 33.574219 21.792969 33.214844 21.84375 32.9375 21.980469 C 32.429688 22.238281 32.082031 22.863281 32.046875 23.574219 C 32.019531 24.199219 32.199219 24.898438 32.617188 25.769531 C 32.871094 26.296875 33.167969 26.804688 33.5 27.292969 C 33.847656 27.796875 34.152344 28.152344 34.46875 28.410156 C 34.679688 28.582031 34.941406 28.796875 35.121094 29.121094 C 35.285156 29.414062 35.296875 29.730469 35.15625 29.988281 C 34.996094 30.28125 34.679688 30.445312 34.320312 30.421875 C 34.140625 30.40625 33.964844 30.371094 33.792969 30.316406 C 33.707031 30.292969 33.617188 30.269531 33.523438 30.257812 C 33.382812 30.238281 33.242188 30.226562 33.101562 30.226562 Z M 57.609375 23.300781 Z M 35.15625 22.09375 L 35.160156 22.09375 Z M 35.15625 22.09375 " fill-opacity="1" fill-rule="nonzero"/></g></svg>