<svg xmlns="http://www.w3.org/2000/svg" xmlns:xlink="http://www.w3.org/1999/xlink" width="80" zoomAndPan="magnify" viewBox="0 0 60 60" height="80" preserveAspectRatio="xMidYMid meet" version="1.0"><defs><clipPath id="58e24b6c4a"><path d="M 0 0.601562 L 60 0.601562 L 60 45 L 0 45 Z M 0 0.601562 " clip-rule="nonzero"/></clipPath><clipPath id="ead818c250"><path d="M 11 10 L 48 10 L 48 59.101562 L 11 59.101562 Z M 11 10 " clip-rule="nonzero"/></clipPath></defs><g clip-path="url(#58e24b6c4a)"><path fill="#9e1f63" d="M 37.070312 1.484375 C 37.128906 1.542969 37.167969 1.628906 37.167969 1.714844 C 37.167969 1.796875 37.128906 1.882812 37.070312 1.945312 C 37.007812 2.003906 36.921875 2.039062 36.839844 2.039062 C 36.753906 2.039062 36.667969 2.003906 36.605469 1.945312 C 36.546875 1.882812 36.507812 1.796875 36.507812 1.714844 C 36.507812 1.628906 36.546875 1.542969 36.605469 1.484375 C 36.730469 1.375 36.949219 1.363281 37.070312 1.484375 Z M 35.683594 6.386719 C 35.511719 6.351562 35.328125 6.460938 35.28125 6.628906 C 35.257812 6.714844 35.28125 6.796875 35.316406 6.871094 C 35.367188 6.945312 35.4375 6.992188 35.523438 7.015625 C 35.546875 7.027344 35.574219 7.027344 35.597656 7.027344 C 35.753906 7.027344 35.875 6.933594 35.914062 6.785156 C 35.9375 6.703125 35.914062 6.617188 35.875 6.542969 C 35.839844 6.460938 35.765625 6.410156 35.683594 6.386719 Z M 36.097656 4.726562 C 35.914062 4.691406 35.742188 4.800781 35.707031 4.96875 C 35.683594 5.054688 35.695312 5.140625 35.742188 5.210938 C 35.792969 5.285156 35.863281 5.347656 35.949219 5.359375 C 35.972656 5.359375 36 5.371094 36.023438 5.371094 C 36.179688 5.371094 36.300781 5.273438 36.339844 5.128906 C 36.363281 5.042969 36.339844 4.957031 36.300781 4.886719 C 36.253906 4.800781 36.179688 4.753906 36.097656 4.726562 Z M 36.496094 3.070312 C 36.328125 3.035156 36.144531 3.128906 36.097656 3.3125 C 36.070312 3.398438 36.097656 3.480469 36.132812 3.554688 C 36.179688 3.625 36.253906 3.675781 36.339844 3.699219 C 36.363281 3.710938 36.398438 3.710938 36.414062 3.710938 C 36.570312 3.710938 36.691406 3.613281 36.730469 3.46875 C 36.753906 3.382812 36.742188 3.300781 36.691406 3.226562 C 36.667969 3.140625 36.59375 3.082031 36.496094 3.070312 Z M 35.5 8.238281 C 35.488281 8.214844 35.476562 8.203125 35.464844 8.191406 C 35.449219 8.167969 35.4375 8.15625 35.425781 8.140625 C 35.355469 8.070312 35.230469 8.035156 35.121094 8.058594 C 35.097656 8.058594 35.085938 8.070312 35.0625 8.082031 C 35.039062 8.09375 35.023438 8.09375 35 8.105469 C 34.988281 8.117188 34.964844 8.128906 34.953125 8.140625 C 34.941406 8.15625 34.929688 8.179688 34.914062 8.191406 C 34.902344 8.203125 34.890625 8.226562 34.878906 8.25 C 34.867188 8.277344 34.867188 8.289062 34.867188 8.3125 C 34.867188 8.335938 34.855469 8.347656 34.855469 8.371094 C 34.855469 8.398438 34.855469 8.421875 34.867188 8.433594 C 34.867188 8.457031 34.878906 8.46875 34.890625 8.492188 C 34.902344 8.519531 34.914062 8.542969 34.929688 8.542969 C 34.941406 8.566406 34.953125 8.578125 34.976562 8.589844 C 34.988281 8.601562 35 8.613281 35.023438 8.625 C 35.039062 8.640625 35.0625 8.652344 35.085938 8.652344 C 35.109375 8.664062 35.132812 8.664062 35.148438 8.664062 C 35.171875 8.664062 35.183594 8.675781 35.207031 8.675781 C 35.292969 8.675781 35.378906 8.640625 35.4375 8.578125 C 35.449219 8.566406 35.476562 8.542969 35.476562 8.53125 C 35.488281 8.519531 35.5 8.492188 35.511719 8.46875 C 35.523438 8.445312 35.523438 8.433594 35.523438 8.410156 C 35.523438 8.382812 35.535156 8.371094 35.535156 8.347656 C 35.535156 8.324219 35.535156 8.300781 35.523438 8.289062 C 35.511719 8.277344 35.511719 8.261719 35.5 8.238281 Z M 43.601562 3.855469 C 43.589844 3.832031 43.589844 3.820312 43.566406 3.796875 C 43.554688 3.785156 43.542969 3.773438 43.53125 3.746094 C 43.457031 3.675781 43.335938 3.640625 43.238281 3.664062 C 43.214844 3.664062 43.203125 3.675781 43.175781 3.675781 C 43.152344 3.6875 43.140625 3.6875 43.117188 3.699219 C 43.105469 3.710938 43.078125 3.722656 43.066406 3.734375 C 43.007812 3.796875 42.96875 3.882812 42.96875 3.964844 C 42.96875 3.988281 42.96875 4.003906 42.984375 4.027344 C 42.984375 4.050781 42.996094 4.0625 43.007812 4.085938 C 43.019531 4.109375 43.019531 4.125 43.03125 4.148438 C 43.042969 4.160156 43.054688 4.183594 43.066406 4.195312 C 43.078125 4.207031 43.105469 4.230469 43.117188 4.230469 C 43.128906 4.246094 43.152344 4.257812 43.175781 4.257812 C 43.203125 4.269531 43.214844 4.269531 43.238281 4.28125 C 43.261719 4.28125 43.273438 4.28125 43.300781 4.28125 C 43.382812 4.28125 43.46875 4.246094 43.53125 4.183594 C 43.542969 4.171875 43.554688 4.160156 43.566406 4.136719 C 43.578125 4.125 43.589844 4.097656 43.589844 4.085938 C 43.601562 4.0625 43.601562 4.039062 43.601562 4.027344 C 43.601562 4.003906 43.617188 3.988281 43.617188 3.964844 C 43.617188 3.941406 43.617188 3.917969 43.601562 3.90625 C 43.628906 3.90625 43.617188 3.882812 43.601562 3.855469 Z M 42.652344 5.226562 C 42.496094 5.140625 42.289062 5.210938 42.214844 5.371094 C 42.179688 5.441406 42.167969 5.527344 42.191406 5.613281 C 42.214844 5.695312 42.277344 5.757812 42.363281 5.792969 C 42.410156 5.816406 42.460938 5.832031 42.507812 5.832031 C 42.628906 5.832031 42.75 5.757812 42.800781 5.648438 C 42.835938 5.574219 42.847656 5.492188 42.824219 5.40625 C 42.800781 5.320312 42.738281 5.261719 42.652344 5.226562 Z M 41.863281 6.75 C 41.703125 6.664062 41.5 6.738281 41.425781 6.894531 C 41.390625 6.96875 41.375 7.054688 41.402344 7.136719 C 41.425781 7.222656 41.484375 7.28125 41.570312 7.332031 C 41.621094 7.355469 41.667969 7.367188 41.71875 7.367188 C 41.839844 7.367188 41.960938 7.296875 42.007812 7.199219 C 42.046875 7.125 42.058594 7.039062 42.035156 6.957031 C 41.996094 6.847656 41.9375 6.785156 41.863281 6.75 Z M 41.058594 8.277344 C 40.902344 8.203125 40.695312 8.261719 40.621094 8.421875 C 40.585938 8.492188 40.574219 8.578125 40.597656 8.664062 C 40.621094 8.746094 40.683594 8.808594 40.769531 8.855469 C 40.816406 8.882812 40.867188 8.894531 40.914062 8.894531 C 41.035156 8.894531 41.15625 8.820312 41.207031 8.722656 C 41.242188 8.652344 41.253906 8.566406 41.230469 8.480469 C 41.207031 8.382812 41.144531 8.3125 41.058594 8.277344 Z M 40.425781 9.96875 C 40.414062 9.945312 40.402344 9.933594 40.390625 9.910156 C 40.378906 9.886719 40.367188 9.875 40.355469 9.863281 C 40.234375 9.742188 40.015625 9.742188 39.890625 9.863281 C 39.867188 9.875 39.855469 9.898438 39.855469 9.910156 C 39.84375 9.921875 39.832031 9.945312 39.820312 9.96875 C 39.808594 9.996094 39.808594 10.019531 39.808594 10.03125 C 39.808594 10.054688 39.792969 10.066406 39.792969 10.089844 C 39.792969 10.175781 39.832031 10.261719 39.890625 10.308594 C 39.902344 10.320312 39.929688 10.332031 39.941406 10.347656 C 39.953125 10.359375 39.976562 10.371094 40 10.382812 C 40.027344 10.394531 40.050781 10.394531 40.0625 10.394531 C 40.085938 10.394531 40.097656 10.40625 40.125 10.40625 C 40.207031 10.40625 40.292969 10.371094 40.355469 10.308594 C 40.414062 10.25 40.453125 10.164062 40.453125 10.078125 C 40.453125 10.054688 40.453125 10.03125 40.441406 10.019531 C 40.441406 10.007812 40.425781 9.984375 40.425781 9.96875 Z M 49.238281 7.886719 C 49.261719 7.875 49.273438 7.863281 49.285156 7.851562 C 49.296875 7.839844 49.320312 7.816406 49.320312 7.804688 C 49.335938 7.792969 49.347656 7.765625 49.347656 7.742188 C 49.359375 7.71875 49.359375 7.707031 49.371094 7.683594 C 49.371094 7.660156 49.382812 7.644531 49.382812 7.621094 C 49.382812 7.597656 49.382812 7.585938 49.371094 7.5625 C 49.371094 7.539062 49.359375 7.523438 49.347656 7.5 C 49.335938 7.476562 49.335938 7.464844 49.320312 7.453125 C 49.308594 7.441406 49.296875 7.417969 49.285156 7.402344 C 49.273438 7.390625 49.25 7.378906 49.238281 7.355469 C 49.222656 7.34375 49.199219 7.332031 49.175781 7.332031 C 49.164062 7.320312 49.140625 7.320312 49.113281 7.320312 C 49.066406 7.308594 49.03125 7.308594 48.980469 7.320312 C 48.96875 7.320312 48.945312 7.332031 48.933594 7.332031 C 48.90625 7.34375 48.882812 7.355469 48.871094 7.355469 C 48.859375 7.367188 48.835938 7.378906 48.824219 7.390625 C 48.8125 7.402344 48.796875 7.417969 48.785156 7.441406 C 48.773438 7.453125 48.761719 7.476562 48.761719 7.5 C 48.75 7.523438 48.75 7.539062 48.75 7.5625 C 48.75 7.585938 48.738281 7.597656 48.738281 7.621094 C 48.738281 7.644531 48.738281 7.671875 48.75 7.683594 C 48.75 7.707031 48.761719 7.730469 48.773438 7.742188 C 48.785156 7.765625 48.785156 7.78125 48.8125 7.804688 C 48.824219 7.816406 48.835938 7.839844 48.847656 7.851562 C 48.859375 7.875 48.882812 7.886719 48.894531 7.886719 C 48.90625 7.902344 48.933594 7.914062 48.957031 7.925781 C 48.980469 7.9375 49.003906 7.9375 49.019531 7.9375 C 49.042969 7.9375 49.054688 7.949219 49.078125 7.949219 C 49.101562 7.949219 49.128906 7.949219 49.140625 7.949219 C 49.164062 7.949219 49.175781 7.9375 49.199219 7.9375 C 49.199219 7.914062 49.222656 7.902344 49.238281 7.886719 Z M 45.84375 11.300781 C 45.707031 11.195312 45.5 11.207031 45.378906 11.339844 C 45.320312 11.398438 45.292969 11.484375 45.304688 11.570312 C 45.320312 11.652344 45.355469 11.726562 45.429688 11.785156 C 45.488281 11.835938 45.5625 11.859375 45.636719 11.859375 C 45.734375 11.859375 45.816406 11.824219 45.890625 11.75 C 45.953125 11.691406 45.976562 11.605469 45.964844 11.519531 C 45.953125 11.4375 45.914062 11.351562 45.84375 11.300781 Z M 46.984375 9.996094 C 46.851562 9.886719 46.644531 9.898438 46.523438 10.03125 C 46.460938 10.089844 46.4375 10.175781 46.449219 10.261719 C 46.460938 10.347656 46.5 10.417969 46.570312 10.480469 C 46.632812 10.527344 46.707031 10.550781 46.777344 10.550781 C 46.875 10.550781 46.960938 10.515625 47.035156 10.441406 C 47.09375 10.382812 47.121094 10.296875 47.105469 10.210938 C 47.09375 10.128906 47.058594 10.042969 46.984375 9.996094 Z M 48.164062 9.136719 C 48.226562 9.074219 48.25 8.988281 48.238281 8.90625 C 48.226562 8.820312 48.191406 8.734375 48.117188 8.6875 C 47.984375 8.578125 47.765625 8.589844 47.65625 8.722656 C 47.59375 8.785156 47.570312 8.867188 47.582031 8.953125 C 47.59375 9.039062 47.628906 9.125 47.703125 9.171875 C 47.765625 9.21875 47.835938 9.246094 47.910156 9.246094 C 48.007812 9.246094 48.105469 9.207031 48.164062 9.136719 Z M 44.429688 12.539062 C 44.40625 12.539062 44.394531 12.550781 44.371094 12.550781 C 44.34375 12.5625 44.332031 12.574219 44.308594 12.574219 C 44.296875 12.585938 44.273438 12.597656 44.261719 12.609375 C 44.246094 12.621094 44.222656 12.644531 44.222656 12.660156 C 44.210938 12.671875 44.199219 12.695312 44.1875 12.71875 C 44.175781 12.730469 44.175781 12.753906 44.175781 12.78125 C 44.175781 12.804688 44.164062 12.816406 44.164062 12.839844 C 44.164062 12.863281 44.164062 12.886719 44.175781 12.902344 C 44.175781 12.925781 44.1875 12.9375 44.199219 12.960938 C 44.210938 12.984375 44.222656 12.996094 44.234375 13.007812 C 44.25 13.035156 44.261719 13.046875 44.273438 13.058594 C 44.285156 13.070312 44.308594 13.082031 44.320312 13.09375 C 44.332031 13.105469 44.359375 13.117188 44.382812 13.128906 C 44.40625 13.144531 44.429688 13.144531 44.441406 13.144531 C 44.46875 13.144531 44.480469 13.15625 44.503906 13.15625 C 44.589844 13.15625 44.675781 13.117188 44.734375 13.058594 C 44.796875 12.996094 44.832031 12.914062 44.832031 12.828125 C 44.832031 12.742188 44.796875 12.660156 44.734375 12.597656 C 44.648438 12.550781 44.539062 12.523438 44.429688 12.539062 Z M 53.773438 12.753906 C 53.800781 12.753906 53.824219 12.753906 53.835938 12.753906 C 53.859375 12.753906 53.871094 12.742188 53.898438 12.742188 C 53.921875 12.730469 53.933594 12.71875 53.957031 12.707031 C 53.96875 12.695312 53.996094 12.683594 54.007812 12.671875 C 54.066406 12.609375 54.105469 12.523438 54.105469 12.441406 C 54.105469 12.355469 54.066406 12.269531 54.007812 12.210938 C 53.996094 12.199219 53.96875 12.1875 53.957031 12.175781 C 53.945312 12.160156 53.921875 12.148438 53.898438 12.148438 C 53.871094 12.136719 53.859375 12.136719 53.835938 12.125 C 53.726562 12.101562 53.617188 12.136719 53.542969 12.210938 C 53.53125 12.222656 53.519531 12.234375 53.507812 12.257812 C 53.496094 12.269531 53.484375 12.296875 53.484375 12.320312 C 53.472656 12.34375 53.472656 12.355469 53.457031 12.378906 C 53.457031 12.402344 53.445312 12.417969 53.445312 12.441406 C 53.445312 12.523438 53.484375 12.609375 53.542969 12.671875 C 53.605469 12.730469 53.691406 12.753906 53.773438 12.753906 Z M 52.363281 13.785156 C 52.4375 13.785156 52.496094 13.761719 52.558594 13.722656 C 52.632812 13.675781 52.679688 13.589844 52.691406 13.503906 C 52.703125 13.421875 52.679688 13.335938 52.632812 13.277344 C 52.523438 13.128906 52.316406 13.105469 52.167969 13.214844 C 52.097656 13.265625 52.046875 13.335938 52.035156 13.421875 C 52.023438 13.503906 52.046875 13.589844 52.097656 13.664062 C 52.15625 13.734375 52.253906 13.785156 52.363281 13.785156 Z M 49.503906 15.816406 C 49.503906 15.816406 49.515625 15.816406 49.503906 15.816406 C 49.578125 15.816406 49.648438 15.792969 49.699219 15.757812 C 49.773438 15.710938 49.820312 15.636719 49.832031 15.550781 C 49.84375 15.46875 49.820312 15.382812 49.773438 15.308594 C 49.664062 15.164062 49.457031 15.140625 49.308594 15.25 C 49.238281 15.296875 49.1875 15.371094 49.175781 15.453125 C 49.164062 15.539062 49.1875 15.625 49.238281 15.695312 C 49.308594 15.769531 49.40625 15.816406 49.503906 15.816406 Z M 50.929688 14.800781 C 51 14.800781 51.074219 14.777344 51.121094 14.742188 C 51.195312 14.691406 51.246094 14.621094 51.257812 14.523438 C 51.269531 14.4375 51.246094 14.351562 51.195312 14.28125 C 51.085938 14.136719 50.878906 14.109375 50.734375 14.21875 C 50.660156 14.269531 50.613281 14.339844 50.597656 14.4375 C 50.585938 14.523438 50.613281 14.609375 50.660156 14.679688 C 50.734375 14.753906 50.832031 14.800781 50.929688 14.800781 Z M 48.386719 16.398438 C 48.371094 16.375 48.359375 16.363281 48.347656 16.339844 C 48.335938 16.316406 48.324219 16.300781 48.3125 16.289062 C 48.300781 16.277344 48.277344 16.253906 48.261719 16.253906 C 48.25 16.242188 48.226562 16.230469 48.203125 16.230469 C 48.179688 16.21875 48.164062 16.21875 48.140625 16.207031 C 48.03125 16.179688 47.921875 16.21875 47.847656 16.289062 C 47.835938 16.300781 47.8125 16.328125 47.800781 16.339844 C 47.789062 16.351562 47.777344 16.375 47.777344 16.386719 C 47.765625 16.410156 47.765625 16.421875 47.753906 16.449219 C 47.753906 16.472656 47.738281 16.484375 47.738281 16.507812 C 47.738281 16.53125 47.738281 16.558594 47.753906 16.570312 C 47.753906 16.59375 47.765625 16.605469 47.765625 16.628906 C 47.777344 16.652344 47.789062 16.664062 47.800781 16.679688 C 47.8125 16.691406 47.824219 16.714844 47.835938 16.726562 C 47.898438 16.785156 47.984375 16.824219 48.070312 16.824219 C 48.152344 16.824219 48.238281 16.785156 48.300781 16.726562 C 48.3125 16.714844 48.324219 16.691406 48.347656 16.679688 C 48.359375 16.664062 48.371094 16.640625 48.371094 16.628906 C 48.386719 16.605469 48.386719 16.59375 48.398438 16.570312 C 48.398438 16.542969 48.410156 16.53125 48.410156 16.507812 C 48.410156 16.484375 48.410156 16.460938 48.398438 16.449219 C 48.410156 16.4375 48.398438 16.410156 48.386719 16.398438 Z M 57.21875 18.492188 C 57.242188 18.492188 57.265625 18.492188 57.292969 18.480469 C 57.304688 18.480469 57.328125 18.46875 57.339844 18.46875 C 57.363281 18.457031 57.375 18.445312 57.402344 18.445312 C 57.425781 18.433594 57.4375 18.421875 57.449219 18.410156 C 57.460938 18.398438 57.472656 18.386719 57.484375 18.359375 C 57.5 18.347656 57.511719 18.324219 57.511719 18.300781 C 57.523438 18.277344 57.523438 18.265625 57.523438 18.238281 C 57.523438 18.214844 57.535156 18.203125 57.535156 18.179688 C 57.535156 18.15625 57.535156 18.128906 57.523438 18.117188 C 57.523438 18.09375 57.511719 18.082031 57.5 18.058594 C 57.484375 18.035156 57.484375 18.023438 57.460938 17.996094 C 57.449219 17.984375 57.4375 17.960938 57.425781 17.949219 C 57.414062 17.9375 57.390625 17.925781 57.375 17.914062 C 57.363281 17.902344 57.339844 17.886719 57.316406 17.875 C 57.292969 17.863281 57.265625 17.863281 57.253906 17.863281 C 57.21875 17.851562 57.167969 17.851562 57.132812 17.863281 C 57.109375 17.863281 57.097656 17.875 57.074219 17.875 C 57.046875 17.886719 57.035156 17.902344 57.011719 17.902344 C 56.988281 17.914062 56.976562 17.925781 56.964844 17.9375 C 56.949219 17.949219 56.9375 17.960938 56.925781 17.984375 C 56.914062 17.996094 56.902344 18.023438 56.902344 18.035156 C 56.890625 18.058594 56.890625 18.070312 56.878906 18.09375 C 56.878906 18.117188 56.878906 18.128906 56.878906 18.15625 C 56.878906 18.179688 56.878906 18.191406 56.890625 18.214844 C 56.890625 18.238281 56.902344 18.25 56.914062 18.277344 C 56.925781 18.300781 56.925781 18.3125 56.9375 18.324219 C 56.949219 18.347656 56.964844 18.359375 56.976562 18.371094 C 56.988281 18.386719 57.011719 18.398438 57.023438 18.421875 C 57.035156 18.433594 57.058594 18.445312 57.085938 18.445312 C 57.097656 18.457031 57.121094 18.457031 57.144531 18.457031 C 57.183594 18.492188 57.195312 18.492188 57.21875 18.492188 Z M 53.835938 19.230469 C 53.75 19.269531 53.691406 19.328125 53.652344 19.414062 C 53.617188 19.5 53.628906 19.582031 53.652344 19.65625 C 53.703125 19.777344 53.824219 19.851562 53.957031 19.851562 C 54.007812 19.851562 54.042969 19.835938 54.089844 19.824219 C 54.175781 19.789062 54.238281 19.730469 54.273438 19.644531 C 54.308594 19.558594 54.296875 19.472656 54.273438 19.402344 C 54.1875 19.246094 53.996094 19.171875 53.835938 19.230469 Z M 52.035156 20.335938 C 52.082031 20.457031 52.207031 20.527344 52.339844 20.527344 C 52.386719 20.527344 52.425781 20.515625 52.472656 20.503906 C 52.558594 20.46875 52.621094 20.40625 52.65625 20.320312 C 52.691406 20.25 52.679688 20.152344 52.65625 20.078125 C 52.582031 19.921875 52.386719 19.851562 52.21875 19.910156 C 52.132812 19.945312 52.070312 20.007812 52.035156 20.09375 C 52 20.164062 52 20.261719 52.035156 20.335938 Z M 55.722656 19.148438 C 55.808594 19.109375 55.867188 19.050781 55.90625 18.964844 C 55.941406 18.894531 55.929688 18.796875 55.90625 18.722656 C 55.832031 18.566406 55.636719 18.492188 55.464844 18.554688 C 55.382812 18.589844 55.320312 18.652344 55.285156 18.734375 C 55.246094 18.808594 55.257812 18.90625 55.285156 18.976562 C 55.332031 19.097656 55.453125 19.171875 55.589844 19.171875 C 55.636719 19.171875 55.683594 19.160156 55.722656 19.148438 Z M 50.832031 21.179688 C 50.855469 21.167969 50.878906 21.15625 50.890625 21.15625 C 50.902344 21.144531 50.929688 21.132812 50.941406 21.121094 C 51 21.058594 51.039062 20.976562 51.039062 20.890625 C 51.039062 20.804688 51 20.722656 50.941406 20.660156 C 50.867188 20.589844 50.746094 20.550781 50.648438 20.578125 C 50.625 20.578125 50.613281 20.589844 50.585938 20.589844 C 50.5625 20.601562 50.550781 20.613281 50.527344 20.613281 C 50.503906 20.625 50.488281 20.636719 50.476562 20.648438 C 50.464844 20.660156 50.453125 20.683594 50.441406 20.699219 C 50.429688 20.710938 50.417969 20.734375 50.417969 20.746094 C 50.40625 20.769531 50.40625 20.78125 50.394531 20.804688 C 50.394531 20.832031 50.394531 20.84375 50.394531 20.867188 C 50.394531 20.953125 50.429688 21.035156 50.488281 21.097656 C 50.503906 21.109375 50.527344 21.121094 50.539062 21.132812 C 50.550781 21.144531 50.574219 21.15625 50.597656 21.15625 C 50.613281 21.167969 50.636719 21.167969 50.660156 21.167969 C 50.683594 21.167969 50.695312 21.179688 50.734375 21.179688 C 50.757812 21.179688 50.78125 21.179688 50.804688 21.167969 C 50.792969 21.195312 50.804688 21.179688 50.832031 21.179688 Z M 59.46875 24.703125 C 59.480469 24.691406 59.492188 24.667969 59.507812 24.644531 C 59.507812 24.632812 59.519531 24.609375 59.519531 24.582031 C 59.519531 24.558594 59.519531 24.546875 59.519531 24.523438 C 59.519531 24.4375 59.480469 24.355469 59.421875 24.292969 C 59.347656 24.21875 59.226562 24.183594 59.128906 24.207031 C 59.105469 24.207031 59.082031 24.21875 59.066406 24.21875 C 59.042969 24.234375 59.03125 24.246094 59.007812 24.246094 C 58.984375 24.257812 58.96875 24.269531 58.957031 24.28125 C 58.898438 24.339844 58.859375 24.425781 58.859375 24.511719 C 58.859375 24.59375 58.898438 24.679688 58.957031 24.742188 C 58.96875 24.753906 58.996094 24.765625 59.007812 24.777344 C 59.03125 24.789062 59.042969 24.800781 59.066406 24.8125 C 59.09375 24.824219 59.117188 24.824219 59.128906 24.824219 C 59.152344 24.824219 59.164062 24.835938 59.191406 24.835938 C 59.273438 24.835938 59.359375 24.800781 59.421875 24.742188 C 59.445312 24.730469 59.457031 24.714844 59.46875 24.703125 Z M 55.648438 24.800781 C 55.5625 24.8125 55.480469 24.863281 55.429688 24.933594 C 55.382812 25.007812 55.367188 25.09375 55.382812 25.164062 C 55.40625 25.320312 55.539062 25.429688 55.710938 25.429688 C 55.734375 25.429688 55.746094 25.429688 55.769531 25.429688 C 55.855469 25.417969 55.941406 25.371094 55.988281 25.296875 C 56.039062 25.226562 56.0625 25.140625 56.039062 25.054688 C 55.988281 24.886719 55.820312 24.777344 55.648438 24.800781 Z M 57.71875 24.996094 C 57.765625 24.921875 57.789062 24.835938 57.765625 24.753906 C 57.730469 24.582031 57.558594 24.460938 57.390625 24.5 C 57.304688 24.511719 57.21875 24.558594 57.167969 24.632812 C 57.121094 24.703125 57.097656 24.789062 57.121094 24.875 C 57.144531 25.03125 57.292969 25.140625 57.449219 25.140625 C 57.472656 25.140625 57.484375 25.140625 57.511719 25.140625 C 57.59375 25.117188 57.667969 25.066406 57.71875 24.996094 Z M 54.007812 25.734375 C 54.089844 25.722656 54.175781 25.671875 54.226562 25.601562 C 54.273438 25.527344 54.296875 25.441406 54.273438 25.371094 C 54.238281 25.199219 54.066406 25.078125 53.898438 25.117188 C 53.8125 25.128906 53.726562 25.175781 53.679688 25.25 C 53.628906 25.320312 53.617188 25.40625 53.628906 25.480469 C 53.652344 25.636719 53.789062 25.746094 53.957031 25.746094 C 53.96875 25.734375 53.996094 25.734375 54.007812 25.734375 Z M 52.4375 25.941406 C 52.449219 25.925781 52.460938 25.902344 52.472656 25.890625 C 52.484375 25.878906 52.496094 25.855469 52.496094 25.84375 C 52.507812 25.820312 52.507812 25.792969 52.507812 25.78125 C 52.507812 25.757812 52.523438 25.746094 52.523438 25.722656 C 52.523438 25.699219 52.523438 25.671875 52.507812 25.660156 C 52.507812 25.636719 52.496094 25.613281 52.484375 25.601562 C 52.472656 25.578125 52.472656 25.5625 52.449219 25.539062 C 52.4375 25.527344 52.425781 25.503906 52.414062 25.492188 C 52.289062 25.371094 52.070312 25.371094 51.949219 25.492188 C 51.9375 25.503906 51.925781 25.515625 51.914062 25.539062 C 51.902344 25.550781 51.890625 25.578125 51.890625 25.601562 C 51.878906 25.625 51.878906 25.636719 51.863281 25.660156 C 51.863281 25.683594 51.851562 25.699219 51.851562 25.722656 C 51.851562 25.746094 51.851562 25.757812 51.863281 25.78125 C 51.863281 25.804688 51.878906 25.820312 51.890625 25.84375 C 51.902344 25.867188 51.902344 25.878906 51.914062 25.890625 C 51.925781 25.902344 51.9375 25.925781 51.949219 25.941406 C 52.011719 26 52.097656 26.035156 52.179688 26.035156 C 52.289062 26.023438 52.375 26 52.4375 25.941406 Z M 59.835938 30.914062 C 59.824219 30.902344 59.796875 30.890625 59.785156 30.878906 C 59.773438 30.867188 59.75 30.855469 59.726562 30.855469 C 59.699219 30.84375 59.6875 30.84375 59.664062 30.832031 C 59.554688 30.804688 59.445312 30.84375 59.371094 30.914062 C 59.3125 30.976562 59.273438 31.0625 59.273438 31.144531 C 59.273438 31.167969 59.273438 31.183594 59.273438 31.207031 C 59.273438 31.230469 59.285156 31.242188 59.300781 31.265625 C 59.3125 31.289062 59.324219 31.304688 59.324219 31.316406 C 59.335938 31.328125 59.347656 31.351562 59.359375 31.363281 C 59.421875 31.425781 59.507812 31.460938 59.589844 31.460938 C 59.675781 31.460938 59.761719 31.425781 59.824219 31.363281 C 59.882812 31.304688 59.917969 31.21875 59.917969 31.132812 C 59.933594 31.046875 59.894531 30.976562 59.835938 30.914062 Z M 58.070312 30.832031 C 58.007812 30.769531 57.925781 30.722656 57.839844 30.722656 C 57.753906 30.722656 57.667969 30.746094 57.59375 30.804688 C 57.535156 30.867188 57.5 30.941406 57.484375 31.023438 C 57.484375 31.109375 57.511719 31.195312 57.570312 31.253906 C 57.632812 31.316406 57.707031 31.363281 57.800781 31.363281 C 57.816406 31.363281 57.816406 31.363281 57.828125 31.363281 C 57.996094 31.363281 58.144531 31.230469 58.15625 31.0625 C 58.15625 30.976562 58.132812 30.890625 58.070312 30.832031 Z M 56.074219 30.625 C 55.890625 30.613281 55.734375 30.746094 55.722656 30.925781 C 55.722656 31.011719 55.746094 31.097656 55.796875 31.15625 C 55.855469 31.21875 55.941406 31.265625 56.027344 31.265625 L 56.050781 31.265625 C 56.222656 31.265625 56.367188 31.132812 56.378906 30.964844 C 56.390625 30.78125 56.257812 30.636719 56.074219 30.625 Z M 54.296875 30.527344 C 54.199219 30.515625 54.128906 30.550781 54.054688 30.613281 C 53.996094 30.671875 53.957031 30.746094 53.945312 30.832031 C 53.945312 30.914062 53.96875 30.988281 54.019531 31.0625 C 54.078125 31.121094 54.164062 31.167969 54.25 31.167969 L 54.273438 31.167969 C 54.445312 31.167969 54.589844 31.035156 54.601562 30.867188 C 54.601562 30.78125 54.578125 30.699219 54.515625 30.636719 C 54.46875 30.5625 54.394531 30.527344 54.296875 30.527344 Z M 52.328125 31.011719 C 52.339844 31.023438 52.363281 31.035156 52.386719 31.035156 C 52.414062 31.046875 52.425781 31.046875 52.449219 31.0625 C 52.472656 31.0625 52.484375 31.0625 52.507812 31.0625 C 52.59375 31.0625 52.679688 31.023438 52.742188 30.964844 C 52.753906 30.953125 52.777344 30.925781 52.777344 30.914062 C 52.789062 30.902344 52.800781 30.878906 52.800781 30.855469 C 52.8125 30.832031 52.8125 30.820312 52.824219 30.792969 C 52.824219 30.769531 52.839844 30.757812 52.839844 30.734375 C 52.839844 30.710938 52.839844 30.699219 52.824219 30.671875 C 52.824219 30.648438 52.8125 30.636719 52.800781 30.613281 C 52.789062 30.589844 52.777344 30.578125 52.777344 30.5625 C 52.765625 30.550781 52.753906 30.527344 52.742188 30.515625 C 52.667969 30.441406 52.558594 30.40625 52.449219 30.429688 C 52.425781 30.429688 52.414062 30.441406 52.386719 30.457031 C 52.363281 30.46875 52.351562 30.46875 52.328125 30.480469 C 52.316406 30.492188 52.289062 30.503906 52.277344 30.515625 C 52.265625 30.527344 52.253906 30.550781 52.242188 30.5625 C 52.230469 30.578125 52.21875 30.601562 52.207031 30.625 C 52.195312 30.648438 52.195312 30.671875 52.195312 30.683594 C 52.195312 30.710938 52.179688 30.722656 52.179688 30.746094 C 52.179688 30.769531 52.179688 30.792969 52.195312 30.804688 C 52.195312 30.832031 52.207031 30.84375 52.21875 30.867188 C 52.230469 30.890625 52.230469 30.902344 52.253906 30.925781 C 52.265625 30.941406 52.277344 30.964844 52.289062 30.976562 C 52.289062 30.988281 52.316406 31 52.328125 31.011719 Z M 58.339844 37.34375 C 58.3125 37.34375 58.289062 37.355469 58.277344 37.355469 C 58.253906 37.367188 58.242188 37.367188 58.214844 37.378906 C 58.203125 37.390625 58.179688 37.40625 58.167969 37.417969 C 58.105469 37.476562 58.070312 37.5625 58.070312 37.648438 C 58.070312 37.730469 58.105469 37.816406 58.167969 37.875 C 58.226562 37.9375 58.3125 37.972656 58.398438 37.972656 C 58.484375 37.972656 58.570312 37.9375 58.628906 37.875 C 58.691406 37.816406 58.726562 37.730469 58.726562 37.648438 C 58.726562 37.5625 58.691406 37.476562 58.628906 37.417969 C 58.558594 37.355469 58.449219 37.332031 58.339844 37.34375 Z M 56.792969 36.871094 C 56.621094 36.824219 56.441406 36.921875 56.378906 37.089844 C 56.355469 37.175781 56.367188 37.257812 56.402344 37.332031 C 56.441406 37.40625 56.511719 37.464844 56.597656 37.488281 C 56.621094 37.5 56.660156 37.5 56.695312 37.5 C 56.839844 37.5 56.976562 37.40625 57.011719 37.269531 C 57.035156 37.1875 57.023438 37.101562 56.988281 37.03125 C 56.949219 36.945312 56.878906 36.894531 56.792969 36.871094 Z M 55.101562 36.375 C 54.929688 36.328125 54.75 36.425781 54.6875 36.59375 C 54.664062 36.679688 54.675781 36.761719 54.710938 36.835938 C 54.75 36.910156 54.820312 36.96875 54.90625 36.992188 C 54.941406 37.003906 54.96875 37.003906 55.003906 37.003906 C 55.148438 37.003906 55.273438 36.910156 55.320312 36.773438 C 55.34375 36.691406 55.332031 36.605469 55.296875 36.53125 C 55.246094 36.460938 55.1875 36.398438 55.101562 36.375 Z M 53.398438 35.890625 C 53.226562 35.84375 53.046875 35.941406 52.984375 36.109375 C 52.960938 36.195312 52.972656 36.277344 53.007812 36.351562 C 53.046875 36.425781 53.117188 36.484375 53.203125 36.507812 C 53.226562 36.519531 53.265625 36.519531 53.300781 36.519531 C 53.445312 36.519531 53.566406 36.425781 53.617188 36.289062 C 53.640625 36.207031 53.628906 36.121094 53.59375 36.046875 C 53.554688 35.964844 53.484375 35.914062 53.398438 35.890625 Z M 51.535156 35.394531 C 51.511719 35.394531 51.5 35.40625 51.476562 35.417969 C 51.449219 35.429688 51.4375 35.429688 51.414062 35.441406 C 51.402344 35.457031 51.378906 35.46875 51.367188 35.480469 C 51.355469 35.492188 51.328125 35.515625 51.316406 35.527344 C 51.304688 35.539062 51.292969 35.5625 51.28125 35.589844 C 51.269531 35.601562 51.269531 35.625 51.269531 35.648438 C 51.269531 35.671875 51.257812 35.683594 51.257812 35.710938 C 51.257812 35.792969 51.292969 35.878906 51.355469 35.941406 C 51.414062 36 51.5 36.035156 51.585938 36.035156 C 51.671875 36.035156 51.753906 36 51.816406 35.941406 C 51.878906 35.878906 51.914062 35.792969 51.914062 35.710938 C 51.914062 35.625 51.878906 35.539062 51.816406 35.480469 C 51.753906 35.40625 51.644531 35.371094 51.535156 35.394531 Z M 55.976562 43.628906 C 55.964844 43.601562 55.964844 43.589844 55.953125 43.566406 C 55.941406 43.554688 55.929688 43.53125 55.917969 43.519531 C 55.90625 43.507812 55.890625 43.496094 55.867188 43.480469 C 55.855469 43.46875 55.832031 43.457031 55.808594 43.457031 C 55.78125 43.445312 55.769531 43.445312 55.746094 43.433594 C 55.710938 43.421875 55.660156 43.421875 55.613281 43.433594 C 55.589844 43.433594 55.574219 43.445312 55.550781 43.457031 C 55.527344 43.46875 55.515625 43.480469 55.492188 43.480469 C 55.480469 43.496094 55.453125 43.507812 55.441406 43.519531 C 55.417969 43.53125 55.40625 43.554688 55.40625 43.566406 C 55.394531 43.578125 55.382812 43.601562 55.382812 43.628906 C 55.367188 43.652344 55.367188 43.664062 55.355469 43.6875 C 55.355469 43.710938 55.355469 43.722656 55.355469 43.75 C 55.355469 43.832031 55.394531 43.917969 55.453125 43.980469 C 55.480469 44.003906 55.515625 44.027344 55.5625 44.050781 C 55.601562 44.0625 55.648438 44.074219 55.683594 44.074219 C 55.710938 44.074219 55.722656 44.074219 55.746094 44.074219 C 55.769531 44.074219 55.78125 44.0625 55.808594 44.050781 C 55.832031 44.039062 55.84375 44.027344 55.867188 44.027344 C 55.878906 44.015625 55.90625 44.003906 55.917969 43.992188 C 55.976562 43.929688 56.015625 43.84375 56.015625 43.761719 C 56.015625 43.738281 56.015625 43.722656 56 43.699219 C 55.988281 43.664062 55.988281 43.640625 55.976562 43.628906 Z M 54.296875 42.609375 C 54.140625 42.527344 53.945312 42.574219 53.847656 42.730469 C 53.800781 42.804688 53.789062 42.890625 53.8125 42.972656 C 53.835938 43.058594 53.882812 43.132812 53.96875 43.167969 C 54.019531 43.191406 54.078125 43.214844 54.128906 43.214844 C 54.25 43.214844 54.359375 43.15625 54.40625 43.058594 C 54.457031 42.984375 54.46875 42.902344 54.445312 42.816406 C 54.433594 42.730469 54.382812 42.660156 54.296875 42.609375 Z M 52.765625 41.761719 C 52.605469 41.679688 52.398438 41.726562 52.316406 41.882812 C 52.265625 41.957031 52.253906 42.042969 52.277344 42.125 C 52.304688 42.210938 52.351562 42.285156 52.4375 42.320312 C 52.484375 42.34375 52.546875 42.367188 52.59375 42.367188 C 52.714844 42.367188 52.824219 42.308594 52.886719 42.210938 C 52.9375 42.136719 52.949219 42.054688 52.921875 41.96875 C 52.898438 41.871094 52.839844 41.800781 52.765625 41.761719 Z M 51.230469 40.902344 C 51.074219 40.820312 50.878906 40.867188 50.78125 41.023438 C 50.734375 41.097656 50.722656 41.183594 50.746094 41.265625 C 50.769531 41.351562 50.820312 41.425781 50.902344 41.460938 C 50.953125 41.484375 51.011719 41.496094 51.0625 41.496094 C 51.183594 41.496094 51.292969 41.4375 51.339844 41.339844 C 51.390625 41.265625 51.402344 41.183594 51.378906 41.097656 C 51.367188 41.023438 51.304688 40.953125 51.230469 40.902344 Z M 49.296875 40.105469 C 49.238281 40.164062 49.199219 40.25 49.199219 40.335938 C 49.199219 40.417969 49.238281 40.503906 49.296875 40.566406 C 49.359375 40.625 49.445312 40.660156 49.527344 40.660156 C 49.613281 40.660156 49.699219 40.625 49.761719 40.566406 C 49.820312 40.503906 49.855469 40.417969 49.855469 40.335938 C 49.855469 40.25 49.820312 40.164062 49.761719 40.105469 C 49.636719 39.984375 49.417969 39.984375 49.296875 40.105469 Z M 4.496094 43.480469 C 4.484375 43.46875 4.460938 43.457031 4.4375 43.457031 C 4.410156 43.445312 4.398438 43.445312 4.375 43.433594 C 4.265625 43.410156 4.15625 43.445312 4.082031 43.519531 C 4.023438 43.578125 3.984375 43.664062 3.984375 43.75 C 3.984375 43.832031 4.023438 43.917969 4.082031 43.980469 C 4.09375 43.992188 4.121094 44.003906 4.132812 44.015625 C 4.144531 44.027344 4.167969 44.039062 4.191406 44.039062 C 4.21875 44.050781 4.230469 44.050781 4.253906 44.0625 C 4.277344 44.0625 4.289062 44.0625 4.316406 44.0625 C 4.339844 44.0625 4.363281 44.0625 4.375 44.0625 C 4.398438 44.0625 4.410156 44.050781 4.4375 44.039062 C 4.460938 44.027344 4.472656 44.027344 4.496094 44.015625 C 4.507812 44.003906 4.535156 43.992188 4.546875 43.980469 C 4.605469 43.917969 4.644531 43.832031 4.644531 43.75 C 4.644531 43.664062 4.605469 43.578125 4.546875 43.519531 C 4.535156 43.507812 4.519531 43.496094 4.496094 43.480469 Z M 8.769531 40.902344 C 8.695312 40.953125 8.632812 41.011719 8.609375 41.097656 C 8.585938 41.183594 8.597656 41.265625 8.644531 41.339844 C 8.707031 41.4375 8.816406 41.496094 8.9375 41.496094 C 9 41.496094 9.046875 41.484375 9.097656 41.460938 C 9.167969 41.410156 9.230469 41.351562 9.253906 41.265625 C 9.277344 41.183594 9.265625 41.097656 9.21875 41.023438 C 9.121094 40.867188 8.925781 40.820312 8.769531 40.902344 Z M 7.234375 41.761719 C 7.160156 41.8125 7.101562 41.871094 7.078125 41.957031 C 7.050781 42.042969 7.0625 42.125 7.113281 42.199219 C 7.175781 42.296875 7.285156 42.355469 7.394531 42.355469 C 7.453125 42.355469 7.503906 42.34375 7.550781 42.308594 C 7.625 42.257812 7.683594 42.199219 7.710938 42.113281 C 7.734375 42.03125 7.722656 41.945312 7.671875 41.871094 C 7.585938 41.726562 7.378906 41.679688 7.234375 41.761719 Z M 5.691406 42.609375 C 5.617188 42.660156 5.554688 42.71875 5.53125 42.804688 C 5.507812 42.890625 5.519531 42.972656 5.566406 43.046875 C 5.628906 43.144531 5.738281 43.203125 5.859375 43.203125 C 5.921875 43.203125 5.96875 43.191406 6.03125 43.15625 C 6.101562 43.105469 6.164062 43.046875 6.1875 42.960938 C 6.210938 42.875 6.199219 42.792969 6.152344 42.71875 C 6.054688 42.574219 5.847656 42.527344 5.691406 42.609375 Z M 10.652344 40.066406 C 10.640625 40.054688 10.617188 40.042969 10.59375 40.042969 C 10.570312 40.03125 10.542969 40.03125 10.53125 40.03125 C 10.496094 40.019531 10.445312 40.019531 10.410156 40.03125 C 10.386719 40.03125 10.363281 40.042969 10.351562 40.042969 C 10.324219 40.054688 10.3125 40.066406 10.289062 40.066406 C 10.265625 40.082031 10.253906 40.09375 10.238281 40.105469 C 10.179688 40.164062 10.144531 40.25 10.144531 40.335938 C 10.144531 40.417969 10.179688 40.503906 10.238281 40.566406 C 10.277344 40.601562 10.3125 40.613281 10.351562 40.636719 C 10.386719 40.648438 10.433594 40.660156 10.472656 40.660156 C 10.554688 40.660156 10.640625 40.625 10.703125 40.566406 C 10.761719 40.503906 10.800781 40.417969 10.800781 40.335938 C 10.800781 40.25 10.761719 40.164062 10.703125 40.117188 C 10.691406 40.09375 10.664062 40.082031 10.652344 40.066406 Z M 1.894531 37.539062 C 1.882812 37.527344 1.882812 37.5 1.867188 37.488281 C 1.855469 37.476562 1.84375 37.453125 1.832031 37.441406 C 1.710938 37.320312 1.492188 37.320312 1.371094 37.441406 C 1.308594 37.5 1.273438 37.585938 1.273438 37.671875 C 1.273438 37.695312 1.273438 37.71875 1.285156 37.730469 C 1.285156 37.753906 1.296875 37.769531 1.308594 37.792969 C 1.320312 37.816406 1.320312 37.828125 1.332031 37.851562 L 1.347656 37.863281 C 1.359375 37.875 1.371094 37.890625 1.382812 37.902344 C 1.441406 37.960938 1.527344 37.996094 1.613281 37.996094 C 1.699219 37.996094 1.785156 37.960938 1.84375 37.902344 C 1.855469 37.890625 1.882812 37.863281 1.894531 37.851562 C 1.90625 37.839844 1.917969 37.816406 1.929688 37.792969 C 1.941406 37.769531 1.941406 37.753906 1.953125 37.730469 C 1.953125 37.707031 1.964844 37.695312 1.964844 37.671875 C 1.964844 37.648438 1.964844 37.632812 1.953125 37.609375 C 1.90625 37.585938 1.90625 37.5625 1.894531 37.539062 Z M 3.195312 36.871094 C 3.109375 36.894531 3.035156 36.957031 3 37.03125 C 2.964844 37.101562 2.953125 37.1875 2.976562 37.269531 C 3.011719 37.40625 3.148438 37.5 3.292969 37.5 C 3.328125 37.5 3.367188 37.5 3.390625 37.488281 C 3.476562 37.464844 3.546875 37.40625 3.585938 37.332031 C 3.621094 37.257812 3.632812 37.175781 3.609375 37.089844 C 3.558594 36.910156 3.367188 36.8125 3.195312 36.871094 Z M 4.898438 36.375 C 4.8125 36.398438 4.742188 36.460938 4.703125 36.53125 C 4.667969 36.605469 4.65625 36.691406 4.679688 36.773438 C 4.714844 36.910156 4.851562 37.003906 4.996094 37.003906 C 5.019531 37.003906 5.058594 37.003906 5.09375 36.992188 C 5.179688 36.96875 5.25 36.910156 5.289062 36.835938 C 5.324219 36.761719 5.335938 36.679688 5.3125 36.59375 C 5.25 36.425781 5.070312 36.328125 4.898438 36.375 Z M 6.601562 35.890625 C 6.515625 35.914062 6.445312 35.976562 6.40625 36.046875 C 6.371094 36.121094 6.359375 36.207031 6.382812 36.289062 C 6.417969 36.425781 6.554688 36.519531 6.699219 36.519531 C 6.734375 36.519531 6.761719 36.519531 6.796875 36.507812 C 6.882812 36.484375 6.953125 36.425781 6.992188 36.351562 C 7.027344 36.277344 7.039062 36.195312 7.015625 36.109375 C 6.953125 35.925781 6.773438 35.832031 6.601562 35.890625 Z M 8.71875 35.699219 C 8.71875 35.671875 8.71875 35.660156 8.707031 35.636719 C 8.707031 35.613281 8.695312 35.601562 8.683594 35.578125 C 8.671875 35.550781 8.671875 35.539062 8.660156 35.527344 C 8.644531 35.503906 8.632812 35.492188 8.621094 35.480469 C 8.609375 35.46875 8.597656 35.457031 8.574219 35.441406 C 8.5625 35.429688 8.535156 35.417969 8.511719 35.417969 C 8.488281 35.40625 8.476562 35.40625 8.453125 35.394531 C 8.414062 35.382812 8.367188 35.382812 8.316406 35.394531 C 8.292969 35.394531 8.28125 35.40625 8.257812 35.417969 C 8.234375 35.429688 8.21875 35.429688 8.195312 35.441406 C 8.183594 35.457031 8.160156 35.46875 8.148438 35.480469 C 8.136719 35.492188 8.121094 35.503906 8.109375 35.527344 C 8.097656 35.539062 8.085938 35.5625 8.085938 35.589844 C 8.074219 35.613281 8.074219 35.636719 8.074219 35.648438 C 8.074219 35.671875 8.0625 35.683594 8.0625 35.710938 C 8.0625 35.792969 8.097656 35.878906 8.160156 35.941406 C 8.183594 35.964844 8.21875 35.988281 8.269531 36.011719 C 8.304688 36.023438 8.355469 36.035156 8.390625 36.035156 C 8.4375 36.035156 8.476562 36.023438 8.511719 36.011719 C 8.550781 36 8.585938 35.976562 8.621094 35.941406 C 8.695312 35.867188 8.71875 35.792969 8.71875 35.699219 Z M 0.699219 31.011719 C 0.6875 30.988281 0.6875 30.976562 0.664062 30.953125 C 0.652344 30.941406 0.640625 30.914062 0.628906 30.902344 C 0.617188 30.890625 0.589844 30.878906 0.578125 30.867188 C 0.566406 30.855469 0.542969 30.84375 0.519531 30.84375 C 0.492188 30.832031 0.480469 30.832031 0.457031 30.820312 C 0.421875 30.804688 0.371094 30.804688 0.324219 30.820312 C 0.300781 30.820312 0.289062 30.832031 0.261719 30.832031 C 0.238281 30.84375 0.226562 30.84375 0.203125 30.855469 C 0.175781 30.867188 0.164062 30.878906 0.152344 30.890625 C 0.140625 30.902344 0.128906 30.914062 0.117188 30.941406 C 0.105469 30.953125 0.09375 30.976562 0.09375 30.988281 C 0.0820312 31.011719 0.0820312 31.023438 0.0664062 31.046875 C 0.0664062 31.074219 0.0664062 31.085938 0.0664062 31.109375 C 0.0664062 31.132812 0.0664062 31.144531 0.0820312 31.183594 C 0.0820312 31.207031 0.09375 31.21875 0.105469 31.242188 C 0.117188 31.265625 0.128906 31.277344 0.128906 31.289062 C 0.140625 31.304688 0.152344 31.328125 0.164062 31.339844 C 0.226562 31.398438 0.3125 31.4375 0.398438 31.4375 C 0.421875 31.4375 0.433594 31.4375 0.457031 31.4375 C 0.480469 31.4375 0.492188 31.425781 0.519531 31.410156 C 0.542969 31.398438 0.554688 31.386719 0.578125 31.375 C 0.589844 31.363281 0.617188 31.351562 0.628906 31.339844 C 0.640625 31.328125 0.652344 31.316406 0.664062 31.289062 C 0.675781 31.277344 0.6875 31.253906 0.699219 31.230469 C 0.714844 31.207031 0.714844 31.195312 0.726562 31.167969 C 0.726562 31.144531 0.726562 31.132812 0.726562 31.109375 C 0.726562 31.085938 0.726562 31.074219 0.714844 31.046875 C 0.714844 31.046875 0.714844 31.035156 0.699219 31.011719 Z M 5.738281 31.15625 C 5.921875 31.144531 6.054688 31 6.042969 30.820312 C 6.03125 30.636719 5.871094 30.503906 5.691406 30.515625 C 5.605469 30.515625 5.519531 30.5625 5.457031 30.625 C 5.398438 30.683594 5.375 30.769531 5.375 30.855469 C 5.386719 31.023438 5.53125 31.15625 5.703125 31.15625 Z M 2.148438 30.722656 C 2.0625 30.722656 1.976562 30.769531 1.917969 30.832031 C 1.855469 30.890625 1.832031 30.976562 1.832031 31.0625 C 1.84375 31.230469 1.992188 31.363281 2.160156 31.363281 C 2.171875 31.363281 2.171875 31.363281 2.183594 31.363281 C 2.269531 31.363281 2.355469 31.316406 2.417969 31.253906 C 2.476562 31.195312 2.5 31.109375 2.5 31.023438 C 2.488281 30.84375 2.332031 30.710938 2.148438 30.722656 Z M 4.265625 30.914062 C 4.253906 30.746094 4.09375 30.601562 3.914062 30.613281 C 3.730469 30.625 3.597656 30.769531 3.609375 30.953125 C 3.621094 31.121094 3.765625 31.253906 3.9375 31.253906 L 3.960938 31.253906 C 4.144531 31.242188 4.277344 31.097656 4.265625 30.914062 Z M 7.792969 30.613281 C 7.78125 30.589844 7.769531 30.5625 7.757812 30.5625 C 7.746094 30.550781 7.734375 30.527344 7.722656 30.515625 C 7.601562 30.394531 7.378906 30.394531 7.257812 30.515625 C 7.246094 30.527344 7.222656 30.550781 7.222656 30.5625 C 7.210938 30.578125 7.199219 30.601562 7.1875 30.625 C 7.175781 30.636719 7.175781 30.660156 7.160156 30.683594 C 7.160156 30.710938 7.148438 30.722656 7.148438 30.746094 C 7.148438 30.832031 7.1875 30.914062 7.246094 30.976562 C 7.308594 31.035156 7.394531 31.074219 7.476562 31.074219 C 7.5625 31.074219 7.648438 31.035156 7.710938 30.976562 C 7.769531 30.914062 7.804688 30.832031 7.804688 30.746094 C 7.804688 30.722656 7.804688 30.699219 7.792969 30.683594 C 7.804688 30.660156 7.792969 30.636719 7.792969 30.613281 Z M 0.980469 24.257812 C 0.96875 24.246094 0.945312 24.234375 0.917969 24.21875 C 0.894531 24.207031 0.882812 24.207031 0.859375 24.207031 C 0.75 24.183594 0.640625 24.21875 0.566406 24.292969 C 0.507812 24.355469 0.46875 24.4375 0.46875 24.523438 C 0.46875 24.609375 0.507812 24.691406 0.566406 24.753906 C 0.628906 24.8125 0.714844 24.851562 0.796875 24.851562 C 0.824219 24.851562 0.847656 24.851562 0.859375 24.835938 C 0.882812 24.835938 0.894531 24.824219 0.917969 24.824219 C 0.945312 24.8125 0.957031 24.800781 0.980469 24.800781 C 1.003906 24.789062 1.015625 24.777344 1.03125 24.765625 C 1.089844 24.703125 1.125 24.621094 1.125 24.535156 C 1.125 24.449219 1.089844 24.367188 1.03125 24.316406 C 1.015625 24.28125 0.992188 24.269531 0.980469 24.257812 Z M 2.597656 24.511719 C 2.417969 24.488281 2.246094 24.59375 2.222656 24.765625 C 2.210938 24.851562 2.222656 24.933594 2.269531 25.007812 C 2.320312 25.078125 2.390625 25.128906 2.488281 25.140625 C 2.515625 25.140625 2.527344 25.140625 2.550781 25.140625 C 2.707031 25.140625 2.84375 25.03125 2.878906 24.875 C 2.890625 24.789062 2.878906 24.703125 2.832031 24.632812 C 2.769531 24.570312 2.683594 24.523438 2.597656 24.511719 Z M 6.308594 25.238281 C 6.261719 25.164062 6.1875 25.117188 6.089844 25.105469 C 5.910156 25.078125 5.738281 25.1875 5.714844 25.359375 C 5.703125 25.441406 5.714844 25.527344 5.761719 25.601562 C 5.8125 25.671875 5.882812 25.722656 5.980469 25.734375 C 6.003906 25.734375 6.019531 25.734375 6.042969 25.734375 C 6.199219 25.734375 6.335938 25.625 6.371094 25.46875 C 6.382812 25.382812 6.359375 25.296875 6.308594 25.238281 Z M 4.230469 25.429688 C 4.253906 25.429688 4.265625 25.429688 4.289062 25.429688 C 4.449219 25.429688 4.582031 25.320312 4.617188 25.164062 C 4.632812 25.078125 4.617188 24.996094 4.570312 24.921875 C 4.519531 24.851562 4.449219 24.800781 4.351562 24.789062 C 4.167969 24.765625 4 24.875 3.972656 25.042969 C 3.960938 25.128906 3.972656 25.214844 4.023438 25.285156 C 4.070312 25.371094 4.144531 25.417969 4.230469 25.429688 Z M 8.109375 25.648438 C 8.109375 25.625 8.097656 25.613281 8.085938 25.589844 C 8.074219 25.5625 8.074219 25.550781 8.050781 25.527344 C 8.039062 25.515625 8.027344 25.492188 8.011719 25.480469 C 7.890625 25.359375 7.671875 25.359375 7.550781 25.480469 C 7.539062 25.492188 7.527344 25.503906 7.515625 25.527344 C 7.503906 25.539062 7.492188 25.5625 7.492188 25.589844 C 7.476562 25.613281 7.476562 25.625 7.464844 25.648438 C 7.464844 25.671875 7.453125 25.683594 7.453125 25.710938 C 7.453125 25.792969 7.492188 25.878906 7.550781 25.941406 C 7.613281 26 7.695312 26.035156 7.78125 26.035156 C 7.867188 26.035156 7.953125 26 8.011719 25.941406 C 8.074219 25.878906 8.109375 25.792969 8.109375 25.710938 C 8.121094 25.683594 8.109375 25.660156 8.109375 25.648438 Z M 2.769531 18.492188 C 2.855469 18.492188 2.941406 18.457031 3 18.398438 C 3.0625 18.335938 3.097656 18.25 3.097656 18.167969 C 3.097656 18.082031 3.0625 17.996094 3 17.9375 C 2.925781 17.863281 2.804688 17.828125 2.707031 17.851562 C 2.683594 17.851562 2.671875 17.863281 2.648438 17.863281 C 2.625 17.875 2.609375 17.886719 2.585938 17.886719 C 2.5625 17.902344 2.550781 17.914062 2.539062 17.925781 C 2.476562 17.984375 2.441406 18.070312 2.441406 18.15625 C 2.441406 18.238281 2.476562 18.324219 2.539062 18.386719 C 2.597656 18.457031 2.683594 18.492188 2.769531 18.492188 Z M 4.703125 18.734375 C 4.667969 18.652344 4.605469 18.589844 4.519531 18.554688 C 4.351562 18.480469 4.15625 18.554688 4.082031 18.722656 C 4.046875 18.796875 4.046875 18.894531 4.082031 18.964844 C 4.121094 19.050781 4.179688 19.109375 4.265625 19.148438 C 4.316406 19.160156 4.351562 19.171875 4.398438 19.171875 C 4.535156 19.171875 4.65625 19.097656 4.703125 18.976562 C 4.742188 18.90625 4.742188 18.820312 4.703125 18.734375 Z M 5.894531 19.824219 C 5.933594 19.835938 5.980469 19.851562 6.03125 19.851562 C 6.164062 19.851562 6.285156 19.777344 6.335938 19.65625 C 6.371094 19.582031 6.371094 19.5 6.335938 19.414062 C 6.296875 19.328125 6.238281 19.269531 6.152344 19.230469 C 5.980469 19.160156 5.785156 19.230469 5.714844 19.402344 C 5.675781 19.472656 5.675781 19.558594 5.714844 19.644531 C 5.75 19.730469 5.824219 19.789062 5.894531 19.824219 Z M 7.792969 19.910156 C 7.625 19.835938 7.429688 19.910156 7.355469 20.078125 C 7.320312 20.152344 7.320312 20.238281 7.355469 20.320312 C 7.394531 20.40625 7.453125 20.46875 7.539062 20.503906 C 7.574219 20.515625 7.625 20.527344 7.671875 20.527344 C 7.804688 20.527344 7.929688 20.457031 7.976562 20.335938 C 8.011719 20.25 8.011719 20.164062 7.976562 20.09375 C 7.941406 20.007812 7.867188 19.945312 7.792969 19.910156 Z M 9.59375 20.757812 C 9.582031 20.734375 9.570312 20.722656 9.558594 20.710938 C 9.546875 20.699219 9.535156 20.671875 9.523438 20.660156 C 9.449219 20.589844 9.328125 20.550781 9.230469 20.578125 C 9.207031 20.578125 9.195312 20.589844 9.167969 20.589844 C 9.144531 20.601562 9.132812 20.601562 9.109375 20.613281 C 9.097656 20.625 9.070312 20.636719 9.058594 20.648438 C 9.046875 20.660156 9.035156 20.683594 9.023438 20.699219 C 9.011719 20.710938 9 20.734375 9 20.746094 C 8.988281 20.769531 8.988281 20.78125 8.976562 20.804688 C 8.976562 20.832031 8.960938 20.84375 8.960938 20.867188 C 8.960938 20.953125 9 21.035156 9.058594 21.097656 C 9.070312 21.109375 9.097656 21.121094 9.109375 21.144531 C 9.121094 21.15625 9.144531 21.167969 9.167969 21.167969 C 9.195312 21.179688 9.207031 21.179688 9.230469 21.179688 C 9.253906 21.179688 9.265625 21.195312 9.292969 21.195312 C 9.375 21.195312 9.460938 21.15625 9.523438 21.097656 C 9.582031 21.035156 9.621094 20.953125 9.621094 20.867188 C 9.621094 20.84375 9.621094 20.816406 9.605469 20.804688 C 9.605469 20.804688 9.605469 20.78125 9.59375 20.757812 Z M 6.03125 12.707031 C 6.042969 12.71875 6.066406 12.730469 6.089844 12.730469 C 6.117188 12.742188 6.140625 12.742188 6.152344 12.742188 C 6.175781 12.742188 6.1875 12.753906 6.210938 12.753906 C 6.296875 12.753906 6.382812 12.71875 6.445312 12.660156 C 6.457031 12.644531 6.46875 12.632812 6.480469 12.609375 C 6.492188 12.597656 6.503906 12.574219 6.503906 12.5625 C 6.515625 12.539062 6.515625 12.511719 6.515625 12.5 C 6.515625 12.476562 6.527344 12.464844 6.527344 12.441406 C 6.527344 12.417969 6.527344 12.390625 6.515625 12.378906 C 6.515625 12.355469 6.503906 12.34375 6.492188 12.320312 C 6.480469 12.296875 6.480469 12.28125 6.457031 12.257812 C 6.445312 12.246094 6.433594 12.222656 6.417969 12.210938 C 6.347656 12.136719 6.226562 12.101562 6.117188 12.125 C 6.089844 12.125 6.078125 12.136719 6.054688 12.148438 C 6.03125 12.160156 6.019531 12.160156 5.992188 12.175781 C 5.96875 12.1875 5.957031 12.199219 5.945312 12.210938 C 5.882812 12.269531 5.847656 12.355469 5.847656 12.441406 C 5.847656 12.523438 5.882812 12.609375 5.945312 12.671875 C 5.992188 12.683594 6.003906 12.695312 6.03125 12.707031 Z M 8.863281 14.742188 C 8.925781 14.777344 8.988281 14.800781 9.058594 14.800781 C 9.167969 14.800781 9.265625 14.753906 9.328125 14.667969 C 9.375 14.59375 9.402344 14.523438 9.386719 14.4375 C 9.375 14.351562 9.328125 14.28125 9.253906 14.21875 C 9.109375 14.109375 8.902344 14.148438 8.792969 14.28125 C 8.742188 14.351562 8.71875 14.4375 8.730469 14.523438 C 8.742188 14.609375 8.792969 14.679688 8.863281 14.742188 Z M 7.441406 13.710938 C 7.503906 13.746094 7.5625 13.773438 7.636719 13.773438 C 7.746094 13.773438 7.832031 13.722656 7.902344 13.640625 C 7.953125 13.566406 7.976562 13.480469 7.964844 13.398438 C 7.953125 13.3125 7.902344 13.238281 7.832031 13.191406 C 7.683594 13.082031 7.476562 13.117188 7.367188 13.25 C 7.320312 13.324219 7.296875 13.410156 7.308594 13.480469 C 7.320312 13.589844 7.367188 13.664062 7.441406 13.710938 Z M 10.679688 15.25 C 10.53125 15.140625 10.324219 15.175781 10.214844 15.308594 C 10.167969 15.382812 10.144531 15.46875 10.15625 15.550781 C 10.167969 15.636719 10.214844 15.710938 10.289062 15.757812 C 10.351562 15.792969 10.410156 15.816406 10.484375 15.816406 C 10.59375 15.816406 10.691406 15.769531 10.75 15.683594 C 10.800781 15.613281 10.824219 15.527344 10.8125 15.441406 C 10.800781 15.371094 10.75 15.296875 10.679688 15.25 Z M 12.210938 16.398438 C 12.199219 16.375 12.199219 16.363281 12.1875 16.339844 C 12.175781 16.328125 12.164062 16.300781 12.152344 16.289062 C 12.136719 16.277344 12.125 16.265625 12.101562 16.253906 C 12.089844 16.242188 12.066406 16.230469 12.039062 16.230469 C 12.015625 16.21875 12.003906 16.21875 11.980469 16.207031 C 11.945312 16.195312 11.894531 16.195312 11.847656 16.207031 C 11.820312 16.207031 11.808594 16.21875 11.785156 16.230469 C 11.761719 16.242188 11.75 16.242188 11.738281 16.253906 C 11.722656 16.265625 11.699219 16.277344 11.6875 16.289062 C 11.675781 16.300781 11.664062 16.316406 11.652344 16.339844 C 11.640625 16.351562 11.628906 16.375 11.628906 16.398438 C 11.613281 16.421875 11.613281 16.4375 11.613281 16.460938 C 11.613281 16.484375 11.601562 16.496094 11.601562 16.519531 C 11.601562 16.605469 11.640625 16.691406 11.699219 16.75 C 11.710938 16.761719 11.738281 16.773438 11.75 16.785156 C 11.761719 16.800781 11.785156 16.8125 11.808594 16.824219 C 11.835938 16.835938 11.859375 16.835938 11.871094 16.835938 C 11.894531 16.835938 11.90625 16.847656 11.929688 16.847656 C 11.957031 16.847656 11.980469 16.847656 11.992188 16.847656 C 12.015625 16.847656 12.027344 16.835938 12.054688 16.835938 C 12.078125 16.824219 12.101562 16.8125 12.113281 16.8125 C 12.125 16.800781 12.152344 16.785156 12.164062 16.773438 C 12.222656 16.714844 12.261719 16.628906 12.261719 16.542969 C 12.261719 16.519531 12.261719 16.507812 12.246094 16.484375 C 12.222656 16.4375 12.222656 16.410156 12.210938 16.398438 Z M 10.703125 7.390625 C 10.640625 7.453125 10.605469 7.539062 10.605469 7.621094 C 10.605469 7.707031 10.640625 7.792969 10.703125 7.839844 C 10.714844 7.851562 10.738281 7.863281 10.75 7.875 C 10.761719 7.886719 10.789062 7.902344 10.8125 7.914062 C 10.835938 7.925781 10.847656 7.925781 10.871094 7.925781 C 10.898438 7.925781 10.910156 7.9375 10.933594 7.9375 C 11.019531 7.9375 11.105469 7.902344 11.164062 7.839844 C 11.226562 7.78125 11.261719 7.695312 11.261719 7.609375 C 11.261719 7.523438 11.226562 7.441406 11.164062 7.378906 C 11.042969 7.269531 10.824219 7.269531 10.703125 7.390625 Z M 11.871094 8.6875 C 11.796875 8.746094 11.761719 8.820312 11.75 8.90625 C 11.738281 8.988281 11.773438 9.074219 11.820312 9.136719 C 11.882812 9.207031 11.980469 9.246094 12.078125 9.246094 C 12.152344 9.246094 12.222656 9.21875 12.285156 9.171875 C 12.355469 9.109375 12.394531 9.039062 12.40625 8.953125 C 12.417969 8.867188 12.382812 8.785156 12.332031 8.722656 C 12.210938 8.589844 12.003906 8.566406 11.871094 8.6875 Z M 13.003906 9.996094 C 12.929688 10.054688 12.894531 10.128906 12.878906 10.210938 C 12.867188 10.296875 12.90625 10.382812 12.953125 10.441406 C 13.015625 10.515625 13.113281 10.550781 13.207031 10.550781 C 13.28125 10.550781 13.367188 10.527344 13.414062 10.480469 C 13.488281 10.417969 13.523438 10.347656 13.539062 10.261719 C 13.550781 10.175781 13.511719 10.089844 13.464844 10.03125 C 13.355469 9.898438 13.148438 9.886719 13.003906 9.996094 Z M 14.144531 11.300781 C 14.074219 11.363281 14.035156 11.4375 14.023438 11.519531 C 14.011719 11.605469 14.046875 11.691406 14.097656 11.75 C 14.15625 11.824219 14.253906 11.859375 14.351562 11.859375 C 14.425781 11.859375 14.5 11.835938 14.558594 11.785156 C 14.632812 11.726562 14.667969 11.652344 14.679688 11.570312 C 14.695312 11.484375 14.65625 11.398438 14.609375 11.339844 C 14.5 11.207031 14.292969 11.195312 14.144531 11.300781 Z M 15.800781 12.730469 C 15.789062 12.707031 15.789062 12.695312 15.777344 12.671875 C 15.765625 12.644531 15.75 12.632812 15.738281 12.621094 C 15.726562 12.609375 15.703125 12.597656 15.691406 12.574219 C 15.679688 12.5625 15.65625 12.550781 15.628906 12.550781 C 15.605469 12.539062 15.59375 12.539062 15.570312 12.539062 C 15.460938 12.511719 15.351562 12.550781 15.277344 12.621094 C 15.265625 12.632812 15.253906 12.644531 15.242188 12.671875 C 15.230469 12.683594 15.214844 12.707031 15.214844 12.71875 C 15.203125 12.742188 15.203125 12.753906 15.203125 12.78125 C 15.203125 12.804688 15.191406 12.816406 15.191406 12.839844 C 15.191406 12.925781 15.230469 13.007812 15.289062 13.070312 C 15.351562 13.128906 15.4375 13.167969 15.519531 13.167969 C 15.546875 13.167969 15.570312 13.167969 15.582031 13.167969 C 15.605469 13.167969 15.617188 13.15625 15.640625 13.15625 C 15.667969 13.144531 15.679688 13.128906 15.703125 13.128906 C 15.726562 13.117188 15.738281 13.105469 15.75 13.09375 C 15.8125 13.035156 15.847656 12.949219 15.847656 12.863281 C 15.847656 12.839844 15.847656 12.828125 15.835938 12.804688 C 15.824219 12.765625 15.8125 12.753906 15.800781 12.730469 Z M 16.992188 3.855469 C 16.980469 3.832031 16.980469 3.820312 16.957031 3.796875 C 16.945312 3.785156 16.933594 3.761719 16.921875 3.746094 C 16.90625 3.734375 16.882812 3.722656 16.871094 3.710938 C 16.859375 3.699219 16.835938 3.6875 16.808594 3.6875 C 16.785156 3.675781 16.761719 3.675781 16.75 3.675781 C 16.640625 3.652344 16.53125 3.6875 16.445312 3.761719 C 16.433594 3.773438 16.421875 3.796875 16.410156 3.808594 C 16.398438 3.820312 16.382812 3.84375 16.382812 3.855469 C 16.371094 3.882812 16.371094 3.894531 16.359375 3.917969 C 16.359375 3.941406 16.347656 3.953125 16.347656 3.976562 C 16.347656 4.003906 16.347656 4.015625 16.359375 4.039062 C 16.359375 4.0625 16.371094 4.074219 16.382812 4.097656 C 16.398438 4.125 16.398438 4.136719 16.410156 4.160156 C 16.421875 4.171875 16.433594 4.195312 16.445312 4.207031 C 16.507812 4.269531 16.589844 4.304688 16.675781 4.304688 C 16.761719 4.304688 16.847656 4.269531 16.90625 4.207031 C 16.921875 4.195312 16.933594 4.183594 16.945312 4.160156 C 16.957031 4.148438 16.96875 4.125 16.96875 4.097656 C 16.980469 4.074219 16.980469 4.0625 16.992188 4.039062 C 16.992188 4.015625 16.992188 4.003906 16.992188 3.976562 C 16.992188 3.953125 16.992188 3.941406 16.980469 3.917969 C 17.003906 3.894531 17.003906 3.882812 16.992188 3.855469 Z M 18.136719 6.75 C 18.050781 6.785156 18.003906 6.859375 17.964844 6.933594 C 17.941406 7.015625 17.941406 7.101562 17.992188 7.175781 C 18.050781 7.28125 18.160156 7.34375 18.28125 7.34375 C 18.332031 7.34375 18.378906 7.332031 18.429688 7.308594 C 18.515625 7.269531 18.574219 7.199219 18.597656 7.113281 C 18.625 7.027344 18.625 6.945312 18.574219 6.871094 C 18.5 6.738281 18.296875 6.664062 18.136719 6.75 Z M 18.925781 8.277344 C 18.84375 8.3125 18.792969 8.382812 18.757812 8.46875 C 18.734375 8.554688 18.734375 8.640625 18.78125 8.710938 C 18.84375 8.820312 18.953125 8.882812 19.074219 8.882812 C 19.121094 8.882812 19.171875 8.867188 19.21875 8.84375 C 19.304688 8.808594 19.351562 8.734375 19.390625 8.652344 C 19.414062 8.566406 19.414062 8.480469 19.367188 8.410156 C 19.292969 8.261719 19.097656 8.191406 18.925781 8.277344 Z M 17.332031 5.226562 C 17.25 5.261719 17.199219 5.332031 17.164062 5.417969 C 17.140625 5.503906 17.140625 5.589844 17.1875 5.660156 C 17.25 5.769531 17.359375 5.84375 17.480469 5.84375 C 17.527344 5.84375 17.578125 5.832031 17.625 5.804688 C 17.710938 5.769531 17.757812 5.695312 17.796875 5.625 C 17.820312 5.539062 17.820312 5.453125 17.773438 5.382812 C 17.699219 5.199219 17.503906 5.140625 17.332031 5.226562 Z M 20.179688 9.96875 C 20.167969 9.945312 20.167969 9.933594 20.15625 9.910156 C 20.144531 9.886719 20.121094 9.875 20.121094 9.863281 C 20.109375 9.847656 20.082031 9.824219 20.070312 9.8125 C 20.058594 9.800781 20.035156 9.789062 20.011719 9.789062 C 20 9.777344 19.972656 9.777344 19.949219 9.777344 C 19.839844 9.753906 19.730469 9.789062 19.65625 9.863281 C 19.644531 9.875 19.632812 9.886719 19.621094 9.910156 C 19.609375 9.921875 19.597656 9.945312 19.597656 9.96875 C 19.585938 9.996094 19.585938 10.007812 19.585938 10.03125 C 19.585938 10.054688 19.574219 10.066406 19.574219 10.089844 C 19.574219 10.175781 19.609375 10.261719 19.667969 10.320312 C 19.730469 10.382812 19.816406 10.417969 19.902344 10.417969 C 19.925781 10.417969 19.949219 10.417969 19.960938 10.417969 C 19.984375 10.417969 20 10.40625 20.023438 10.40625 C 20.046875 10.394531 20.058594 10.382812 20.082031 10.371094 C 20.097656 10.359375 20.121094 10.347656 20.132812 10.332031 C 20.191406 10.273438 20.230469 10.1875 20.230469 10.105469 C 20.230469 10.078125 20.230469 10.066406 20.230469 10.042969 C 20.191406 10.007812 20.191406 9.984375 20.179688 9.96875 Z M 23.492188 1.714844 C 23.492188 1.628906 23.453125 1.542969 23.394531 1.496094 C 23.382812 1.484375 23.355469 1.472656 23.34375 1.460938 C 23.332031 1.449219 23.308594 1.433594 23.285156 1.421875 C 23.257812 1.410156 23.246094 1.410156 23.222656 1.410156 C 23.113281 1.386719 23.003906 1.421875 22.929688 1.496094 C 22.871094 1.554688 22.832031 1.640625 22.832031 1.726562 C 22.832031 1.75 22.832031 1.773438 22.84375 1.785156 C 22.84375 1.8125 22.859375 1.824219 22.871094 1.847656 C 22.882812 1.871094 22.894531 1.882812 22.90625 1.90625 C 22.917969 1.933594 22.929688 1.945312 22.941406 1.957031 C 23.003906 2.015625 23.089844 2.054688 23.175781 2.054688 C 23.257812 2.054688 23.34375 2.015625 23.40625 1.957031 C 23.453125 1.882812 23.492188 1.796875 23.492188 1.714844 Z M 23.855469 3.542969 C 23.902344 3.46875 23.917969 3.382812 23.890625 3.300781 C 23.84375 3.128906 23.671875 3.019531 23.492188 3.070312 C 23.40625 3.09375 23.332031 3.140625 23.285156 3.214844 C 23.234375 3.289062 23.222656 3.371094 23.246094 3.457031 C 23.285156 3.601562 23.417969 3.699219 23.5625 3.699219 C 23.585938 3.699219 23.613281 3.699219 23.636719 3.6875 C 23.734375 3.664062 23.808594 3.613281 23.855469 3.542969 Z M 24.671875 6.871094 C 24.71875 6.796875 24.730469 6.714844 24.707031 6.628906 C 24.671875 6.460938 24.488281 6.351562 24.304688 6.386719 C 24.21875 6.410156 24.148438 6.460938 24.097656 6.53125 C 24.050781 6.605469 24.039062 6.691406 24.0625 6.773438 C 24.097656 6.917969 24.234375 7.015625 24.378906 7.015625 C 24.402344 7.015625 24.425781 7.015625 24.453125 7.003906 C 24.550781 6.992188 24.621094 6.945312 24.671875 6.871094 Z M 24.257812 5.199219 C 24.304688 5.128906 24.316406 5.042969 24.292969 4.957031 C 24.246094 4.789062 24.074219 4.679688 23.890625 4.714844 C 23.808594 4.742188 23.734375 4.789062 23.683594 4.863281 C 23.636719 4.933594 23.625 5.019531 23.648438 5.105469 C 23.683594 5.25 23.820312 5.347656 23.964844 5.347656 C 23.988281 5.347656 24.011719 5.347656 24.039062 5.332031 C 24.136719 5.332031 24.207031 5.273438 24.257812 5.199219 Z M 25.097656 8.238281 C 25.085938 8.214844 25.085938 8.203125 25.070312 8.179688 C 25.058594 8.15625 25.046875 8.140625 25.035156 8.128906 C 25.023438 8.117188 25 8.105469 24.988281 8.09375 C 24.976562 8.082031 24.949219 8.070312 24.925781 8.070312 C 24.902344 8.058594 24.890625 8.058594 24.867188 8.046875 C 24.753906 8.019531 24.644531 8.058594 24.574219 8.128906 C 24.5625 8.140625 24.550781 8.15625 24.535156 8.179688 C 24.523438 8.191406 24.511719 8.214844 24.511719 8.238281 C 24.5 8.261719 24.5 8.277344 24.5 8.300781 C 24.5 8.324219 24.488281 8.335938 24.488281 8.359375 C 24.488281 8.445312 24.523438 8.53125 24.585938 8.589844 C 24.644531 8.652344 24.730469 8.6875 24.816406 8.6875 C 24.839844 8.6875 24.867188 8.6875 24.878906 8.6875 C 24.902344 8.6875 24.914062 8.675781 24.9375 8.675781 C 24.960938 8.664062 24.976562 8.664062 25 8.652344 C 25.011719 8.640625 25.035156 8.625 25.046875 8.613281 C 25.109375 8.554688 25.144531 8.46875 25.144531 8.382812 C 25.144531 8.359375 25.144531 8.347656 25.132812 8.324219 C 25.121094 8.277344 25.109375 8.261719 25.097656 8.238281 Z M 30.304688 0.816406 C 30.292969 0.792969 30.292969 0.78125 30.269531 0.757812 C 30.253906 0.746094 30.242188 0.722656 30.230469 0.707031 C 30.15625 0.636719 30.035156 0.601562 29.9375 0.625 C 29.914062 0.625 29.902344 0.636719 29.878906 0.636719 C 29.855469 0.648438 29.84375 0.660156 29.816406 0.660156 C 29.792969 0.671875 29.78125 0.683594 29.769531 0.695312 C 29.757812 0.707031 29.730469 0.734375 29.730469 0.746094 C 29.71875 0.757812 29.707031 0.78125 29.707031 0.804688 C 29.695312 0.828125 29.695312 0.84375 29.683594 0.867188 C 29.683594 0.890625 29.671875 0.902344 29.671875 0.925781 C 29.671875 0.949219 29.671875 0.964844 29.683594 0.988281 C 29.683594 1.011719 29.695312 1.023438 29.707031 1.046875 C 29.71875 1.070312 29.71875 1.085938 29.730469 1.109375 C 29.746094 1.121094 29.757812 1.144531 29.769531 1.15625 C 29.78125 1.167969 29.804688 1.179688 29.816406 1.207031 C 29.828125 1.21875 29.855469 1.230469 29.878906 1.230469 C 29.902344 1.242188 29.925781 1.242188 29.9375 1.242188 C 29.964844 1.242188 29.976562 1.253906 30 1.253906 C 30.085938 1.253906 30.171875 1.21875 30.230469 1.15625 C 30.242188 1.144531 30.253906 1.132812 30.269531 1.109375 C 30.28125 1.085938 30.292969 1.070312 30.292969 1.046875 C 30.304688 1.023438 30.304688 1.011719 30.304688 0.988281 C 30.304688 0.964844 30.316406 0.949219 30.316406 0.925781 C 30.316406 0.902344 30.316406 0.878906 30.304688 0.867188 C 30.316406 0.867188 30.304688 0.84375 30.304688 0.816406 Z M 30 5.746094 C 29.816406 5.746094 29.671875 5.890625 29.671875 6.058594 C 29.671875 6.242188 29.816406 6.375 30 6.375 C 30.183594 6.375 30.328125 6.230469 30.328125 6.058594 C 30.328125 5.890625 30.183594 5.746094 30 5.746094 Z M 30 2.332031 C 29.816406 2.332031 29.671875 2.476562 29.671875 2.644531 C 29.671875 2.816406 29.816406 2.960938 30 2.960938 C 30.183594 2.960938 30.328125 2.816406 30.328125 2.644531 C 30.328125 2.476562 30.183594 2.332031 30 2.332031 Z M 30 4.039062 C 29.816406 4.039062 29.671875 4.183594 29.671875 4.351562 C 29.671875 4.523438 29.816406 4.667969 30 4.667969 C 30.183594 4.667969 30.328125 4.523438 30.328125 4.351562 C 30.328125 4.183594 30.183594 4.039062 30 4.039062 Z M 30.304688 7.660156 C 30.292969 7.632812 30.28125 7.621094 30.269531 7.597656 C 30.253906 7.585938 30.242188 7.5625 30.230469 7.550781 C 30.15625 7.476562 30.035156 7.441406 29.925781 7.464844 C 29.902344 7.464844 29.890625 7.476562 29.867188 7.488281 C 29.84375 7.5 29.828125 7.5 29.804688 7.511719 C 29.792969 7.523438 29.769531 7.539062 29.757812 7.550781 C 29.746094 7.5625 29.71875 7.585938 29.71875 7.597656 C 29.707031 7.609375 29.695312 7.632812 29.683594 7.660156 C 29.671875 7.683594 29.671875 7.695312 29.660156 7.71875 C 29.660156 7.742188 29.648438 7.753906 29.648438 7.78125 C 29.648438 7.804688 29.648438 7.816406 29.660156 7.839844 C 29.660156 7.863281 29.671875 7.875 29.683594 7.902344 C 29.695312 7.925781 29.695312 7.9375 29.71875 7.960938 C 29.730469 7.972656 29.746094 7.996094 29.757812 8.007812 C 29.769531 8.019531 29.792969 8.046875 29.804688 8.046875 C 29.816406 8.058594 29.84375 8.070312 29.867188 8.070312 C 29.890625 8.082031 29.902344 8.082031 29.925781 8.09375 C 29.953125 8.09375 29.964844 8.09375 29.988281 8.09375 C 30.074219 8.09375 30.15625 8.058594 30.21875 7.996094 C 30.230469 7.984375 30.242188 7.972656 30.253906 7.960938 L 30.269531 7.949219 C 30.28125 7.9375 30.292969 7.914062 30.292969 7.886719 C 30.304688 7.863281 30.304688 7.851562 30.304688 7.828125 C 30.304688 7.804688 30.316406 7.792969 30.316406 7.765625 C 30.316406 7.742188 30.316406 7.71875 30.304688 7.707031 C 30.316406 7.695312 30.316406 7.683594 30.304688 7.660156 Z M 30.304688 7.660156 " fill-opacity="1" fill-rule="nonzero"/></g><path fill="#f25555" d="M 46.828125 44.101562 C 46.828125 52.246094 38.882812 58.859375 29.085938 58.859375 C 19.644531 58.859375 11.929688 52.730469 11.382812 44.996094 C 11.359375 44.824219 11.347656 26.277344 11.347656 26.277344 C 11.347656 23.976562 13.222656 22.125 15.519531 22.125 C 16.261719 22.125 16.957031 22.320312 17.566406 22.660156 L 17.566406 17.378906 C 17.566406 15.078125 19.4375 13.226562 21.738281 13.226562 C 24.050781 13.226562 25.910156 15.09375 25.910156 17.378906 L 25.910156 14.511719 C 25.910156 12.210938 27.785156 10.359375 30.085938 10.359375 C 32.398438 10.359375 34.257812 12.222656 34.257812 14.511719 L 34.257812 16.542969 C 34.648438 14.65625 36.339844 13.238281 38.347656 13.238281 C 40.660156 13.238281 42.519531 15.105469 42.519531 17.390625 L 42.519531 34.292969 C 42.519531 34.355469 42.519531 34.425781 42.519531 34.488281 C 45.210938 37.054688 46.828125 40.417969 46.828125 44.101562 Z M 46.828125 44.101562 " fill-opacity="1" fill-rule="nonzero"/><g clip-path="url(#ead818c250)"><path fill="#231f20" d="M 29.085938 59.101562 C 19.585938 59.101562 11.699219 52.914062 11.140625 45.007812 C 11.117188 44.5 11.105469 30.578125 11.105469 26.265625 C 11.105469 23.84375 13.085938 21.871094 15.519531 21.871094 C 16.140625 21.871094 16.761719 22.003906 17.320312 22.257812 L 17.320312 17.367188 C 17.320312 14.945312 19.304688 12.972656 21.738281 12.972656 C 23.453125 12.972656 24.9375 13.941406 25.667969 15.371094 L 25.667969 14.511719 C 25.667969 12.089844 27.652344 10.117188 30.085938 10.117188 C 32.519531 10.117188 34.5 12.089844 34.5 14.511719 L 34.5 15.226562 C 35.269531 13.882812 36.730469 12.996094 38.347656 12.996094 C 40.78125 12.996094 42.761719 14.972656 42.761719 17.390625 L 42.761719 34.292969 C 42.761719 34.328125 42.761719 34.355469 42.761719 34.390625 C 45.527344 37.101562 47.058594 40.550781 47.058594 44.113281 C 47.070312 52.367188 39.003906 59.101562 29.085938 59.101562 Z M 15.519531 22.355469 C 13.355469 22.355469 11.589844 24.113281 11.589844 26.265625 C 11.589844 32.597656 11.601562 44.65625 11.628906 44.972656 C 12.175781 52.621094 19.851562 58.605469 29.085938 58.605469 C 38.734375 58.605469 46.585938 52.089844 46.585938 44.085938 C 46.585938 40.625 45.085938 37.257812 42.363281 34.632812 L 42.289062 34.558594 L 42.289062 34.449219 C 42.289062 34.390625 42.289062 34.328125 42.289062 34.269531 L 42.289062 17.378906 C 42.289062 15.226562 40.523438 13.46875 38.359375 13.46875 C 36.496094 13.46875 34.878906 14.777344 34.5 16.582031 L 34.015625 18.894531 L 34.015625 14.5 C 34.015625 12.34375 32.25 10.589844 30.085938 10.589844 C 27.917969 10.589844 26.15625 12.34375 26.15625 14.5 L 26.15625 17.367188 L 25.667969 17.367188 C 25.667969 15.214844 23.902344 13.457031 21.738281 13.457031 C 19.574219 13.457031 17.808594 15.214844 17.808594 17.367188 L 17.808594 23.058594 L 17.441406 22.851562 C 16.859375 22.539062 16.191406 22.355469 15.519531 22.355469 Z M 15.519531 22.355469 " fill-opacity="1" fill-rule="nonzero"/></g><path fill="#f25555" d="M 28.84375 51.230469 C 29.085938 40.757812 39.574219 40.140625 39.574219 40.140625 C 39.285156 26.824219 50.136719 27.660156 48.773438 39.113281 C 47.410156 50.566406 41.316406 54.789062 41.316406 54.789062 " fill-opacity="1" fill-rule="nonzero"/><path fill="#231f20" d="M 25.925781 33.628906 C 25.789062 33.628906 25.679688 33.519531 25.679688 33.386719 L 25.679688 17.015625 C 25.679688 16.882812 25.789062 16.773438 25.925781 16.773438 C 26.058594 16.773438 26.167969 16.882812 26.167969 17.015625 L 26.167969 33.375 C 26.167969 33.519531 26.058594 33.628906 25.925781 33.628906 Z M 34.5 33.386719 L 34.5 16.242188 C 34.5 16.109375 34.390625 16 34.257812 16 C 34.125 16 34.015625 16.109375 34.015625 16.242188 L 34.015625 33.386719 C 34.015625 33.519531 34.125 33.628906 34.257812 33.628906 C 34.390625 33.628906 34.5 33.519531 34.5 33.386719 Z M 19.097656 36.507812 L 19.097656 25.855469 C 19.097656 24.488281 18.707031 23.433594 17.929688 22.753906 C 16.761719 21.714844 15.15625 21.894531 15.09375 21.894531 C 14.960938 21.90625 14.863281 22.027344 14.875 22.164062 C 14.886719 22.296875 15.007812 22.390625 15.144531 22.378906 C 15.15625 22.378906 16.605469 22.222656 17.601562 23.117188 C 18.269531 23.710938 18.597656 24.632812 18.597656 25.855469 L 18.597656 36.507812 C 18.597656 36.640625 18.707031 36.75 18.84375 36.75 C 18.976562 36.75 19.097656 36.640625 19.097656 36.507812 Z M 19.097656 36.507812 " fill-opacity="1" fill-rule="nonzero"/><path fill="#231f20" d="M 46.546875 30.710938 C 45.429688 29.957031 44.113281 29.898438 42.921875 30.539062 C 40.609375 31.785156 39.273438 35.285156 39.332031 39.921875 C 38.625 39.996094 36.4375 40.308594 34.1875 41.546875 C 31.714844 42.914062 28.734375 45.699219 28.601562 51.21875 C 28.601562 51.351562 28.699219 51.460938 28.84375 51.460938 C 28.976562 51.460938 29.085938 51.363281 29.085938 51.21875 C 29.183594 46.980469 30.972656 43.859375 34.40625 41.96875 C 36.972656 40.539062 39.5625 40.371094 39.589844 40.371094 C 39.722656 40.359375 39.820312 40.25 39.820312 40.128906 C 39.722656 35.5625 40.960938 32.136719 43.152344 30.953125 C 43.933594 30.527344 44.746094 30.457031 45.511719 30.710938 C 45.160156 31.90625 43.640625 37.621094 45.585938 39.679688 C 46.0625 40.175781 46.679688 40.429688 47.460938 40.429688 C 47.738281 40.429688 48.042969 40.394531 48.359375 40.335938 C 47.546875 45.492188 45.757812 48.992188 44.34375 51.074219 C 42.691406 53.507812 41.183594 54.570312 41.167969 54.570312 C 41.058594 54.644531 41.035156 54.800781 41.109375 54.910156 C 41.15625 54.984375 41.230469 55.019531 41.304688 55.019531 C 41.351562 55.019531 41.402344 55.007812 41.4375 54.972656 C 41.5 54.921875 43.019531 53.859375 44.722656 51.363281 C 46.28125 49.074219 48.300781 45.09375 49.003906 39.125 C 49.480469 35.214844 48.554688 32.066406 46.546875 30.710938 Z M 45.9375 39.367188 C 44.246094 37.5625 45.574219 32.308594 45.953125 30.964844 C 49.515625 33.507812 48.480469 38.917969 48.277344 39.863281 C 47.242188 40.082031 46.449219 39.910156 45.9375 39.367188 Z M 45.9375 39.367188 " fill-opacity="1" fill-rule="nonzero"/></svg>