<svg xmlns="http://www.w3.org/2000/svg" xmlns:xlink="http://www.w3.org/1999/xlink" width="80" zoomAndPan="magnify" viewBox="0 0 60 60" height="80" preserveAspectRatio="xMidYMid meet" version="1.0"><defs><clipPath id="cadd6417e7"><path d="M 0.535156 0.804688 L 59.339844 0.804688 L 59.339844 54 L 0.535156 54 Z M 0.535156 0.804688 " clip-rule="nonzero"/></clipPath><clipPath id="d692ebb16a"><path d="M 58.480469 12.046875 C 56.628906 5.761719 50.652344 0.804688 43.585938 0.804688 C 37.65625 0.804688 32.5 4.152344 29.894531 9.066406 C 27.292969 4.152344 22.136719 0.804688 16.207031 0.804688 C 8.816406 0.804688 2.351562 5.761719 1.082031 12.953125 C -2.136719 31.1875 18.261719 45.464844 29.941406 54 C 40.742188 46.109375 63.769531 30.015625 58.480469 12.046875 Z M 58.480469 12.046875 " clip-rule="nonzero"/></clipPath><clipPath id="3743dc64b7"><path d="M 0.71875 0.804688 L 59.339844 0.804688 L 59.339844 54 L 0.71875 54 Z M 0.71875 0.804688 " clip-rule="nonzero"/></clipPath><clipPath id="6c61936f5e"><path d="M 58.480469 12.046875 C 56.628906 5.761719 50.652344 0.804688 43.585938 0.804688 C 37.65625 0.804688 32.5 4.152344 29.894531 9.066406 C 27.292969 4.152344 22.136719 0.804688 16.207031 0.804688 C 8.816406 0.804688 2.351562 5.761719 1.082031 12.953125 C -2.136719 31.1875 18.261719 45.464844 29.941406 54 C 40.742188 46.109375 63.769531 30.015625 58.480469 12.046875 Z M 58.480469 12.046875 " clip-rule="nonzero"/></clipPath><clipPath id="a1bf2be89f"><rect x="0" width="60" y="0" height="54"/></clipPath></defs><g clip-path="url(#cadd6417e7)"><g clip-path="url(#d692ebb16a)"><g transform="matrix(1, 0, 0, 1, 0, -0.000000000000001443)"><g clip-path="url(#a1bf2be89f)"><g clip-path="url(#3743dc64b7)"><g clip-path="url(#6c61936f5e)"><path fill="#e3109b" d="M 0.742188 0.804688 L 59.339844 0.804688 L 59.339844 54 L 0.742188 54 Z M 0.742188 0.804688 " fill-opacity="1" fill-rule="nonzero"/></g></g></g></g></g></g></svg>