<svg xmlns="http://www.w3.org/2000/svg" xmlns:xlink="http://www.w3.org/1999/xlink" width="80" zoomAndPan="magnify" viewBox="0 0 60 60" height="80" preserveAspectRatio="xMidYMid meet" version="1.0"><defs><clipPath id="970ebfd768"><path d="M 4 12.007812 L 22 12.007812 L 22 37 L 4 37 Z M 4 12.007812 " clip-rule="nonzero"/></clipPath><clipPath id="665d3a9471"><path d="M 4 12.007812 L 60 12.007812 L 60 41 L 4 41 Z M 4 12.007812 " clip-rule="nonzero"/></clipPath></defs><path fill="#449dd7" d="M 44.449219 40.484375 C 44.714844 40.585938 45.011719 40.636719 45.3125 40.636719 C 46.664062 40.636719 47.757812 39.542969 47.757812 38.191406 C 47.757812 37.214844 47.191406 36.375 46.363281 35.980469 C 45.527344 36.382812 44.804688 37.269531 44.492188 38.414062 C 44.292969 39.144531 44.292969 39.863281 44.449219 40.484375 Z M 44.449219 40.484375 " fill-opacity="1" fill-rule="nonzero"/><path fill="#449dd7" d="M 27.929688 44.859375 C 28.195312 44.960938 28.492188 45.011719 28.796875 45.011719 C 30.148438 45.011719 31.242188 43.917969 31.242188 42.566406 C 31.242188 41.589844 30.671875 40.75 29.84375 40.355469 C 29.007812 40.757812 28.285156 41.644531 27.976562 42.789062 C 27.777344 43.511719 27.777344 44.230469 27.929688 44.859375 Z M 27.929688 44.859375 " fill-opacity="1" fill-rule="nonzero"/><path fill="#7d7d7d" d="M 27.929688 44.859375 C 28.160156 45.796875 28.75 46.519531 29.578125 46.75 C 29.890625 46.832031 30.214844 46.839844 30.523438 46.78125 C 31.589844 46.566406 32.585938 45.550781 32.964844 44.15625 C 33.214844 43.21875 33.148438 42.292969 32.832031 41.570312 C 32.535156 40.890625 32.023438 40.386719 31.359375 40.210938 C 30.851562 40.070312 30.324219 40.144531 29.84375 40.378906 C 30.671875 40.769531 31.242188 41.613281 31.242188 42.589844 C 31.242188 43.941406 30.148438 45.035156 28.796875 45.035156 C 28.492188 45.011719 28.195312 44.960938 27.929688 44.859375 Z M 27.929688 44.859375 " fill-opacity="1" fill-rule="nonzero"/><path fill="#449dd7" d="M 40.695312 40.933594 C 45.765625 43.609375 47.003906 42.433594 47.042969 42.402344 C 46.730469 42.464844 46.40625 42.464844 46.097656 42.375 C 45.269531 42.152344 44.675781 41.421875 44.449219 40.484375 C 44.292969 39.863281 44.292969 39.144531 44.492188 38.421875 C 44.804688 37.273438 45.527344 36.386719 46.363281 35.988281 C 46.851562 35.753906 47.375 35.6875 47.878906 35.820312 C 48.542969 35.996094 49.050781 36.507812 49.347656 37.179688 C 48.578125 33.3125 39.335938 31.679688 39.335938 31.679688 C 39.335938 31.679688 37.101562 32.308594 35.574219 34.644531 C 34.042969 36.980469 35.550781 38.214844 40.695312 40.933594 Z M 40.695312 40.933594 " fill-opacity="1" fill-rule="nonzero"/><path fill="#449dd7" d="M 14.96875 28.289062 C 14.496094 28.414062 14.035156 28.015625 14.082031 27.527344 C 14.167969 26.550781 14.65625 24.542969 17.039062 23.054688 C 20.289062 21.03125 22.519531 20.21875 22.5 21.820312 C 22.484375 23.152344 17.191406 27.710938 14.96875 28.289062 Z M 14.96875 28.289062 " fill-opacity="1" fill-rule="nonzero"/><path fill="#3c2415" d="M 13.96875 28.5625 C 13.652344 28.296875 13.488281 27.890625 13.527344 27.476562 C 13.628906 26.328125 14.183594 24.171875 16.742188 22.582031 C 20.628906 20.167969 21.828125 20.246094 22.441406 20.59375 C 22.726562 20.757812 23.066406 21.105469 23.058594 21.828125 C 23.046875 22.921875 21.09375 24.761719 19.925781 25.761719 C 18.464844 27.015625 16.429688 28.488281 15.109375 28.828125 C 15.003906 28.859375 14.902344 28.863281 14.796875 28.863281 C 14.496094 28.863281 14.199219 28.761719 13.96875 28.5625 Z M 14.828125 27.75 C 15.742188 27.511719 17.488281 26.382812 19.171875 24.941406 C 21.234375 23.175781 21.929688 22.074219 21.945312 21.816406 C 21.945312 21.679688 21.921875 21.585938 21.894531 21.5625 C 21.820312 21.519531 21.050781 21.214844 17.332031 23.527344 C 15.191406 24.867188 14.722656 26.640625 14.636719 27.570312 C 14.628906 27.644531 14.664062 27.691406 14.695312 27.710938 C 14.714844 27.734375 14.769531 27.765625 14.828125 27.75 Z M 14.828125 27.75 " fill-opacity="1" fill-rule="nonzero"/><path fill="#3c2415" d="M 45.949219 42.914062 C 44.957031 42.648438 44.195312 41.789062 43.910156 40.625 C 43.855469 40.421875 43.921875 40.210938 44.078125 40.070312 C 44.234375 39.929688 44.457031 39.890625 44.648438 39.964844 C 44.863281 40.046875 45.082031 40.082031 45.320312 40.082031 C 46.363281 40.082031 47.203125 39.234375 47.203125 38.199219 C 47.203125 37.476562 46.785156 36.800781 46.125 36.492188 C 45.933594 36.402344 45.808594 36.203125 45.808594 35.988281 C 45.808594 35.773438 45.933594 35.574219 46.125 35.488281 C 46.753906 35.183594 47.410156 35.117188 48.03125 35.289062 C 48.839844 35.507812 49.488281 36.101562 49.867188 36.964844 C 49.867188 36.972656 49.867188 36.972656 49.871094 36.980469 C 50.25 37.851562 50.308594 38.902344 50.027344 39.929688 C 49.597656 41.496094 48.492188 42.671875 47.191406 42.949219 C 47.183594 42.949219 47.167969 42.957031 47.160156 42.957031 C 46.984375 42.996094 46.804688 43.011719 46.628906 43.011719 C 46.390625 43.003906 46.171875 42.972656 45.949219 42.914062 Z M 46.929688 41.855469 C 47.816406 41.679688 48.632812 40.785156 48.941406 39.632812 C 49.148438 38.855469 49.113281 38.050781 48.839844 37.414062 C 48.839844 37.410156 48.832031 37.410156 48.832031 37.402344 C 48.59375 36.863281 48.203125 36.492188 47.730469 36.367188 C 47.707031 36.359375 47.691406 36.359375 47.671875 36.351562 C 48.078125 36.867188 48.3125 37.519531 48.3125 38.207031 C 48.3125 39.847656 46.996094 41.175781 45.363281 41.207031 C 45.59375 41.523438 45.898438 41.746094 46.246094 41.84375 C 46.457031 41.902344 46.679688 41.910156 46.910156 41.863281 C 46.917969 41.855469 46.925781 41.855469 46.929688 41.855469 Z M 46.929688 41.855469 " fill-opacity="1" fill-rule="nonzero"/><path fill="#3c2415" d="M 40.433594 41.429688 C 36.734375 39.46875 34.90625 38.28125 34.523438 36.789062 C 34.332031 36.027344 34.515625 35.25 35.105469 34.347656 C 36.734375 31.871094 39.082031 31.183594 39.1875 31.15625 C 39.269531 31.132812 39.347656 31.125 39.4375 31.140625 C 39.535156 31.15625 41.824219 31.570312 44.25 32.464844 C 47.632812 33.71875 49.539062 35.273438 49.894531 37.074219 C 49.953125 37.355469 49.785156 37.628906 49.519531 37.71875 C 49.246094 37.808594 48.957031 37.667969 48.839844 37.410156 C 48.601562 36.863281 48.210938 36.492188 47.730469 36.359375 C 47.375 36.261719 46.984375 36.308594 46.597656 36.492188 C 45.875 36.839844 45.285156 37.613281 45.023438 38.570312 C 44.863281 39.183594 44.847656 39.796875 44.980469 40.351562 C 45.171875 41.132812 45.628906 41.671875 46.238281 41.835938 C 46.457031 41.894531 46.6875 41.902344 46.925781 41.855469 C 47.167969 41.804688 47.410156 41.921875 47.523438 42.136719 C 47.640625 42.351562 47.597656 42.617188 47.425781 42.796875 C 47.300781 42.914062 46.886719 43.238281 45.910156 43.238281 C 44.863281 43.238281 43.148438 42.863281 40.433594 41.429688 Z M 39.378906 32.257812 C 38.933594 32.414062 37.25 33.105469 36.046875 34.945312 C 35.507812 35.769531 35.535156 36.226562 35.609375 36.5 C 35.890625 37.578125 37.707031 38.714844 40.96875 40.4375 C 42.519531 41.257812 43.679688 41.695312 44.53125 41.921875 C 44.25 41.5625 44.042969 41.117188 43.917969 40.625 C 43.730469 39.882812 43.746094 39.070312 43.960938 38.28125 C 44.300781 37.023438 45.113281 35.980469 46.125 35.496094 C 46.480469 35.324219 46.851562 35.226562 47.210938 35.207031 C 45.023438 33.609375 41.226562 32.605469 39.378906 32.257812 Z M 40.695312 40.933594 Z M 40.695312 40.933594 " fill-opacity="1" fill-rule="nonzero"/><path fill="#3c2415" d="M 44.25 41.007812 C 44.078125 40.941406 43.953125 40.800781 43.910156 40.625 C 43.722656 39.882812 43.738281 39.070312 43.953125 38.28125 C 44.292969 37.023438 45.105469 35.980469 46.117188 35.496094 C 46.273438 35.421875 46.445312 35.421875 46.597656 35.496094 C 47.640625 35.988281 48.3125 37.054688 48.3125 38.207031 C 48.3125 39.863281 46.96875 41.207031 45.3125 41.207031 C 44.945312 41.199219 44.589844 41.132812 44.25 41.007812 Z M 44.449219 40.484375 Z M 45.03125 38.570312 C 44.898438 39.070312 44.863281 39.574219 44.929688 40.046875 C 45.054688 40.078125 45.179688 40.082031 45.3125 40.082031 C 46.355469 40.082031 47.199219 39.234375 47.199219 38.199219 C 47.199219 37.5625 46.871094 36.972656 46.355469 36.625 C 45.75 37.015625 45.261719 37.726562 45.03125 38.570312 Z M 45.03125 38.570312 " fill-opacity="1" fill-rule="nonzero"/><path fill="#449dd7" d="M 49.164062 23.542969 C 49.164062 23.542969 53.273438 18.601562 54.949219 18.238281 C 56.628906 17.875 56.53125 24.527344 54.476562 26.285156 C 52.429688 28.050781 53.265625 27.328125 53.265625 27.328125 L 51.167969 27.328125 Z M 49.164062 23.542969 " fill-opacity="1" fill-rule="nonzero"/><path fill="#3c2415" d="M 51.433594 29.066406 C 51.261719 29.011719 51.121094 28.886719 51.0625 28.71875 L 50.65625 27.558594 L 48.667969 23.808594 C 48.566406 23.609375 48.585938 23.367188 48.734375 23.1875 C 49.445312 22.339844 53.058594 18.082031 54.832031 17.699219 C 55.105469 17.640625 55.792969 17.601562 56.25 18.519531 C 57.101562 20.226562 56.738281 24.917969 54.875 26.523438 C 52.835938 28.273438 51.964844 28.945312 51.925781 28.976562 C 51.832031 29.050781 51.714844 29.085938 51.585938 29.085938 C 51.535156 29.085938 51.484375 29.078125 51.433594 29.066406 Z M 55.066406 18.785156 C 54.035156 19.007812 51.410156 21.753906 49.828125 23.617188 L 51.660156 27.078125 C 51.675781 27.097656 51.683594 27.128906 51.691406 27.148438 L 51.851562 27.609375 C 52.320312 27.222656 53.074219 26.601562 54.144531 25.679688 C 55.3125 24.675781 55.820312 21.59375 55.46875 19.714844 C 55.335938 19.007812 55.128906 18.800781 55.082031 18.785156 C 55.082031 18.785156 55.074219 18.785156 55.066406 18.785156 Z M 55.066406 18.785156 " fill-opacity="1" fill-rule="nonzero"/><path fill="#7d7d7d" d="M 46.363281 31.878906 C 49.363281 31.710938 53.539062 30.351562 55.128906 29.300781 C 54.410156 28.753906 53.789062 28.089844 53.273438 27.335938 C 53.019531 26.964844 52.753906 26.617188 52.472656 26.292969 C 50.679688 26.582031 46.273438 27.351562 45.453125 28 C 44.417969 28.820312 43.175781 32.058594 46.363281 31.878906 Z M 46.363281 31.878906 " fill-opacity="1" fill-rule="nonzero"/><path fill="#449dd7" d="M 8.28125 26.921875 C 9.375 30.246094 12.144531 32.832031 20.660156 36.234375 C 21.085938 36.402344 21.53125 36.582031 21.988281 36.75 C 31.542969 40.410156 44.0625 40.230469 51.320312 38.988281 C 58.578125 37.75 59.992188 34.71875 58.875 32.507812 C 58.289062 31.355469 57.070312 30.46875 56.035156 29.886719 C 55.71875 29.707031 55.421875 29.507812 55.136719 29.292969 C 53.546875 30.34375 49.371094 31.703125 46.371094 31.871094 C 43.183594 32.058594 44.417969 28.8125 45.460938 27.992188 C 46.28125 27.34375 50.6875 26.574219 52.480469 26.285156 C 49.925781 23.285156 46.539062 22.167969 44.597656 22.09375 C 42.269531 22 22.203125 25.234375 20.171875 25.5625 C 20.058594 25.578125 20.007812 25.589844 20.007812 25.589844 C 20.007812 25.589844 17.554688 25.878906 16.402344 25.304688 C 14.347656 24.269531 11.339844 18.460938 11.339844 18.460938 C 8.828125 14.363281 7.953125 12.613281 5.878906 13.160156 C 3.800781 13.707031 7.125 23.425781 8.28125 26.921875 Z M 8.28125 26.921875 " fill-opacity="1" fill-rule="nonzero"/><path fill="#3c2415" d="M 43.902344 31.199219 C 43.421875 29.9375 44.300781 28.207031 45.105469 27.5625 C 45.957031 26.898438 49.53125 26.203125 52.386719 25.746094 C 52.578125 25.714844 52.769531 25.78125 52.894531 25.929688 C 53.191406 26.269531 53.464844 26.640625 53.730469 27.015625 C 54.21875 27.734375 54.800781 28.347656 55.460938 28.851562 C 55.601562 28.960938 55.683594 29.132812 55.683594 29.316406 C 55.675781 29.492188 55.585938 29.664062 55.429688 29.757812 C 53.746094 30.875 49.519531 32.25 46.390625 32.433594 C 46.296875 32.441406 46.207031 32.441406 46.117188 32.441406 C 44.601562 32.441406 44.078125 31.671875 43.902344 31.199219 Z M 46.332031 31.320312 C 48.84375 31.179688 52.328125 30.128906 54.160156 29.203125 C 53.664062 28.746094 53.214844 28.222656 52.8125 27.644531 C 52.636719 27.386719 52.445312 27.136719 52.253906 26.890625 C 48.0625 27.578125 46.164062 28.148438 45.800781 28.4375 C 45.289062 28.835938 44.683594 30.105469 44.945312 30.800781 C 45.089844 31.191406 45.558594 31.363281 46.332031 31.320312 Z M 46.332031 31.320312 " fill-opacity="1" fill-rule="nonzero"/><path fill="#449dd7" d="M 8.28125 26.921875 C 9.375 30.246094 12.144531 32.832031 20.660156 36.234375 C 16.628906 29.058594 20.171875 25.570312 20.171875 25.570312 C 20.058594 25.582031 20.007812 25.597656 20.007812 25.597656 C 20.007812 25.597656 17.554688 25.886719 16.402344 25.308594 C 14.347656 24.277344 11.339844 18.464844 11.339844 18.464844 C 8.828125 14.371094 7.953125 12.621094 5.878906 13.167969 C 3.800781 13.707031 7.125 23.425781 8.28125 26.921875 Z M 8.28125 26.921875 " fill-opacity="1" fill-rule="nonzero"/><g clip-path="url(#970ebfd768)"><path fill="#3c2415" d="M 20.453125 36.757812 C 12.457031 33.566406 9.011719 30.949219 7.746094 27.097656 C 7.6875 26.921875 7.621094 26.722656 7.554688 26.515625 C 5.332031 19.773438 4.03125 14.941406 4.9375 13.269531 C 5.167969 12.851562 5.492188 12.6875 5.730469 12.628906 C 8.058594 12.007812 9.136719 13.78125 11.28125 17.304688 C 11.449219 17.578125 11.621094 17.867188 11.804688 18.171875 C 11.8125 18.1875 11.820312 18.191406 11.828125 18.207031 C 12.640625 19.78125 15.09375 24.03125 16.644531 24.816406 C 17.457031 25.230469 19.277344 25.125 19.917969 25.050781 C 19.941406 25.042969 19.992188 25.035156 20.074219 25.03125 C 20.3125 24.992188 20.546875 25.109375 20.660156 25.324219 C 20.769531 25.539062 20.726562 25.796875 20.554688 25.976562 C 20.546875 25.984375 19.75 26.804688 19.425781 28.414062 C 18.988281 30.578125 19.578125 33.195312 21.140625 35.972656 C 21.257812 36.179688 21.226562 36.441406 21.074219 36.617188 C 20.960938 36.742188 20.8125 36.808594 20.652344 36.808594 C 20.585938 36.792969 20.519531 36.78125 20.453125 36.757812 Z M 16.144531 25.804688 C 14.015625 24.726562 11.207031 19.425781 10.851562 18.734375 C 10.675781 18.4375 10.496094 18.15625 10.335938 17.882812 C 8.160156 14.328125 7.472656 13.316406 6.019531 13.699219 C 6.003906 13.699219 5.972656 13.714844 5.921875 13.796875 C 5.722656 14.15625 5.539062 15.339844 6.5 19.152344 C 7.132812 21.675781 8.027344 24.371094 8.613281 26.152344 C 8.679688 26.367188 8.746094 26.558594 8.804688 26.742188 C 9.71875 29.53125 11.871094 31.945312 19.46875 35.140625 C 18.003906 31.96875 18.027344 29.582031 18.351562 28.082031 C 18.523438 27.296875 18.78125 26.675781 19.03125 26.210938 C 18.160156 26.25 16.933594 26.203125 16.144531 25.804688 Z M 16.144531 25.804688 " fill-opacity="1" fill-rule="nonzero"/></g><path fill="#449dd7" d="M 24.175781 45.308594 C 29.246094 47.984375 30.488281 46.808594 30.523438 46.78125 C 30.214844 46.839844 29.890625 46.839844 29.578125 46.75 C 28.75 46.527344 28.160156 45.796875 27.929688 44.859375 C 27.777344 44.238281 27.777344 43.519531 27.976562 42.796875 C 28.285156 41.648438 29.007812 40.761719 29.84375 40.363281 C 30.332031 40.128906 30.855469 40.0625 31.359375 40.195312 C 32.023438 40.371094 32.535156 40.882812 32.832031 41.554688 C 32.0625 37.6875 22.816406 36.054688 22.816406 36.054688 C 22.816406 36.054688 20.585938 36.683594 19.054688 39.019531 C 17.523438 41.347656 19.03125 42.589844 24.175781 45.308594 Z M 24.175781 45.308594 " fill-opacity="1" fill-rule="nonzero"/><path fill="#3c2415" d="M 29.429688 47.28125 C 28.441406 47.015625 27.679688 46.160156 27.390625 44.992188 C 27.339844 44.792969 27.40625 44.578125 27.5625 44.4375 C 27.714844 44.296875 27.9375 44.257812 28.128906 44.332031 C 28.34375 44.414062 28.566406 44.453125 28.796875 44.453125 C 29.835938 44.453125 30.679688 43.601562 30.679688 42.566406 C 30.679688 41.84375 30.257812 41.171875 29.601562 40.859375 C 29.410156 40.769531 29.28125 40.570312 29.28125 40.355469 C 29.28125 40.144531 29.410156 39.941406 29.601562 39.855469 C 30.230469 39.550781 30.886719 39.484375 31.507812 39.65625 C 32.3125 39.875 32.964844 40.46875 33.339844 41.332031 C 33.339844 41.339844 33.347656 41.339844 33.347656 41.347656 C 33.726562 42.21875 33.785156 43.269531 33.503906 44.296875 C 33.074219 45.863281 31.964844 47.046875 30.664062 47.320312 C 30.65625 47.320312 30.648438 47.328125 30.636719 47.328125 C 30.457031 47.363281 30.28125 47.378906 30.101562 47.378906 C 29.875 47.378906 29.652344 47.347656 29.429688 47.28125 Z M 30.414062 46.226562 C 31.300781 46.046875 32.113281 45.152344 32.425781 44 C 32.632812 43.222656 32.59375 42.417969 32.320312 41.785156 C 32.320312 41.777344 32.3125 41.777344 32.3125 41.769531 C 32.078125 41.230469 31.683594 40.859375 31.210938 40.734375 C 31.191406 40.726562 31.175781 40.726562 31.152344 40.71875 C 31.558594 41.238281 31.796875 41.886719 31.796875 42.574219 C 31.796875 44.214844 30.480469 45.546875 28.847656 45.574219 C 29.078125 45.890625 29.371094 46.113281 29.726562 46.210938 C 29.941406 46.269531 30.164062 46.277344 30.390625 46.234375 C 30.398438 46.234375 30.40625 46.234375 30.414062 46.226562 Z M 30.414062 46.226562 " fill-opacity="1" fill-rule="nonzero"/><path fill="#3c2415" d="M 27.730469 45.375 C 27.5625 45.308594 27.433594 45.167969 27.390625 44.992188 C 27.207031 44.25 27.222656 43.4375 27.433594 42.648438 C 27.777344 41.390625 28.589844 40.351562 29.601562 39.863281 C 29.757812 39.789062 29.925781 39.789062 30.082031 39.863281 C 31.125 40.355469 31.796875 41.421875 31.796875 42.574219 C 31.796875 44.230469 30.449219 45.574219 28.796875 45.574219 C 28.425781 45.574219 28.070312 45.507812 27.730469 45.375 Z M 27.929688 44.859375 Z M 28.507812 42.9375 C 28.375 43.4375 28.335938 43.941406 28.402344 44.414062 C 28.53125 44.445312 28.65625 44.453125 28.789062 44.453125 C 29.828125 44.453125 30.671875 43.601562 30.671875 42.566406 C 30.671875 41.929688 30.347656 41.339844 29.828125 40.992188 C 29.222656 41.390625 28.734375 42.09375 28.507812 42.9375 Z M 28.507812 42.9375 " fill-opacity="1" fill-rule="nonzero"/><path fill="#3c2415" d="M 23.917969 45.796875 C 20.214844 43.839844 18.390625 42.648438 18.003906 41.15625 C 17.8125 40.394531 17.996094 39.617188 18.589844 38.714844 C 20.214844 36.242188 22.566406 35.554688 22.667969 35.523438 C 22.75 35.5 22.832031 35.496094 22.921875 35.507812 C 23.015625 35.523438 25.308594 35.9375 27.730469 36.832031 C 31.117188 38.089844 33.023438 39.640625 33.378906 41.445312 C 33.4375 41.722656 33.265625 41.996094 33 42.085938 C 32.726562 42.175781 32.4375 42.035156 32.320312 41.777344 C 32.085938 41.230469 31.691406 40.859375 31.210938 40.726562 C 30.851562 40.628906 30.464844 40.675781 30.082031 40.859375 C 29.355469 41.207031 28.765625 41.984375 28.507812 42.9375 C 28.34375 43.542969 28.328125 44.164062 28.460938 44.71875 C 28.65625 45.5 29.113281 46.039062 29.71875 46.203125 C 29.941406 46.261719 30.171875 46.269531 30.40625 46.226562 C 30.648438 46.171875 30.894531 46.292969 31.003906 46.507812 C 31.125 46.71875 31.078125 46.984375 30.910156 47.164062 C 30.785156 47.289062 30.371094 47.605469 29.394531 47.605469 C 28.34375 47.613281 26.628906 47.230469 23.917969 45.796875 Z M 22.851562 36.632812 C 22.402344 36.792969 20.71875 37.496094 19.511719 39.324219 C 18.972656 40.144531 19.003906 40.601562 19.078125 40.875 C 19.359375 41.953125 21.175781 43.089844 24.433594 44.8125 C 25.988281 45.632812 27.148438 46.070312 27.996094 46.300781 C 27.714844 45.9375 27.507812 45.492188 27.382812 45 C 27.199219 44.257812 27.214844 43.445312 27.429688 42.65625 C 27.769531 41.398438 28.582031 40.355469 29.59375 39.871094 C 29.949219 39.699219 30.316406 39.601562 30.679688 39.582031 C 28.507812 37.984375 24.707031 36.972656 22.851562 36.632812 Z M 24.175781 45.308594 Z M 24.175781 45.308594 " fill-opacity="1" fill-rule="nonzero"/><path fill="#3c2415" d="M 30.523438 47.097656 C 30.605469 47.097656 30.6875 47.066406 30.746094 47.007812 C 30.878906 46.882812 30.878906 46.675781 30.761719 46.550781 C 30.636719 46.417969 30.429688 46.417969 30.304688 46.535156 C 30.171875 46.660156 30.164062 46.867188 30.289062 46.992188 C 30.347656 47.066406 30.4375 47.097656 30.523438 47.097656 Z M 30.523438 47.097656 " fill-opacity="1" fill-rule="nonzero"/><path fill="#3c2415" d="M 47.042969 42.957031 C 47.183594 42.957031 47.332031 42.90625 47.433594 42.796875 C 47.648438 42.582031 47.648438 42.226562 47.433594 42.003906 C 47.21875 41.789062 46.863281 41.789062 46.644531 42.003906 C 46.429688 42.21875 46.421875 42.574219 46.644531 42.796875 C 46.753906 42.90625 46.902344 42.957031 47.042969 42.957031 Z M 47.042969 42.957031 " fill-opacity="1" fill-rule="nonzero"/><g clip-path="url(#665d3a9471)"><path fill="#3c2415" d="M 21.789062 37.273438 C 17.050781 35.457031 13.824219 33.851562 11.640625 32.21875 C 9.609375 30.699219 8.414062 29.125 7.746094 27.089844 C 7.6875 26.914062 7.621094 26.714844 7.554688 26.5 C 5.332031 19.773438 4.03125 14.941406 4.9375 13.269531 C 5.167969 12.851562 5.492188 12.6875 5.730469 12.628906 C 8.058594 12.015625 9.128906 13.789062 11.28125 17.304688 C 11.449219 17.578125 11.628906 17.867188 11.8125 18.171875 C 11.820312 18.1875 11.828125 18.191406 11.835938 18.207031 C 12.648438 19.78125 15.101562 24.03125 16.652344 24.816406 C 17.464844 25.230469 19.285156 25.125 19.925781 25.050781 C 21 24.882812 42.140625 21.453125 44.617188 21.546875 C 46.664062 21.628906 50.886719 22.871094 53.738281 27.023438 C 54.425781 28.023438 55.3125 28.851562 56.308594 29.410156 C 57.808594 30.261719 58.84375 31.222656 59.371094 32.273438 C 59.894531 33.3125 59.902344 34.445312 59.382812 35.464844 C 58.695312 36.824219 56.753906 38.640625 51.410156 39.550781 C 48.394531 40.070312 44.808594 40.371094 41.027344 40.371094 C 34.574219 40.363281 27.546875 39.484375 21.789062 37.273438 Z M 20.089844 26.144531 C 20.082031 26.144531 20.074219 26.144531 20.066406 26.144531 C 19.800781 26.175781 17.414062 26.441406 16.144531 25.796875 C 14.015625 24.726562 11.207031 19.425781 10.851562 18.734375 C 10.667969 18.4375 10.496094 18.15625 10.335938 17.882812 C 8.160156 14.328125 7.472656 13.316406 6.019531 13.699219 C 6.003906 13.699219 5.972656 13.714844 5.921875 13.796875 C 5.722656 14.15625 5.539062 15.339844 6.5 19.152344 C 7.132812 21.675781 8.027344 24.371094 8.613281 26.152344 C 8.679688 26.367188 8.746094 26.558594 8.804688 26.742188 C 9.816406 29.824219 12.402344 32.484375 22.179688 36.226562 C 31.125 39.648438 43.207031 39.804688 51.21875 38.433594 C 56.363281 37.554688 57.914062 35.871094 58.378906 34.941406 C 58.828125 34.046875 58.617188 33.253906 58.363281 32.753906 C 57.832031 31.695312 56.648438 30.867188 55.75 30.363281 C 54.609375 29.722656 53.589844 28.777344 52.808594 27.636719 C 51.707031 26.027344 50.210938 24.703125 48.5 23.808594 C 46.613281 22.828125 45.121094 22.671875 44.566406 22.648438 C 44.535156 22.648438 44.5 22.648438 44.46875 22.648438 C 42.203125 22.65625 27.605469 24.925781 20.089844 26.144531 Z M 20.089844 26.144531 " fill-opacity="1" fill-rule="nonzero"/></g><path fill="#3c2415" d="M 50.285156 31.734375 C 50.382812 31.734375 50.472656 31.710938 50.558594 31.660156 C 50.828125 31.511719 50.921875 31.171875 50.773438 30.898438 L 48.527344 26.890625 C 48.378906 26.625 48.039062 26.53125 47.765625 26.675781 C 47.5 26.824219 47.40625 27.164062 47.550781 27.4375 L 49.800781 31.445312 C 49.902344 31.628906 50.09375 31.734375 50.285156 31.734375 Z M 50.285156 31.734375 " fill-opacity="1" fill-rule="nonzero"/><path fill="#7d7d7d" d="M 37.285156 28.742188 C 37.4375 28.765625 37.570312 28.835938 37.695312 28.945312 C 37.816406 29.058594 37.917969 29.207031 37.996094 29.390625 C 38.078125 29.574219 38.125 29.777344 38.148438 30.003906 C 38.171875 30.230469 38.164062 30.460938 38.125 30.695312 C 38.085938 30.929688 38.023438 31.152344 37.929688 31.359375 C 37.839844 31.570312 37.726562 31.746094 37.59375 31.898438 C 37.464844 32.046875 37.320312 32.15625 37.167969 32.222656 C 37.015625 32.289062 36.867188 32.3125 36.71875 32.289062 C 36.566406 32.265625 36.433594 32.195312 36.308594 32.085938 C 36.183594 31.972656 36.085938 31.824219 36.007812 31.640625 C 35.925781 31.457031 35.875 31.253906 35.855469 31.027344 C 35.832031 30.800781 35.839844 30.570312 35.878906 30.335938 C 35.914062 30.101562 35.980469 29.878906 36.074219 29.671875 C 36.164062 29.460938 36.277344 29.285156 36.410156 29.132812 C 36.539062 28.984375 36.683594 28.875 36.835938 28.808594 C 36.988281 28.742188 37.136719 28.71875 37.285156 28.742188 Z M 37.285156 28.742188 " fill-opacity="1" fill-rule="nonzero"/><path fill="#3c2415" d="M 36.644531 32.789062 C 36.171875 32.714844 35.773438 32.367188 35.542969 31.84375 C 35.34375 31.386719 35.285156 30.824219 35.378906 30.253906 C 35.585938 28.976562 36.460938 28.097656 37.375 28.246094 C 38.292969 28.390625 38.847656 29.507812 38.640625 30.777344 C 38.445312 31.960938 37.679688 32.8125 36.84375 32.8125 C 36.777344 32.804688 36.710938 32.804688 36.644531 32.789062 Z M 36.386719 30.417969 C 36.328125 30.792969 36.355469 31.164062 36.480469 31.445312 C 36.570312 31.644531 36.6875 31.769531 36.804688 31.792969 C 37.058594 31.828125 37.507812 31.398438 37.632812 30.625 C 37.761719 29.847656 37.472656 29.292969 37.214844 29.257812 C 37.207031 29.257812 37.191406 29.257812 37.175781 29.257812 C 36.917969 29.242188 36.503906 29.671875 36.386719 30.417969 Z M 36.386719 30.417969 " fill-opacity="1" fill-rule="nonzero"/><path fill="#7d7d7d" d="M 33.496094 28.667969 C 33.632812 28.6875 33.757812 28.75 33.867188 28.851562 C 33.980469 28.953125 34.074219 29.089844 34.144531 29.253906 C 34.214844 29.421875 34.261719 29.609375 34.28125 29.8125 C 34.300781 30.019531 34.292969 30.230469 34.261719 30.441406 C 34.226562 30.65625 34.167969 30.859375 34.082031 31.046875 C 34 31.238281 33.898438 31.398438 33.777344 31.535156 C 33.65625 31.671875 33.527344 31.769531 33.390625 31.832031 C 33.25 31.894531 33.113281 31.914062 32.980469 31.890625 C 32.84375 31.871094 32.71875 31.808594 32.609375 31.707031 C 32.496094 31.605469 32.40625 31.46875 32.332031 31.304688 C 32.261719 31.136719 32.214844 30.949219 32.195312 30.746094 C 32.175781 30.539062 32.183594 30.328125 32.21875 30.113281 C 32.25 29.902344 32.308594 29.699219 32.394531 29.511719 C 32.476562 29.320312 32.578125 29.160156 32.699219 29.023438 C 32.820312 28.886719 32.949219 28.789062 33.085938 28.726562 C 33.226562 28.664062 33.363281 28.644531 33.496094 28.667969 Z M 33.496094 28.667969 " fill-opacity="1" fill-rule="nonzero"/><path fill="#3c2415" d="M 32.910156 32.347656 C 32.085938 32.210938 31.574219 31.199219 31.765625 30.039062 C 31.949219 28.878906 32.75 28.074219 33.578125 28.207031 C 34.40625 28.339844 34.914062 29.351562 34.722656 30.511719 C 34.550781 31.585938 33.851562 32.359375 33.089844 32.359375 C 33.03125 32.359375 32.972656 32.359375 32.910156 32.347656 Z M 32.675781 30.1875 C 32.566406 30.890625 32.824219 31.398438 33.058594 31.4375 C 33.289062 31.472656 33.703125 31.074219 33.8125 30.371094 C 33.925781 29.671875 33.664062 29.160156 33.429688 29.125 C 33.421875 29.125 33.40625 29.125 33.398438 29.125 C 33.164062 29.125 32.785156 29.515625 32.675781 30.1875 Z M 32.675781 30.1875 " fill-opacity="1" fill-rule="nonzero"/><path fill="#7d7d7d" d="M 29.925781 28.59375 C 30.050781 28.613281 30.164062 28.667969 30.269531 28.761719 C 30.371094 28.855469 30.457031 28.976562 30.523438 29.128906 C 30.589844 29.28125 30.628906 29.453125 30.648438 29.640625 C 30.667969 29.828125 30.660156 30.023438 30.628906 30.21875 C 30.597656 30.414062 30.542969 30.597656 30.46875 30.769531 C 30.390625 30.941406 30.296875 31.089844 30.1875 31.214844 C 30.078125 31.339844 29.957031 31.429688 29.832031 31.484375 C 29.703125 31.542969 29.578125 31.558594 29.453125 31.539062 C 29.328125 31.519531 29.214844 31.464844 29.109375 31.371094 C 29.007812 31.277344 28.921875 31.152344 28.855469 31 C 28.789062 30.847656 28.746094 30.679688 28.730469 30.488281 C 28.710938 30.300781 28.714844 30.109375 28.746094 29.914062 C 28.777344 29.71875 28.832031 29.535156 28.910156 29.363281 C 28.988281 29.1875 29.082031 29.039062 29.191406 28.917969 C 29.300781 28.792969 29.421875 28.703125 29.546875 28.644531 C 29.675781 28.589844 29.800781 28.570312 29.925781 28.59375 Z M 29.925781 28.59375 " fill-opacity="1" fill-rule="nonzero"/><path fill="#3c2415" d="M 29.386719 31.960938 C 28.996094 31.894531 28.664062 31.613281 28.46875 31.171875 C 28.308594 30.792969 28.257812 30.320312 28.335938 29.847656 C 28.410156 29.375 28.601562 28.945312 28.882812 28.636719 C 29.203125 28.28125 29.609375 28.109375 30 28.171875 C 30.390625 28.238281 30.722656 28.519531 30.917969 28.960938 C 31.078125 29.339844 31.128906 29.8125 31.050781 30.285156 C 30.976562 30.757812 30.785156 31.183594 30.503906 31.496094 C 30.230469 31.804688 29.890625 31.96875 29.550781 31.96875 C 29.488281 31.976562 29.4375 31.96875 29.386719 31.960938 Z M 29.511719 29.199219 C 29.34375 29.382812 29.222656 29.671875 29.171875 29.980469 C 29.121094 30.292969 29.148438 30.601562 29.253906 30.832031 C 29.328125 31 29.421875 31.105469 29.527344 31.117188 C 29.628906 31.132812 29.757812 31.066406 29.875 30.933594 C 30.042969 30.75 30.164062 30.460938 30.214844 30.152344 C 30.265625 29.839844 30.238281 29.53125 30.132812 29.300781 C 30.058594 29.132812 29.964844 29.027344 29.859375 29.011719 C 29.851562 29.011719 29.835938 29.011719 29.828125 29.011719 C 29.734375 29.003906 29.617188 29.070312 29.511719 29.199219 Z M 29.511719 29.199219 " fill-opacity="1" fill-rule="nonzero"/><path fill="#7d7d7d" d="M 26.378906 28.429688 C 26.496094 28.449219 26.601562 28.5 26.695312 28.589844 C 26.792969 28.675781 26.871094 28.789062 26.933594 28.933594 C 26.996094 29.074219 27.035156 29.230469 27.050781 29.40625 C 27.070312 29.582031 27.0625 29.761719 27.035156 29.941406 C 27.003906 30.125 26.953125 30.296875 26.882812 30.457031 C 26.8125 30.617188 26.722656 30.757812 26.621094 30.871094 C 26.519531 30.988281 26.40625 31.070312 26.289062 31.125 C 26.171875 31.175781 26.054688 31.191406 25.9375 31.175781 C 25.820312 31.15625 25.714844 31.101562 25.621094 31.015625 C 25.523438 30.929688 25.445312 30.816406 25.382812 30.671875 C 25.320312 30.53125 25.28125 30.371094 25.265625 30.195312 C 25.246094 30.023438 25.253906 29.84375 25.28125 29.660156 C 25.3125 29.480469 25.363281 29.308594 25.433594 29.148438 C 25.503906 28.988281 25.59375 28.847656 25.695312 28.734375 C 25.796875 28.617188 25.910156 28.535156 26.027344 28.480469 C 26.144531 28.429688 26.261719 28.410156 26.378906 28.429688 Z M 26.378906 28.429688 " fill-opacity="1" fill-rule="nonzero"/><path fill="#3c2415" d="M 25.875 31.5625 C 25.507812 31.503906 25.195312 31.238281 25.027344 30.824219 C 24.871094 30.46875 24.828125 30.03125 24.902344 29.589844 C 24.972656 29.144531 25.152344 28.746094 25.410156 28.457031 C 25.707031 28.125 26.082031 27.972656 26.453125 28.03125 C 26.820312 28.089844 27.132812 28.355469 27.300781 28.769531 C 27.457031 29.125 27.503906 29.558594 27.429688 30.003906 C 27.28125 30.917969 26.6875 31.578125 26.03125 31.578125 C 25.980469 31.578125 25.929688 31.578125 25.875 31.5625 Z M 25.996094 28.992188 C 25.839844 29.167969 25.722656 29.433594 25.675781 29.722656 C 25.632812 30.011719 25.65625 30.296875 25.75 30.511719 C 25.816406 30.667969 25.914062 30.765625 26 30.777344 C 26.203125 30.808594 26.546875 30.476562 26.644531 29.871094 C 26.6875 29.582031 26.667969 29.292969 26.570312 29.078125 C 26.503906 28.925781 26.410156 28.828125 26.320312 28.8125 C 26.3125 28.8125 26.304688 28.8125 26.289062 28.8125 C 26.203125 28.8125 26.089844 28.878906 25.996094 28.992188 Z M 25.996094 28.992188 " fill-opacity="1" fill-rule="nonzero"/><path fill="#7d7d7d" d="M 23.488281 28.488281 C 23.597656 28.507812 23.691406 28.554688 23.78125 28.636719 C 23.871094 28.714844 23.941406 28.820312 23.996094 28.949219 C 24.054688 29.082031 24.089844 29.226562 24.105469 29.386719 C 24.121094 29.550781 24.117188 29.714844 24.089844 29.878906 C 24.0625 30.046875 24.015625 30.207031 23.949219 30.355469 C 23.886719 30.503906 23.804688 30.628906 23.710938 30.734375 C 23.617188 30.839844 23.515625 30.917969 23.40625 30.96875 C 23.296875 31.015625 23.191406 31.03125 23.082031 31.015625 C 22.976562 30.996094 22.878906 30.949219 22.792969 30.867188 C 22.703125 30.789062 22.632812 30.683594 22.574219 30.554688 C 22.519531 30.421875 22.484375 30.277344 22.46875 30.117188 C 22.453125 29.953125 22.457031 29.789062 22.484375 29.621094 C 22.511719 29.457031 22.558594 29.296875 22.621094 29.148438 C 22.6875 29 22.769531 28.875 22.863281 28.769531 C 22.957031 28.660156 23.058594 28.585938 23.167969 28.535156 C 23.277344 28.488281 23.382812 28.472656 23.488281 28.488281 Z M 23.488281 28.488281 " fill-opacity="1" fill-rule="nonzero"/><path fill="#3c2415" d="M 23.023438 31.363281 C 22.691406 31.3125 22.402344 31.058594 22.238281 30.691406 C 22.101562 30.363281 22.054688 29.964844 22.121094 29.558594 C 22.1875 29.152344 22.351562 28.792969 22.585938 28.523438 C 22.859375 28.222656 23.207031 28.074219 23.539062 28.132812 C 23.875 28.183594 24.160156 28.4375 24.324219 28.804688 C 24.464844 29.132812 24.507812 29.53125 24.441406 29.9375 C 24.375 30.34375 24.214844 30.707031 23.976562 30.972656 C 23.742188 31.238281 23.453125 31.378906 23.164062 31.378906 C 23.121094 31.378906 23.074219 31.371094 23.023438 31.363281 Z M 23.132812 29.003906 C 22.992188 29.167969 22.882812 29.410156 22.847656 29.679688 C 22.800781 29.945312 22.832031 30.210938 22.914062 30.402344 C 22.972656 30.542969 23.058594 30.632812 23.140625 30.644531 C 23.230469 30.660156 23.332031 30.601562 23.4375 30.484375 C 23.578125 30.320312 23.6875 30.078125 23.726562 29.8125 C 23.769531 29.542969 23.742188 29.277344 23.660156 29.085938 C 23.601562 28.945312 23.511719 28.859375 23.429688 28.84375 C 23.421875 28.84375 23.414062 28.84375 23.40625 28.84375 C 23.328125 28.84375 23.222656 28.902344 23.132812 29.003906 Z M 23.132812 29.003906 " fill-opacity="1" fill-rule="nonzero"/><path fill="#7d7d7d" d="M 20.945312 28.460938 C 21.132812 28.488281 21.277344 28.621094 21.378906 28.851562 C 21.476562 29.082031 21.503906 29.347656 21.457031 29.640625 C 21.410156 29.9375 21.300781 30.179688 21.132812 30.367188 C 20.96875 30.554688 20.789062 30.632812 20.597656 30.605469 C 20.410156 30.574219 20.265625 30.441406 20.164062 30.210938 C 20.0625 29.980469 20.039062 29.71875 20.085938 29.421875 C 20.132812 29.125 20.242188 28.882812 20.40625 28.695312 C 20.574219 28.507812 20.753906 28.429688 20.945312 28.460938 Z M 20.945312 28.460938 " fill-opacity="1" fill-rule="nonzero"/><path fill="#3c2415" d="M 20.554688 30.910156 C 20 30.824219 19.660156 30.144531 19.785156 29.375 C 19.910156 28.597656 20.445312 28.066406 21 28.15625 C 21.554688 28.246094 21.894531 28.925781 21.765625 29.691406 C 21.714844 30.039062 21.566406 30.351562 21.367188 30.578125 C 21.167969 30.800781 20.925781 30.925781 20.671875 30.925781 C 20.636719 30.917969 20.59375 30.917969 20.554688 30.910156 Z M 20.398438 29.472656 C 20.324219 29.945312 20.503906 30.277344 20.660156 30.296875 C 20.730469 30.3125 20.828125 30.261719 20.910156 30.160156 C 21.027344 30.019531 21.125 29.8125 21.160156 29.589844 C 21.234375 29.117188 21.058594 28.785156 20.902344 28.761719 C 20.894531 28.761719 20.886719 28.761719 20.878906 28.761719 C 20.726562 28.761719 20.464844 29.019531 20.398438 29.472656 Z M 20.398438 29.472656 " fill-opacity="1" fill-rule="nonzero"/><path fill="#7d7d7d" d="M 17.304688 28.402344 C 17.457031 28.425781 17.570312 28.53125 17.652344 28.71875 C 17.730469 28.902344 17.75 29.117188 17.714844 29.355469 C 17.675781 29.597656 17.589844 29.792969 17.453125 29.945312 C 17.320312 30.097656 17.179688 30.160156 17.027344 30.136719 C 16.875 30.113281 16.761719 30.007812 16.679688 29.820312 C 16.601562 29.632812 16.582031 29.421875 16.617188 29.179688 C 16.65625 28.941406 16.742188 28.746094 16.878906 28.59375 C 17.011719 28.441406 17.15625 28.375 17.304688 28.402344 Z M 17.304688 28.402344 " fill-opacity="1" fill-rule="nonzero"/><path fill="#3c2415" d="M 16.984375 30.378906 C 16.542969 30.304688 16.269531 29.765625 16.371094 29.136719 C 16.417969 28.863281 16.527344 28.605469 16.691406 28.429688 C 16.875 28.222656 17.109375 28.117188 17.347656 28.15625 C 17.792969 28.230469 18.066406 28.769531 17.960938 29.398438 C 17.863281 29.972656 17.496094 30.386719 17.082031 30.386719 C 17.050781 30.386719 17.023438 30.386719 16.984375 30.378906 Z M 17.058594 28.761719 C 16.964844 28.871094 16.890625 29.042969 16.859375 29.21875 C 16.800781 29.597656 16.941406 29.871094 17.066406 29.886719 C 17.191406 29.90625 17.40625 29.691406 17.472656 29.316406 C 17.53125 28.9375 17.390625 28.664062 17.265625 28.652344 C 17.257812 28.652344 17.25 28.652344 17.25 28.652344 C 17.191406 28.652344 17.125 28.6875 17.058594 28.761719 Z M 17.058594 28.761719 " fill-opacity="1" fill-rule="nonzero"/><path fill="#7d7d7d" d="M 14.847656 28.304688 C 14.988281 28.328125 15.097656 28.425781 15.171875 28.597656 C 15.246094 28.773438 15.265625 28.96875 15.230469 29.191406 C 15.195312 29.414062 15.113281 29.59375 14.988281 29.734375 C 14.863281 29.875 14.730469 29.933594 14.589844 29.910156 C 14.449219 29.890625 14.339844 29.792969 14.265625 29.617188 C 14.191406 29.445312 14.171875 29.25 14.207031 29.027344 C 14.242188 28.804688 14.324219 28.625 14.449219 28.484375 C 14.574219 28.34375 14.707031 28.285156 14.847656 28.304688 Z M 14.847656 28.304688 " fill-opacity="1" fill-rule="nonzero"/><path fill="#3c2415" d="M 14.554688 30.136719 C 14.339844 30.097656 14.164062 29.945312 14.058594 29.707031 C 13.96875 29.5 13.941406 29.25 13.984375 28.992188 C 14.082031 28.414062 14.472656 28.015625 14.886719 28.082031 C 15.300781 28.148438 15.550781 28.652344 15.457031 29.226562 C 15.367188 29.757812 15.027344 30.144531 14.644531 30.144531 C 14.613281 30.144531 14.582031 30.136719 14.554688 30.136719 Z M 14.4375 29.066406 C 14.40625 29.234375 14.421875 29.40625 14.480469 29.53125 C 14.515625 29.617188 14.578125 29.679688 14.628906 29.683594 C 14.746094 29.707031 14.945312 29.507812 15.003906 29.160156 C 15.0625 28.8125 14.929688 28.5625 14.8125 28.539062 C 14.804688 28.539062 14.804688 28.539062 14.796875 28.539062 C 14.679688 28.53125 14.488281 28.722656 14.4375 29.066406 Z M 14.4375 29.066406 " fill-opacity="1" fill-rule="nonzero"/><path fill="#449dd7" d="M 34.65625 39.144531 C 35.113281 39.035156 35.34375 38.515625 35.113281 38.101562 C 34.433594 36.875 32.839844 34.703125 30.125 34.703125 C 26.339844 34.703125 8.945312 35.582031 7.421875 35.761719 C 5.898438 35.9375 2.507812 36.964844 1.242188 39.292969 C 0.0078125 41.554688 23.667969 41.820312 34.65625 39.144531 Z M 34.65625 39.144531 " fill-opacity="1" fill-rule="nonzero"/><path fill="#3c2415" d="M 5.597656 41.304688 C 1.976562 40.941406 1.148438 40.421875 0.828125 40.007812 C 0.601562 39.714844 0.570312 39.34375 0.75 39.027344 C 2.152344 36.449219 5.457031 35.308594 7.214844 35.199219 C 8.6875 35.109375 26.347656 34.140625 30.125 34.140625 C 33.113281 34.140625 34.839844 36.453125 35.601562 37.828125 C 35.792969 38.175781 35.816406 38.589844 35.652344 38.960938 C 35.492188 39.328125 35.171875 39.597656 34.78125 39.691406 C 30.050781 40.84375 22.519531 41.570312 14.636719 41.628906 C 14.304688 41.628906 13.976562 41.636719 13.644531 41.636719 C 10.578125 41.628906 7.746094 41.515625 5.597656 41.304688 Z M 7.289062 36.308594 C 5.699219 36.410156 2.996094 37.429688 1.820312 39.394531 C 2.085938 39.550781 2.972656 39.921875 5.773438 40.195312 C 8.125 40.421875 11.289062 40.535156 14.695312 40.503906 C 20.703125 40.453125 29.070312 39.929688 34.523438 38.597656 C 34.589844 38.582031 34.617188 38.53125 34.632812 38.503906 C 34.648438 38.472656 34.65625 38.421875 34.625 38.363281 C 33.976562 37.203125 32.535156 35.25 30.125 35.25 C 26.371094 35.257812 8.753906 36.21875 7.289062 36.308594 Z M 7.289062 36.308594 " fill-opacity="1" fill-rule="nonzero"/><path fill="#3c2415" d="M 32.832031 42.117188 C 33.140625 42.117188 33.386719 41.863281 33.386719 41.5625 C 33.386719 41.421875 33.332031 41.28125 33.230469 41.175781 C 33.015625 40.957031 32.667969 40.941406 32.4375 41.15625 C 32.277344 41.304688 32.222656 41.523438 32.285156 41.722656 C 32.363281 41.945312 32.578125 42.117188 32.832031 42.117188 Z M 32.832031 42.117188 " fill-opacity="1" fill-rule="nonzero"/><path fill="#449dd7" d="M 11.429688 27.777344 C 11.871094 27.5625 11.960938 26.964844 11.605469 26.625 C 10.902344 25.945312 9.226562 24.734375 6.453125 25.164062 C 2.671875 25.746094 0.445312 26.582031 1.503906 27.785156 C 2.382812 28.785156 9.367188 28.796875 11.429688 27.777344 Z M 11.429688 27.777344 " fill-opacity="1" fill-rule="nonzero"/><path fill="#3c2415" d="M 6.027344 29.09375 C 4.488281 29.09375 1.804688 28.96875 1.089844 28.148438 C 0.609375 27.601562 0.644531 27.121094 0.757812 26.808594 C 0.992188 26.152344 1.851562 25.304688 6.371094 24.609375 C 9.34375 24.148438 11.175781 25.429688 11.996094 26.226562 C 12.292969 26.515625 12.433594 26.929688 12.367188 27.34375 C 12.300781 27.75 12.042969 28.105469 11.679688 28.28125 C 10.460938 28.878906 7.976562 29.09375 6.046875 29.09375 C 6.039062 29.09375 6.03125 29.09375 6.027344 29.09375 Z M 11.183594 27.285156 C 11.242188 27.253906 11.257812 27.210938 11.265625 27.171875 C 11.273438 27.144531 11.273438 27.082031 11.222656 27.03125 C 10.546875 26.375 9.039062 25.332031 6.542969 25.714844 C 2.21875 26.382812 1.835938 27.113281 1.804688 27.195312 C 1.789062 27.230469 1.84375 27.320312 1.921875 27.417969 C 2.101562 27.601562 3.34375 27.984375 6.046875 27.984375 C 6.046875 27.984375 6.054688 27.984375 6.054688 27.984375 C 8.28125 27.976562 10.335938 27.695312 11.183594 27.285156 Z M 11.183594 27.285156 " fill-opacity="1" fill-rule="nonzero"/></svg>