<svg xmlns="http://www.w3.org/2000/svg" xmlns:xlink="http://www.w3.org/1999/xlink" width="80" zoomAndPan="magnify" viewBox="0 0 60 60" height="80" preserveAspectRatio="xMidYMid meet" version="1.0"><defs><clipPath id="dba8a24d73"><path d="M 6 6.34375 L 54 6.34375 L 54 54.34375 L 6 54.34375 Z M 6 6.34375 " clip-rule="nonzero"/></clipPath><clipPath id="a5a4fba696"><path d="M 6 6.34375 L 54 6.34375 L 54 54 L 6 54 Z M 6 6.34375 " clip-rule="nonzero"/></clipPath></defs><g clip-path="url(#dba8a24d73)"><path stroke-linecap="round" transform="matrix(0.0688362, 0, 0, 0.0693441, -13.13622, 5.470592)" fill-opacity="1" fill="#1e5d02" fill-rule="evenodd" stroke-linejoin="round" d="M 864.873966 29.153093 C 873.896741 38.560432 884.565179 52.305288 892.226026 62.782924 C 899.659885 72.978903 908.966395 87.118078 915.32206 98.046365 C 923.266642 111.678558 932.856887 130.436906 939.042311 144.914069 C 946.646411 162.658453 954.988221 187.10627 960.435934 205.639292 C 964.010996 217.806869 968.49401 234.142968 970.366662 246.704865 C 971.615096 255.379897 971.842084 267.096823 972.239313 275.884518 C 973.033771 291.995291 974.395699 313.513877 973.714735 329.62465 C 973.147265 342.242878 970.990879 358.916965 969.004733 371.309868 C 966.7916 384.885729 963.330032 402.91177 959.471235 416.093311 C 954.931474 431.866097 947.04364 452.314386 940.404239 467.298532 C 933.708092 482.282678 923.720618 501.829665 915.095072 515.799846 C 907.490972 528.080086 896.311811 543.909203 887.005301 555.006484 C 877.869032 565.878439 864.193002 579.116312 853.865046 588.86164 C 839.621546 602.268508 820.55455 620.294548 804.438399 631.391829 C 786.279355 643.953726 759.891994 657.529587 739.690058 666.486276 C 720.225833 675.104976 693.271002 684.568647 672.671837 690.145454 C 655.420745 694.820958 631.984229 699.665456 614.222414 701.524391 C 593.112526 703.721315 564.682273 703.777646 543.515638 702.313031 C 519.511652 700.679421 487.619831 696.116579 464.296809 690.145454 C 444.094873 684.962967 417.877753 675.217639 398.924251 666.598939 C 381.559665 658.712546 359.485078 645.981655 343.425673 635.785676 C 333.494946 629.532893 320.670122 620.407211 311.477106 613.084132 C 304.383729 607.507326 294.963725 599.958921 288.778301 593.36815 C 285.600468 589.931936 279.188056 580.975248 279.188056 580.975248 C 449.769574 410.798162 677.211598 183.895381 847.849863 13.718296 C 847.849863 13.718296 860.107217 24.1396 864.873966 29.153093 Z M 864.873966 29.153093 " stroke="#1e5d02" stroke-width="2" stroke-opacity="1" stroke-miterlimit="4"/></g><g clip-path="url(#a5a4fba696)"><path stroke-linecap="round" transform="matrix(0.0688362, 0, 0, 0.0693441, -13.13622, 5.470592)" fill-opacity="1" fill="#4f9f18" fill-rule="evenodd" stroke-linejoin="round" d="M 858.121072 35.011556 C 866.916859 44.19357 877.301562 57.600437 884.792168 67.852748 C 892.112532 77.823401 901.192054 91.624588 907.377478 102.271218 C 915.095072 115.565423 924.458329 133.87312 930.530259 148.012295 C 937.964118 165.306027 946.07894 189.190531 951.41316 207.272902 C 954.874727 219.158822 959.244247 235.100602 961.060152 247.380842 C 962.308586 255.830548 962.535574 267.265817 962.932803 275.828186 C 963.670514 291.54464 965.032442 312.612575 964.351478 328.329028 C 963.784008 340.609268 961.684369 356.889036 959.75497 369.000281 C 957.598584 382.238155 954.193763 399.869875 950.505207 412.76976 C 946.022193 428.091894 938.361347 448.089533 931.83544 462.679359 C 925.309534 477.325517 915.549048 496.421853 907.15049 510.054046 C 899.716632 522.052629 888.764458 537.487426 879.684936 548.30305 C 870.775656 558.94968 857.496855 571.849565 847.395887 581.369567 C 833.492869 594.438446 814.823102 612.013836 799.160926 622.885791 C 781.399112 635.166031 755.635968 648.347573 735.888008 657.135267 C 716.877759 665.528642 690.603893 674.766988 670.51545 680.231131 C 653.661588 684.793973 630.792542 689.525808 613.427956 691.328412 C 592.828791 693.469005 565.079502 693.581667 544.42359 692.117052 C 521.043821 690.483442 489.832964 686.033263 467.134159 680.231131 C 447.386199 675.161308 421.793297 665.641305 403.293771 657.24793 C 386.383161 649.530532 364.819297 637.137629 349.100375 627.166976 C 339.396636 621.026856 326.912293 612.126498 317.889518 605.028745 C 311.02313 599.564602 301.773367 592.185191 295.81493 585.763415 C 292.637098 582.439863 286.394926 573.652169 286.394926 573.652169 C 452.947407 407.530942 674.941717 186.092305 841.494197 19.971078 C 841.494197 19.971078 853.467817 30.167057 858.121072 35.011556 Z M 858.121072 35.011556 " stroke="#4f9f18" stroke-width="2" stroke-opacity="1" stroke-miterlimit="4"/></g><path stroke-linecap="round" transform="matrix(0.0688362, 0, 0, 0.0693441, -13.13622, 5.470592)" fill-opacity="1" fill="#fbfcb0" fill-rule="evenodd" stroke-linejoin="round" d="M 841.721185 49.376056 C 849.949502 57.994757 859.766735 70.669316 866.860112 80.301982 C 873.7265 89.709321 882.295299 102.721869 888.140241 112.748854 C 895.403859 125.310751 904.256393 142.548152 909.931094 155.842356 C 916.967723 172.178455 924.62857 194.711005 929.622307 211.723081 C 932.913634 222.933025 936.999419 237.973502 938.758576 249.521434 C 939.950263 257.520489 940.120504 268.336113 940.517733 276.3915 C 941.198697 291.206652 942.503879 311.035296 941.822915 325.850448 C 941.312191 337.454711 939.326046 352.776845 937.510142 364.212115 C 935.467249 376.661349 932.289417 393.279104 928.771102 405.446681 C 924.571823 419.923845 917.308205 438.738524 911.179528 452.539711 C 905.050851 466.340898 895.801088 484.254276 887.913253 497.154161 C 880.933371 508.476767 870.605415 523.010262 862.036616 533.206241 C 853.638058 543.233226 841.096968 555.400803 831.56347 564.357492 C 818.454911 576.694063 800.920084 593.311819 786.109114 603.507798 C 769.368745 615.112061 745.081024 627.561295 726.524751 635.785676 C 708.592695 643.7284 683.794251 652.459763 664.840749 657.585918 C 649.008333 661.867103 627.387721 666.317282 611.044582 668.007223 C 591.637104 670.035152 565.476731 670.147815 546.012506 668.795862 C 523.937918 667.218584 494.542966 663.050062 473.092596 657.585918 C 454.536323 652.797752 430.418843 643.841063 412.940763 635.898339 C 396.994853 628.631591 376.679422 616.970997 361.868452 607.563657 C 352.732183 601.761525 340.985552 593.36815 332.4735 586.664717 C 325.947594 581.538561 317.265301 574.609802 311.647347 568.526014 C 308.639755 565.371457 302.738066 557.090744 302.738066 557.090744 C 459.757048 400.545852 669.040028 191.781774 826.002263 35.18055 C 826.002263 35.18055 837.294919 44.756884 841.721185 49.376056 Z M 841.721185 49.376056 " stroke="#fbfcb0" stroke-width="2" stroke-opacity="1" stroke-miterlimit="4"/><path stroke-linecap="round" transform="matrix(0.0688362, 0, 0, 0.0693441, -13.13622, 5.470592)" fill-opacity="1" fill="#ff0302" fill-rule="evenodd" stroke-linejoin="round" d="M 836.897689 53.657241 C 845.012512 62.163279 854.659504 74.612513 861.639387 84.076184 C 868.392281 93.314529 876.790839 106.101752 882.522287 116.016074 C 889.672411 128.352645 898.41145 145.308389 904.029405 158.377268 C 910.895793 174.43171 918.443146 196.569941 923.323389 213.300359 C 926.557968 224.341309 930.643753 239.156461 932.289417 250.479067 C 933.481104 258.36546 933.651345 268.955758 934.048574 276.898482 C 934.729538 291.488309 935.977972 310.978965 935.353755 325.568791 C 934.843032 336.947729 932.913634 352.044537 931.097729 363.254481 C 929.111584 375.534721 925.933751 391.87082 922.472183 403.813072 C 918.386399 418.06491 911.236275 436.541601 905.221092 450.117462 C 899.149162 463.693324 890.126387 481.325044 882.295299 493.999604 C 875.428911 505.096885 865.327942 519.405054 856.872638 529.432039 C 848.644321 539.29003 836.273472 551.288613 826.910215 560.076307 C 814.028644 572.243884 796.777552 588.523652 782.19357 598.606968 C 765.736936 609.985906 741.903191 622.209815 723.573907 630.321533 C 705.982333 638.151594 681.581118 646.713963 662.968098 651.727455 C 647.362669 655.952309 626.139287 660.346156 610.079883 662.036097 C 590.95614 664.007695 565.249743 664.120358 546.126 662.768405 C 524.391895 661.247458 495.507665 657.135267 474.454524 651.727455 C 456.125239 647.051951 432.404988 638.207925 415.267391 630.434195 C 399.548468 623.280111 379.57352 611.78851 365.046285 602.606496 C 356.02351 596.860696 344.44712 588.636315 336.105309 582.045544 C 329.692897 576.97572 321.180845 570.159624 315.619638 564.188498 C 312.72554 561.090272 306.937345 552.978554 306.937345 552.978554 C 461.289217 398.968573 667.11063 193.697041 821.462502 39.68706 C 821.462502 39.68706 832.584917 49.150731 836.897689 53.657241 Z M 836.897689 53.657241 " stroke="#ff0302" stroke-width="2" stroke-opacity="1" stroke-miterlimit="4"/><path fill="#0a0605" d="M 40.070312 16.605469 C 40.046875 16.59375 40.019531 16.566406 40 16.550781 C 40 16.550781 39.992188 16.214844 40.027344 16.074219 C 40.117188 15.714844 40.359375 15.257812 40.605469 14.980469 C 40.742188 14.832031 40.96875 14.671875 41.152344 14.589844 C 41.324219 14.507812 41.574219 14.429688 41.765625 14.433594 C 42.011719 14.441406 42.34375 14.535156 42.542969 14.679688 C 42.597656 14.71875 42.648438 14.800781 42.6875 14.859375 C 42.75 14.953125 42.8125 15.089844 42.851562 15.195312 C 42.863281 15.234375 42.871094 15.289062 42.882812 15.328125 C 42.867188 15.496094 42.890625 15.734375 42.828125 15.890625 C 42.734375 16.117188 42.507812 16.386719 42.304688 16.519531 C 41.972656 16.730469 41.429688 16.828125 41.035156 16.828125 C 40.738281 16.828125 40.335938 16.738281 40.070312 16.605469 M 42.882812 15.328125 Z M 42.882812 15.328125 " fill-opacity="1" fill-rule="evenodd"/><path stroke-linecap="round" transform="matrix(0.0688362, 0, 0, 0.0693441, -13.13622, 5.470592)" fill="none" stroke-linejoin="round" d="M 771.922361 159.785553 C 772.206096 160.010878 772.603325 160.405198 772.943807 160.574192 C 776.802604 162.489459 782.647546 163.78508 786.960319 163.78508 C 792.691767 163.78508 800.579602 162.376796 805.403098 159.334902 C 808.353942 157.419635 811.645269 153.53277 813.007197 150.26555 C 813.91515 148.012295 813.574668 144.576081 813.801656 142.153832 C 813.631415 141.590518 813.51792 140.801879 813.347679 140.238565 C 812.780209 138.717618 811.872257 136.74602 810.964305 135.394067 C 810.396835 134.549096 809.659124 133.366137 808.864666 132.802824 C 805.970568 130.718563 801.147072 129.36661 797.57201 129.253947 C 794.791407 129.197616 791.159598 130.324243 788.662729 131.507202 C 785.99562 132.690161 782.704293 134.999747 780.718148 137.14034 C 777.143086 141.139867 773.624771 147.730638 772.31959 152.913125 C 771.808867 154.941054 771.922361 159.785553 771.922361 159.785553 " stroke="#0a0605" stroke-width="2" stroke-opacity="1" stroke-miterlimit="4"/><path stroke-linecap="round" transform="matrix(0.0688362, 0, 0, 0.0693441, -13.13622, 5.470592)" fill="none" stroke-linejoin="round" d="M 795.529118 133.985783 C 795.529118 133.985783 800.522855 134.267439 802.565747 134.999747 C 803.870928 135.50673 805.459845 136.577026 806.481291 137.534659 C 807.672978 138.548624 809.829365 141.590518 809.829365 141.590518 " stroke="#213335" stroke-width="5" stroke-opacity="1" stroke-miterlimit="4"/><path fill="#0a0605" d="M 42.515625 21.980469 C 42.5 21.960938 42.484375 21.929688 42.46875 21.90625 C 42.46875 21.90625 42.585938 21.589844 42.671875 21.472656 C 42.890625 21.175781 43.285156 20.84375 43.617188 20.679688 C 43.796875 20.589844 44.066406 20.527344 44.265625 20.519531 C 44.457031 20.511719 44.71875 20.53125 44.894531 20.609375 C 45.121094 20.707031 45.394531 20.921875 45.523438 21.128906 C 45.558594 21.1875 45.578125 21.28125 45.589844 21.347656 C 45.613281 21.460938 45.621094 21.609375 45.617188 21.722656 C 45.617188 21.765625 45.601562 21.816406 45.597656 21.859375 C 45.519531 22.007812 45.453125 22.238281 45.335938 22.359375 C 45.167969 22.535156 44.859375 22.699219 44.617188 22.746094 C 44.234375 22.816406 43.691406 22.699219 43.328125 22.554688 C 43.054688 22.441406 42.714844 22.207031 42.515625 21.980469 M 45.597656 21.859375 Z M 45.597656 21.859375 " fill-opacity="1" fill-rule="evenodd"/><path stroke-linecap="round" transform="matrix(0.0688362, 0, 0, 0.0693441, -13.13622, 5.470592)" fill="none" stroke-linejoin="round" d="M 807.786472 237.015868 C 808.01346 237.353857 808.240448 237.804508 808.467436 238.086165 C 811.361534 241.353384 816.298524 244.733267 820.270815 246.366877 C 825.548287 248.451138 833.436122 250.141079 838.997329 249.127114 C 842.515644 248.451138 846.998658 246.08522 849.438779 243.550308 C 851.141189 241.804035 852.105889 238.480484 853.240829 236.339892 C 853.297576 235.720247 853.524564 234.987939 853.524564 234.368294 C 853.581311 232.734684 853.467817 230.594092 853.127335 228.960482 C 852.957094 228.002848 852.673359 226.650895 852.162636 225.805925 C 850.289984 222.820362 846.317693 219.722136 843.026367 218.313852 C 840.472751 217.187224 836.670701 216.905567 833.890098 217.01823 C 830.996 217.130893 827.080456 218.032195 824.470094 219.327817 C 819.646598 221.693734 813.91515 226.481901 810.737317 230.763086 C 809.488883 232.453027 807.786472 237.015868 807.786472 237.015868 " stroke="#0a0605" stroke-width="2" stroke-opacity="1" stroke-miterlimit="4"/><path stroke-linecap="round" transform="matrix(0.0688362, 0, 0, 0.0693441, -13.13622, 5.470592)" fill="none" stroke-linejoin="round" d="M 839.337811 221.91906 C 839.337811 221.91906 843.934319 224.059652 845.466488 225.524268 C 846.487934 226.481901 847.566128 228.05918 848.247092 229.29847 C 848.928056 230.706754 849.779261 234.311962 849.779261 234.311962 " stroke="#213335" stroke-width="5" stroke-opacity="1" stroke-miterlimit="4"/><path fill="#0a0605" d="M 42.84375 28.15625 C 42.832031 28.132812 42.828125 28.097656 42.820312 28.070312 C 42.820312 28.070312 43.023438 27.800781 43.140625 27.714844 C 43.4375 27.496094 43.910156 27.296875 44.273438 27.238281 C 44.472656 27.207031 44.746094 27.226562 44.941406 27.277344 C 45.128906 27.324219 45.371094 27.425781 45.515625 27.550781 C 45.703125 27.707031 45.902344 27.996094 45.964844 28.234375 C 45.984375 28.300781 45.972656 28.394531 45.964844 28.464844 C 45.953125 28.574219 45.917969 28.722656 45.882812 28.828125 C 45.867188 28.867188 45.839844 28.914062 45.824219 28.953125 C 45.703125 29.074219 45.574219 29.273438 45.429688 29.355469 C 45.214844 29.472656 44.871094 29.535156 44.628906 29.507812 C 44.238281 29.464844 43.753906 29.191406 43.453125 28.945312 C 43.222656 28.753906 42.964844 28.429688 42.84375 28.15625 M 45.824219 28.953125 Z M 45.824219 28.953125 " fill-opacity="1" fill-rule="evenodd"/><path stroke-linecap="round" transform="matrix(0.0688362, 0, 0, 0.0693441, -13.13622, 5.470592)" fill="none" stroke-linejoin="round" d="M 812.893703 325.906779 C 813.007197 326.301099 813.063944 326.808081 813.234185 327.146069 C 814.993343 331.089266 818.738646 335.76477 822.086719 338.525007 C 826.456239 342.073884 833.492869 346.01708 839.16757 346.636725 C 842.685885 347.031045 847.679622 346.129743 850.800707 344.439802 C 852.900347 343.256843 854.772998 340.383943 856.532156 338.63767 C 856.759144 338.074356 857.156373 337.39838 857.383361 336.835066 C 857.894084 335.314119 858.404807 333.173527 858.575048 331.596248 C 858.688542 330.582283 858.858783 329.23033 858.575048 328.272697 C 857.667096 324.836483 854.772998 320.667961 852.049142 318.414706 C 849.949502 316.612102 846.431187 315.147486 843.707331 314.47151 C 840.86998 313.739202 836.897689 313.457545 834.003592 313.908196 C 828.72612 314.753167 821.859731 317.626067 817.546958 320.780624 C 815.844548 322.019914 812.893703 325.906779 812.893703 325.906779 " stroke="#0a0605" stroke-width="2" stroke-opacity="1" stroke-miterlimit="4"/><path stroke-linecap="round" transform="matrix(0.0688362, 0, 0, 0.0693441, -13.13622, 5.470592)" fill="none" stroke-linejoin="round" d="M 847.509381 320.724293 C 847.509381 320.724293 851.197936 324.160506 852.27613 326.019442 C 853.013841 327.202401 853.581311 329.061336 853.808299 330.413289 C 854.035287 331.990568 853.808299 335.652107 853.808299 335.652107 " stroke="#213335" stroke-width="5" stroke-opacity="1" stroke-miterlimit="4"/><path fill="#0a0605" d="M 41.054688 33.914062 C 41.050781 33.886719 41.058594 33.851562 41.058594 33.824219 C 41.058594 33.824219 41.335938 33.628906 41.472656 33.582031 C 41.820312 33.464844 42.332031 33.417969 42.695312 33.476562 C 42.894531 33.507812 43.152344 33.609375 43.320312 33.71875 C 43.480469 33.820312 43.6875 33.988281 43.785156 34.152344 C 43.914062 34.363281 44.019531 34.695312 44.007812 34.941406 C 44.003906 35.011719 43.964844 35.097656 43.9375 35.160156 C 43.894531 35.265625 43.816406 35.394531 43.746094 35.484375 C 43.722656 35.515625 43.683594 35.554688 43.652344 35.582031 C 43.503906 35.660156 43.320312 35.8125 43.15625 35.84375 C 42.917969 35.890625 42.570312 35.847656 42.347656 35.746094 C 41.992188 35.585938 41.613281 35.175781 41.398438 34.847656 C 41.234375 34.597656 41.089844 34.210938 41.054688 33.914062 M 43.652344 35.582031 Z M 43.652344 35.582031 " fill-opacity="1" fill-rule="evenodd"/><path stroke-linecap="round" transform="matrix(0.0688362, 0, 0, 0.0693441, -13.13622, 5.470592)" fill="none" stroke-linejoin="round" d="M 787.300801 408.882895 C 787.300801 409.277215 787.187307 409.784197 787.244054 410.178517 C 787.754777 414.459702 789.854417 420.036508 792.237791 423.641716 C 795.358877 428.373551 800.863337 434.288346 806.027315 436.597932 C 809.261895 438.062548 814.312379 438.682193 817.773946 438.006217 C 820.157321 437.555566 822.82443 435.358642 824.980817 434.232014 C 825.434793 433.837695 826.002263 433.274381 826.342745 432.82373 C 827.364191 431.528108 828.499132 429.669173 829.123349 428.148226 C 829.520578 427.246924 830.088048 426.007634 830.144795 424.993669 C 830.315036 421.444792 828.782867 416.656625 826.910215 413.614731 C 825.49154 411.248813 822.483948 408.826564 820.157321 407.361948 C 817.717199 405.78467 813.971897 404.320054 811.077799 403.869403 C 805.800327 403.024432 798.366468 403.700409 793.315984 405.39035 C 791.329839 406.066327 787.300801 408.882895 787.300801 408.882895 " stroke="#0a0605" stroke-width="2" stroke-opacity="1" stroke-miterlimit="4"/><path stroke-linecap="round" transform="matrix(0.0688362, 0, 0, 0.0693441, -13.13622, 5.470592)" fill="none" stroke-linejoin="round" d="M 821.859731 414.459702 C 821.859731 414.459702 824.3566 418.853549 824.810576 420.93781 C 825.094311 422.289763 825.094311 424.20503 824.92407 425.613314 C 824.697082 427.134261 823.335154 430.570475 823.335154 430.570475 " stroke="#213335" stroke-width="5" stroke-opacity="1" stroke-miterlimit="4"/><path fill="#0a0605" d="M 37.667969 38.640625 C 37.679688 38.617188 37.699219 38.585938 37.714844 38.5625 C 37.714844 38.5625 38.046875 38.519531 38.1875 38.542969 C 38.550781 38.597656 39.027344 38.792969 39.324219 39.011719 C 39.488281 39.132812 39.667969 39.34375 39.769531 39.519531 C 39.867188 39.683594 39.96875 39.929688 39.984375 40.121094 C 40.003906 40.363281 39.945312 40.710938 39.820312 40.921875 C 39.785156 40.980469 39.714844 41.042969 39.660156 41.085938 C 39.574219 41.15625 39.445312 41.234375 39.34375 41.28125 C 39.308594 41.300781 39.253906 41.316406 39.214844 41.328125 C 39.046875 41.328125 38.816406 41.378906 38.652344 41.332031 C 38.417969 41.261719 38.132812 41.0625 37.980469 40.871094 C 37.738281 40.5625 37.585938 40.023438 37.546875 39.632812 C 37.515625 39.335938 37.5625 38.921875 37.667969 38.640625 M 39.214844 41.328125 Z M 39.214844 41.328125 " fill-opacity="1" fill-rule="evenodd"/><path stroke-linecap="round" transform="matrix(0.0688362, 0, 0, 0.0693441, -13.13622, 5.470592)" fill="none" stroke-linejoin="round" d="M 738.725359 477.212854 C 738.498371 477.550842 738.214636 478.001493 738.044395 478.339481 C 736.512225 482.39534 735.831261 488.366466 736.285237 492.647651 C 736.852707 498.280788 739.065841 506.054518 742.584156 510.504697 C 744.797289 513.264934 748.939821 516.137834 752.344642 517.151799 C 754.728016 517.827776 758.07609 517.095468 760.516211 517.095468 C 761.083681 516.926474 761.87814 516.701148 762.388863 516.419491 C 763.864285 515.743515 765.736936 514.616887 766.985371 513.602923 C 767.779829 512.983277 768.801275 512.081975 769.311998 511.237005 C 771.127903 508.19511 771.979108 503.181618 771.695373 499.689073 C 771.468385 496.928835 769.992962 493.379959 768.574287 491.014041 C 767.098865 488.479129 764.488502 485.437235 762.105128 483.690962 C 757.792355 480.536405 750.869219 477.719836 745.591747 476.931197 C 743.548855 476.593209 738.725359 477.212854 738.725359 477.212854 " stroke="#0a0605" stroke-width="2" stroke-opacity="1" stroke-miterlimit="4"/><path stroke-linecap="round" transform="matrix(0.0688362, 0, 0, 0.0693441, -13.13622, 5.470592)" fill="none" stroke-linejoin="round" d="M 766.81513 498.111794 C 766.81513 498.111794 767.042118 503.125287 766.474648 505.209548 C 766.134166 506.561501 765.226213 508.251442 764.375008 509.378069 C 763.467056 510.673691 760.686452 513.09594 760.686452 513.09594 " stroke="#213335" stroke-width="5" stroke-opacity="1" stroke-miterlimit="4"/><path fill="#0a0605" d="M 32.710938 41.925781 C 32.726562 41.90625 32.757812 41.886719 32.777344 41.871094 C 32.777344 41.871094 33.105469 41.945312 33.230469 42.015625 C 33.554688 42.191406 33.933594 42.539062 34.136719 42.847656 C 34.25 43.019531 34.347656 43.277344 34.382812 43.476562 C 34.417969 43.667969 34.429688 43.933594 34.378906 44.117188 C 34.3125 44.355469 34.140625 44.65625 33.953125 44.8125 C 33.898438 44.859375 33.808594 44.890625 33.746094 44.910156 C 33.640625 44.949219 33.492188 44.976562 33.382812 44.988281 C 33.339844 44.992188 33.285156 44.988281 33.246094 44.984375 C 33.085938 44.929688 32.851562 44.894531 32.714844 44.792969 C 32.519531 44.648438 32.320312 44.359375 32.242188 44.128906 C 32.117188 43.753906 32.160156 43.195312 32.257812 42.816406 C 32.332031 42.523438 32.515625 42.152344 32.710938 41.925781 M 33.246094 44.984375 Z M 33.246094 44.984375 " fill-opacity="1" fill-rule="evenodd"/><path stroke-linecap="round" transform="matrix(0.0688362, 0, 0, 0.0693441, -13.13622, 5.470592)" fill="none" stroke-linejoin="round" d="M 666.997136 524.925529 C 666.713401 525.150855 666.259424 525.432511 666.032436 525.714168 C 663.195086 528.981388 660.527976 534.332869 659.449783 538.557722 C 658.031108 544.021865 657.406891 552.077252 659.222795 557.485064 C 660.357735 560.808615 663.251833 564.977137 666.089183 567.061398 C 668.075329 568.526014 671.48015 569.032996 673.806777 569.821635 C 674.374247 569.877967 675.168705 569.934298 675.792922 569.877967 C 677.381839 569.708973 679.538225 569.314653 681.070395 568.751339 C 681.978347 568.469682 683.283528 568.019031 684.077986 567.343055 C 686.801843 565.0898 689.298711 560.752284 690.263411 557.31607 C 691.001122 554.668495 690.830881 550.837962 690.320158 548.077724 C 689.809434 545.204824 688.390759 541.486953 686.745096 539.008373 C 683.794251 534.558194 678.289791 529.544702 673.579789 527.00979 C 671.763885 525.995825 666.997136 524.925529 666.997136 524.925529 " stroke="#0a0605" stroke-width="2" stroke-opacity="1" stroke-miterlimit="4"/><path stroke-linecap="round" transform="matrix(0.0688362, 0, 0, 0.0693441, -13.13622, 5.470592)" fill="none" stroke-linejoin="round" d="M 686.234373 554.161513 C 686.234373 554.161513 684.702203 558.94968 683.453769 560.695953 C 682.659311 561.82258 681.240636 563.118202 680.048948 563.906841 C 678.800514 564.808143 675.338946 566.103765 675.338946 566.103765 " stroke="#213335" stroke-width="5" stroke-opacity="1" stroke-miterlimit="4"/><path fill="#0a0605" d="M 26.875 43.457031 C 26.898438 43.441406 26.933594 43.433594 26.960938 43.425781 C 26.960938 43.425781 27.242188 43.609375 27.335938 43.71875 C 27.578125 44 27.816406 44.457031 27.902344 44.816406 C 27.949219 45.015625 27.953125 45.292969 27.917969 45.492188 C 27.886719 45.679688 27.808594 45.933594 27.695312 46.089844 C 27.554688 46.289062 27.285156 46.515625 27.058594 46.597656 C 26.992188 46.621094 26.898438 46.617188 26.828125 46.617188 C 26.71875 46.613281 26.570312 46.59375 26.460938 46.5625 C 26.421875 46.550781 26.371094 46.527344 26.335938 46.511719 C 26.203125 46.40625 25.996094 46.292969 25.902344 46.148438 C 25.769531 45.945312 25.679688 45.605469 25.6875 45.359375 C 25.699219 44.964844 25.925781 44.457031 26.148438 44.132812 C 26.316406 43.886719 26.617188 43.601562 26.875 43.457031 M 26.335938 46.511719 Z M 26.335938 46.511719 " fill-opacity="1" fill-rule="evenodd"/><path stroke-linecap="round" transform="matrix(0.0688362, 0, 0, 0.0693441, -13.13622, 5.470592)" fill="none" stroke-linejoin="round" d="M 582.500835 547.345416 C 582.103606 547.458079 581.592883 547.570742 581.252401 547.796067 C 577.507098 549.880328 573.137578 553.992519 570.697456 557.541395 C 567.462877 562.2169 564.17155 569.539978 564.001309 575.229447 C 563.887815 578.778324 565.192996 583.679154 567.122395 586.608385 C 568.484323 588.692646 571.491914 590.326256 573.421313 591.847203 C 573.932036 592.072529 574.669747 592.410517 575.237217 592.579511 C 576.826134 593.030162 578.98252 593.311819 580.571436 593.36815 C 581.592883 593.36815 582.954811 593.424482 583.91951 593.086493 C 587.210837 591.903535 591.126381 588.636315 593.169273 585.763415 C 594.814936 583.51016 595.949877 579.84862 596.403853 577.144714 C 596.914576 574.271814 596.857829 570.272286 596.176865 567.399386 C 594.92843 562.2169 591.466863 555.626129 587.948548 551.57027 C 586.58662 549.992991 582.500835 547.345416 582.500835 547.345416 " stroke="#0a0605" stroke-width="2" stroke-opacity="1" stroke-miterlimit="4"/><path stroke-linecap="round" transform="matrix(0.0688362, 0, 0, 0.0693441, -13.13622, 5.470592)" fill="none" stroke-linejoin="round" d="M 590.445416 581.425899 C 590.445416 581.425899 587.381078 585.425426 585.62192 586.608385 C 584.48698 587.397025 582.727823 588.129332 581.365895 588.467321 C 579.833725 588.86164 576.145169 588.917972 576.145169 588.917972 " stroke="#213335" stroke-width="5" stroke-opacity="1" stroke-miterlimit="4"/><path fill="#0a0605" d="M 21.023438 42.808594 C 21.050781 42.804688 21.085938 42.8125 21.113281 42.8125 C 21.113281 42.8125 21.300781 43.09375 21.34375 43.230469 C 21.453125 43.585938 21.492188 44.101562 21.433594 44.464844 C 21.398438 44.667969 21.289062 44.921875 21.179688 45.09375 C 21.078125 45.253906 20.90625 45.457031 20.742188 45.554688 C 20.53125 45.679688 20.199219 45.78125 19.957031 45.765625 C 19.886719 45.761719 19.800781 45.722656 19.738281 45.691406 C 19.636719 45.644531 19.511719 45.566406 19.421875 45.496094 C 19.390625 45.46875 19.355469 45.429688 19.324219 45.398438 C 19.25 45.25 19.101562 45.0625 19.070312 44.894531 C 19.027344 44.652344 19.078125 44.304688 19.183594 44.082031 C 19.347656 43.726562 19.757812 43.347656 20.089844 43.140625 C 20.339844 42.980469 20.726562 42.839844 21.023438 42.808594 M 19.324219 45.398438 Z M 19.324219 45.398438 " fill-opacity="1" fill-rule="evenodd"/><path stroke-linecap="round" transform="matrix(0.0688362, 0, 0, 0.0693441, -13.13622, 5.470592)" fill="none" stroke-linejoin="round" d="M 497.550558 538.501391 C 497.153329 538.501391 496.642606 538.388728 496.245377 538.445059 C 491.932604 538.89571 486.31465 540.92364 482.682841 543.233226 C 477.859345 546.218789 471.900909 551.682932 469.517534 556.809088 C 467.985365 560.019976 467.247654 565.033468 467.871871 568.526014 C 468.325847 570.948263 470.482233 573.652169 471.560426 575.792761 C 472.014403 576.243412 472.525126 576.806726 472.979102 577.201046 C 474.284283 578.21501 476.100187 579.341638 477.57561 580.017614 C 478.483562 580.468265 479.731996 581.031579 480.753442 581.08791 C 484.271757 581.313236 489.095253 579.84862 492.159592 578.046016 C 494.542966 576.637732 497.039835 573.7085 498.515257 571.398914 C 500.104173 568.920333 501.69309 565.258794 502.203813 562.329562 C 503.055018 557.090744 502.487548 549.655003 500.898632 544.528848 C 500.274414 542.55725 497.550558 538.501391 497.550558 538.501391 " stroke="#0a0605" stroke-width="2" stroke-opacity="1" stroke-miterlimit="4"/><path stroke-linecap="round" transform="matrix(0.0688362, 0, 0, 0.0693441, -13.13622, 5.470592)" fill="none" stroke-linejoin="round" d="M 491.365134 572.976192 C 491.365134 572.976192 486.995614 575.398442 484.895974 575.849093 C 483.534046 576.130749 481.604648 576.074418 480.185972 575.849093 C 478.653803 575.567436 475.248982 574.159151 475.248982 574.159151 " stroke="#213335" stroke-width="5" stroke-opacity="1" stroke-miterlimit="4"/><path fill="#0a0605" d="M 15.578125 40.210938 C 15.601562 40.21875 15.632812 40.238281 15.660156 40.25 C 15.660156 40.25 15.742188 40.578125 15.738281 40.71875 C 15.726562 41.089844 15.59375 41.589844 15.414062 41.914062 C 15.3125 42.089844 15.128906 42.296875 14.96875 42.421875 C 14.816406 42.535156 14.589844 42.667969 14.402344 42.707031 C 14.164062 42.757812 13.816406 42.738281 13.589844 42.640625 C 13.527344 42.613281 13.460938 42.546875 13.410156 42.5 C 13.332031 42.421875 13.238281 42.304688 13.179688 42.207031 C 13.15625 42.171875 13.136719 42.121094 13.117188 42.085938 C 13.097656 41.917969 13.019531 41.691406 13.046875 41.523438 C 13.085938 41.28125 13.25 40.96875 13.421875 40.792969 C 13.695312 40.515625 14.207031 40.296875 14.585938 40.210938 C 14.875 40.144531 15.289062 40.140625 15.578125 40.210938 M 13.117188 42.085938 Z M 13.117188 42.085938 " fill-opacity="1" fill-rule="evenodd"/><path stroke-linecap="round" transform="matrix(0.0688362, 0, 0, 0.0693441, -13.13622, 5.470592)" fill="none" stroke-linejoin="round" d="M 418.331729 501.548008 C 417.9345 501.379014 417.480524 501.097357 417.140042 500.984694 C 412.940763 499.97073 406.92558 500.027061 402.726301 500.984694 C 397.221841 502.223985 389.787982 505.378542 385.815691 509.378069 C 383.318823 511.912981 380.935448 516.419491 380.367978 519.912037 C 379.970749 522.334286 381.105689 525.601506 381.389424 528.023755 C 381.673159 528.530737 381.956895 529.263045 382.297377 529.770027 C 383.148582 531.178312 384.51051 532.868253 385.64545 533.99488 C 386.383161 534.670857 387.347861 535.62849 388.255813 536.02281 C 391.54714 537.431094 396.597624 537.712751 400.059191 536.980443 C 402.783048 536.41713 406.074375 534.501863 408.287508 532.868253 C 410.614136 531.065649 413.281245 528.080086 414.756667 525.545174 C 417.36703 520.86967 419.296428 513.659254 419.466669 508.307773 C 419.523416 506.279844 418.331729 501.548008 418.331729 501.548008 " stroke="#0a0605" stroke-width="2" stroke-opacity="1" stroke-miterlimit="4"/><path stroke-linecap="round" transform="matrix(0.0688362, 0, 0, 0.0693441, -13.13622, 5.470592)" fill="none" stroke-linejoin="round" d="M 401.023891 531.966951 C 401.023891 531.966951 396.030154 532.75559 393.930514 532.473933 C 392.568586 532.248608 390.752681 531.572631 389.504247 530.896655 C 388.142319 530.164347 385.418462 527.685766 385.418462 527.685766 " stroke="#213335" stroke-width="5" stroke-opacity="1" stroke-miterlimit="4"/><path fill="#0a0605" d="M 20.714844 33.957031 C 20.738281 33.953125 20.769531 33.960938 20.792969 33.960938 C 20.792969 33.960938 20.953125 34.203125 20.988281 34.324219 C 21.085938 34.628906 21.117188 35.074219 21.0625 35.390625 C 21.03125 35.5625 20.9375 35.78125 20.839844 35.929688 C 20.75 36.066406 20.601562 36.242188 20.460938 36.328125 C 20.28125 36.433594 19.992188 36.519531 19.78125 36.503906 C 19.722656 36.5 19.648438 36.464844 19.59375 36.441406 C 19.507812 36.398438 19.398438 36.328125 19.320312 36.269531 C 19.292969 36.246094 19.261719 36.210938 19.238281 36.1875 C 19.171875 36.054688 19.046875 35.890625 19.023438 35.75 C 18.984375 35.539062 19.03125 35.238281 19.121094 35.046875 C 19.265625 34.738281 19.621094 34.417969 19.90625 34.238281 C 20.125 34.101562 20.460938 33.980469 20.714844 33.957031 M 19.238281 36.1875 Z M 19.238281 36.1875 " fill-opacity="1" fill-rule="evenodd"/><path stroke-linecap="round" transform="matrix(0.0688362, 0, 0, 0.0693441, -13.13622, 5.470592)" fill="none" stroke-linejoin="round" d="M 492.897303 410.854493 C 492.556821 410.854493 492.102845 410.741831 491.762363 410.798162 C 488.073807 411.13615 483.193564 412.882423 480.015731 414.854021 C 475.873199 417.445264 470.709221 422.064437 468.609582 426.514616 C 467.304401 429.274853 466.623436 433.612369 467.190907 436.654264 C 467.531389 438.682193 469.347293 441.048111 470.311992 442.963378 C 470.652474 443.301366 471.10645 443.808348 471.503679 444.146336 C 472.63862 444.991307 474.227536 446.005272 475.47597 446.624917 C 476.270428 446.962905 477.348622 447.469888 478.199827 447.526219 C 481.264165 447.751544 485.463444 446.512254 488.073807 444.991307 C 490.116699 443.752017 492.273086 441.217105 493.578267 439.245507 C 494.996942 437.104915 496.358871 433.950357 496.812847 431.471777 C 497.607305 426.908936 497.153329 420.487159 495.734654 416.093311 C 495.22393 414.347039 492.897303 410.854493 492.897303 410.854493 " stroke="#0a0605" stroke-width="2" stroke-opacity="1" stroke-miterlimit="4"/><path stroke-linecap="round" transform="matrix(0.0688362, 0, 0, 0.0693441, -13.13622, 5.470592)" fill="none" stroke-linejoin="round" d="M 487.44959 440.59746 C 487.44959 440.59746 483.590793 442.681721 481.831636 443.019709 C 480.639948 443.245034 478.937538 443.188703 477.745851 443.019709 C 476.440669 442.794383 473.489825 441.555093 473.489825 441.555093 " stroke="#213335" stroke-width="5" stroke-opacity="1" stroke-miterlimit="4"/><path fill="#0a0605" d="M 26.410156 35.367188 C 26.429688 35.355469 26.457031 35.347656 26.480469 35.335938 C 26.480469 35.335938 26.734375 35.476562 26.824219 35.5625 C 27.050781 35.789062 27.285156 36.167969 27.382812 36.472656 C 27.4375 36.636719 27.457031 36.878906 27.4375 37.050781 C 27.425781 37.21875 27.375 37.441406 27.289062 37.582031 C 27.179688 37.761719 26.960938 37.972656 26.769531 38.0625 C 26.714844 38.085938 26.632812 38.089844 26.574219 38.09375 C 26.476562 38.097656 26.347656 38.085938 26.253906 38.070312 C 26.21875 38.0625 26.175781 38.046875 26.140625 38.035156 C 26.023438 37.949219 25.835938 37.867188 25.746094 37.75 C 25.617188 37.582031 25.519531 37.296875 25.507812 37.085938 C 25.492188 36.746094 25.65625 36.292969 25.828125 36 C 25.957031 35.773438 26.195312 35.511719 26.410156 35.367188 M 26.140625 38.035156 Z M 26.140625 38.035156 " fill-opacity="1" fill-rule="evenodd"/><path stroke-linecap="round" transform="matrix(0.0688362, 0, 0, 0.0693441, -13.13622, 5.470592)" fill="none" stroke-linejoin="round" d="M 575.520952 430.683138 C 575.18047 430.852132 574.783241 430.964795 574.499506 431.133789 C 571.37842 433.21805 567.916853 436.992252 566.044201 440.259472 C 563.547333 444.484325 561.163958 451.018764 561.390946 455.919594 C 561.561187 458.961488 562.979863 463.073679 564.852514 465.495928 C 566.157695 467.185869 568.881552 468.368828 570.583962 469.608118 C 571.094685 469.777112 571.718903 470.002438 572.229626 470.115101 C 573.591554 470.340426 575.464205 470.50942 576.882881 470.453089 C 577.734086 470.396757 578.925773 470.340426 579.720231 470.002438 C 582.500835 468.706816 585.678667 465.664922 587.267584 463.073679 C 588.516018 461.045749 589.253729 457.834861 589.42397 455.412612 C 589.707705 452.934031 589.42397 449.441486 588.629512 447.075568 C 587.210837 442.681721 583.806016 437.217577 580.514689 433.950357 C 579.209508 432.711067 575.520952 430.683138 575.520952 430.683138 " stroke="#0a0605" stroke-width="2" stroke-opacity="1" stroke-miterlimit="4"/><path stroke-linecap="round" transform="matrix(0.0688362, 0, 0, 0.0693441, -13.13622, 5.470592)" fill="none" stroke-linejoin="round" d="M 584.600474 459.524802 C 584.600474 459.524802 582.2171 463.13001 580.798424 464.312969 C 579.833725 465.045277 578.358303 465.777585 577.223363 466.171904 C 575.918181 466.622555 572.740349 466.904212 572.740349 466.904212 " stroke="#213335" stroke-width="5" stroke-opacity="1" stroke-miterlimit="4"/><path fill="#0a0605" d="M 31.589844 33.246094 C 31.59375 33.226562 31.613281 33.199219 31.621094 33.179688 C 31.621094 33.179688 31.90625 33.117188 32.027344 33.128906 C 32.347656 33.152344 32.769531 33.289062 33.039062 33.460938 C 33.183594 33.550781 33.355469 33.722656 33.453125 33.867188 C 33.546875 34.003906 33.652344 34.207031 33.675781 34.371094 C 33.707031 34.582031 33.679688 34.882812 33.585938 35.074219 C 33.558594 35.125 33.5 35.183594 33.457031 35.222656 C 33.386719 35.289062 33.28125 35.367188 33.199219 35.414062 C 33.167969 35.429688 33.121094 35.449219 33.089844 35.460938 C 32.945312 35.472656 32.75 35.53125 32.605469 35.5 C 32.402344 35.457031 32.140625 35.300781 32 35.144531 C 31.769531 34.894531 31.605469 34.441406 31.546875 34.109375 C 31.5 33.855469 31.515625 33.496094 31.589844 33.246094 M 33.089844 35.460938 Z M 33.089844 35.460938 " fill-opacity="1" fill-rule="evenodd"/><path stroke-linecap="round" transform="matrix(0.0688362, 0, 0, 0.0693441, -13.13622, 5.470592)" fill="none" stroke-linejoin="round" d="M 650.20002 399.588218 C 650.086526 399.869875 649.802791 400.264195 649.746044 400.545852 C 648.667851 404.15106 648.440863 409.333546 649.121827 412.995086 C 649.973032 417.783253 652.356407 424.317692 655.70448 427.9229 C 657.747373 430.176155 661.549422 432.42941 664.500267 433.049055 C 666.599907 433.499706 669.437257 432.654736 671.536897 432.485742 C 671.990873 432.316748 672.671837 432.035091 673.125813 431.809765 C 674.3175 431.133789 675.849669 430.007161 676.871116 429.049528 C 677.495333 428.486214 678.346538 427.641243 678.743767 426.908936 C 680.105695 424.148698 680.502924 419.811182 680.048948 416.769288 C 679.708466 414.40337 678.176297 411.474139 676.814369 409.50254 C 675.395693 407.41828 672.898825 404.939699 670.799185 403.644077 C 666.883642 401.165497 660.754964 399.193899 656.101709 398.855911 C 654.342552 398.686916 650.20002 399.588218 650.20002 399.588218 " stroke="#0a0605" stroke-width="2" stroke-opacity="1" stroke-miterlimit="4"/><path stroke-linecap="round" transform="matrix(0.0688362, 0, 0, 0.0693441, -13.13622, 5.470592)" fill="none" stroke-linejoin="round" d="M 675.736175 415.698992 C 675.736175 415.698992 676.246899 420.036508 675.906416 421.839112 C 675.679428 423.022071 674.998464 424.543018 674.374247 425.613314 C 673.693283 426.739941 671.423403 428.993196 671.423403 428.993196 " stroke="#213335" stroke-width="5" stroke-opacity="1" stroke-miterlimit="4"/><path fill="#0a0605" d="M 34.675781 28.714844 C 34.664062 28.691406 34.65625 28.664062 34.648438 28.640625 C 34.648438 28.640625 34.804688 28.394531 34.894531 28.3125 C 35.136719 28.097656 35.527344 27.886719 35.835938 27.8125 C 36.003906 27.769531 36.242188 27.765625 36.414062 27.792969 C 36.574219 27.820312 36.792969 27.886719 36.929688 27.980469 C 37.101562 28.105469 37.292969 28.335938 37.367188 28.535156 C 37.386719 28.589844 37.386719 28.671875 37.382812 28.734375 C 37.382812 28.828125 37.363281 28.960938 37.339844 29.054688 C 37.332031 29.085938 37.3125 29.132812 37.300781 29.164062 C 37.207031 29.277344 37.109375 29.460938 36.988281 29.542969 C 36.816406 29.660156 36.523438 29.742188 36.3125 29.734375 C 35.976562 29.726562 35.539062 29.53125 35.257812 29.339844 C 35.046875 29.199219 34.800781 28.9375 34.675781 28.714844 M 37.300781 29.164062 Z M 37.300781 29.164062 " fill-opacity="1" fill-rule="evenodd"/><path stroke-linecap="round" transform="matrix(0.0688362, 0, 0, 0.0693441, -13.13622, 5.470592)" fill="none" stroke-linejoin="round" d="M 694.178954 334.13116 C 694.292448 334.469148 694.405942 334.863468 694.576183 335.201456 C 696.392088 338.412345 699.96715 342.186547 703.031488 344.214476 C 707.117273 346.974714 713.472938 349.791282 718.353181 349.903945 C 721.41752 350.016608 725.673546 348.833649 728.170415 347.143708 C 729.929572 345.960749 731.348247 343.313174 732.710175 341.679564 C 732.880417 341.228913 733.164152 340.552937 733.277646 340.102286 C 733.618128 338.750333 733.901863 336.835066 733.901863 335.483113 C 733.95861 334.581811 733.95861 333.398852 733.674875 332.610213 C 732.596681 329.737313 729.816078 326.413762 727.319209 324.611158 C 725.333064 323.259204 722.155231 322.301571 719.828604 321.907251 C 717.331735 321.512932 713.870167 321.569263 711.430046 322.188908 C 706.947032 323.259204 701.272331 326.301099 697.754016 329.399324 C 696.448835 330.582283 694.178954 334.13116 694.178954 334.13116 " stroke="#0a0605" stroke-width="2" stroke-opacity="1" stroke-miterlimit="4"/><path stroke-linecap="round" transform="matrix(0.0688362, 0, 0, 0.0693441, -13.13622, 5.470592)" fill="none" stroke-linejoin="round" d="M 723.573907 327.033407 C 723.573907 327.033407 726.978727 329.62465 728.05692 331.145597 C 728.737885 332.159562 729.418849 333.680509 729.702584 334.863468 C 730.043066 336.159089 730.099813 339.369978 730.099813 339.369978 " stroke="#213335" stroke-width="5" stroke-opacity="1" stroke-miterlimit="4"/><path fill="#0a0605" d="M 34.453125 22.933594 C 34.433594 22.921875 34.410156 22.902344 34.390625 22.886719 C 34.390625 22.886719 34.382812 22.59375 34.410156 22.476562 C 34.492188 22.164062 34.695312 21.769531 34.910156 21.53125 C 35.023438 21.398438 35.222656 21.261719 35.378906 21.1875 C 35.527344 21.117188 35.746094 21.050781 35.910156 21.054688 C 36.121094 21.058594 36.410156 21.140625 36.582031 21.265625 C 36.628906 21.296875 36.671875 21.367188 36.707031 21.417969 C 36.757812 21.496094 36.816406 21.617188 36.847656 21.707031 C 36.859375 21.742188 36.867188 21.789062 36.875 21.824219 C 36.863281 21.96875 36.882812 22.171875 36.828125 22.308594 C 36.75 22.503906 36.554688 22.738281 36.378906 22.851562 C 36.09375 23.035156 35.625 23.121094 35.285156 23.121094 C 35.03125 23.125 34.683594 23.046875 34.453125 22.933594 M 36.875 21.824219 Z M 36.875 21.824219 " fill-opacity="1" fill-rule="evenodd"/><path stroke-linecap="round" transform="matrix(0.0688362, 0, 0, 0.0693441, -13.13622, 5.470592)" fill="none" stroke-linejoin="round" d="M 690.433652 251.155044 C 690.717387 251.380369 691.057869 251.662026 691.341604 251.83102 C 694.689677 253.46463 699.740162 254.591258 703.428717 254.534926 C 708.365707 254.534926 715.175349 253.295636 719.317881 250.648061 C 721.871496 249.014451 724.708847 245.634569 725.843787 242.818 C 726.638245 240.846402 726.35451 237.917171 726.524751 235.83291 C 726.411257 235.325927 726.297763 234.649951 726.127522 234.142968 C 725.673546 232.847347 724.822341 231.101074 724.08463 229.974447 C 723.573907 229.242139 722.949689 228.228174 722.268725 227.777523 C 719.771857 225.974919 715.572578 224.79196 712.508239 224.735629 C 710.124865 224.679297 706.947032 225.636931 704.790646 226.650895 C 702.520765 227.721192 699.626667 229.69279 697.981004 231.608056 C 694.859918 235.04427 691.909074 240.733739 690.717387 245.240249 C 690.320158 246.930191 690.433652 251.155044 690.433652 251.155044 " stroke="#0a0605" stroke-width="2" stroke-opacity="1" stroke-miterlimit="4"/><path stroke-linecap="round" transform="matrix(0.0688362, 0, 0, 0.0693441, -13.13622, 5.470592)" fill="none" stroke-linejoin="round" d="M 710.749082 228.791488 C 710.749082 228.791488 715.061855 229.016813 716.821012 229.69279 C 717.955952 230.087109 719.317881 231.044743 720.225833 231.833382 C 721.247279 232.734684 723.11993 235.325927 723.11993 235.325927 " stroke="#213335" stroke-width="5" stroke-opacity="1" stroke-miterlimit="4"/></svg>