<svg xmlns="http://www.w3.org/2000/svg" xmlns:xlink="http://www.w3.org/1999/xlink" width="80" zoomAndPan="magnify" viewBox="0 0 60 60" height="80" preserveAspectRatio="xMidYMid meet" version="1.0"><defs><clipPath id="a2dc0da34d"><path d="M 8.371094 14 L 51.871094 14 L 51.871094 54 L 8.371094 54 Z M 8.371094 14 " clip-rule="nonzero"/></clipPath><clipPath id="a9be879319"><path d="M 9 14 L 51.871094 14 L 51.871094 54 L 9 54 Z M 9 14 " clip-rule="nonzero"/></clipPath><clipPath id="dd0e8584d5"><path d="M 8.371094 49 L 11 49 L 11 53 L 8.371094 53 Z M 8.371094 49 " clip-rule="nonzero"/></clipPath></defs><g clip-path="url(#a2dc0da34d)"><path fill="#ffe082" d="M 43.394531 14.398438 C 44.601562 14.398438 51.84375 13.199219 51.84375 24 C 51.84375 34.800781 36.152344 54 14.429688 54 C 12.019531 54 9.605469 52.800781 9.605469 52.800781 L 8.398438 49.199219 C 8.398438 49.199219 9.605469 44.398438 16.84375 40.800781 C 24.085938 37.199219 29.230469 34.183594 32.308594 31.125 C 34.722656 28.726562 38.566406 24 38.566406 20.398438 C 38.566406 18.050781 40.980469 15.601562 40.980469 15.601562 " fill-opacity="1" fill-rule="nonzero"/></g><g clip-path="url(#a9be879319)"><path fill="#ffca28" d="M 10.8125 50.398438 C 10.8125 50.398438 19.257812 48 26.5 44.398438 C 33.742188 40.800781 49.429688 30 44.601562 14.398438 C 44.601562 14.398438 51.84375 13.199219 51.84375 24 C 51.84375 34.800781 36.152344 54 14.429688 54 C 12.019531 54 9.605469 52.800781 9.605469 52.800781 Z M 10.8125 50.398438 " fill-opacity="1" fill-rule="nonzero"/></g><path fill="#c0ca33" d="M 50.710938 17.925781 C 48.449219 13.101562 43.394531 15.601562 43.394531 6 C 39.773438 6 37.359375 8.398438 37.359375 8.398438 C 37.359375 8.398438 40.980469 12 40.980469 15.601562 C 43.394531 15.601562 45.339844 15.410156 45.554688 21.300781 C 47.1875 14.425781 50.710938 17.925781 50.710938 17.925781 Z M 50.710938 17.925781 " fill-opacity="1" fill-rule="nonzero"/><path fill="#c0ca33" d="M 38.566406 20.398438 C 38.566406 20.398438 38.492188 18.222656 40.980469 15.601562 C 43.472656 12.976562 45.847656 15.113281 45.847656 15.113281 L 45.554688 21.300781 C 45.554688 21.300781 44.5 17.398438 42.839844 17.300781 C 39.339844 17.089844 38.566406 20.398438 38.566406 20.398438 Z M 38.566406 20.398438 " fill-opacity="1" fill-rule="nonzero"/><g clip-path="url(#dd0e8584d5)"><path fill="#5d4037" d="M 8.398438 50.398438 L 9.605469 52.800781 L 10.8125 52.800781 L 10.8125 50.398438 L 8.398438 49.199219 Z M 8.398438 50.398438 " fill-opacity="1" fill-rule="nonzero"/></g><path fill="#827717" d="M 43.394531 6 C 39.773438 6 37.359375 8.398438 37.359375 8.398438 L 40.980469 8.398438 Z M 43.394531 6 " fill-opacity="1" fill-rule="nonzero"/></svg>