<svg xmlns="http://www.w3.org/2000/svg" xmlns:xlink="http://www.w3.org/1999/xlink" width="80" zoomAndPan="magnify" viewBox="0 0 60 60" height="80" preserveAspectRatio="xMidYMid meet" version="1.0"><defs><clipPath id="44f01a588d"><path d="M 1.179688 0.71875 L 60 0.71875 L 60 54 L 1.179688 54 Z M 1.179688 0.71875 " clip-rule="nonzero"/></clipPath><clipPath id="f2bde131c0"><path d="M 59.21875 11.976562 C 57.367188 5.679688 51.382812 0.71875 44.304688 0.71875 C 38.363281 0.71875 33.199219 4.070312 30.589844 8.992188 C 27.980469 4.070312 22.820312 0.71875 16.878906 0.71875 C 9.476562 0.71875 3 5.679688 1.730469 12.882812 C -1.496094 31.152344 18.9375 45.449219 30.636719 54 C 41.453125 46.09375 64.519531 29.976562 59.21875 11.976562 Z M 59.21875 11.976562 " clip-rule="nonzero"/></clipPath><clipPath id="03e010f00a"><path d="M 0.199219 0.71875 L 59 0.71875 L 59 54 L 0.199219 54 Z M 0.199219 0.71875 " clip-rule="nonzero"/></clipPath><clipPath id="da0e7bf190"><path d="M 58.21875 11.976562 C 56.367188 5.679688 50.382812 0.71875 43.304688 0.71875 C 37.363281 0.71875 32.199219 4.070312 29.589844 8.992188 C 26.980469 4.070312 21.820312 0.71875 15.878906 0.71875 C 8.476562 0.71875 2 5.679688 0.730469 12.882812 C -2.496094 31.152344 17.9375 45.449219 29.636719 54 C 40.453125 46.09375 63.519531 29.976562 58.21875 11.976562 Z M 58.21875 11.976562 " clip-rule="nonzero"/></clipPath><clipPath id="bc4b693160"><rect x="0" width="59" y="0" height="54"/></clipPath></defs><g clip-path="url(#44f01a588d)"><g clip-path="url(#f2bde131c0)"><g transform="matrix(1, 0, 0, 1, 1, -0.000000000000001499)"><g clip-path="url(#bc4b693160)"><g clip-path="url(#03e010f00a)"><g clip-path="url(#da0e7bf190)"><path fill="#38b6ff" d="M 0.390625 0.71875 L 59.082031 0.71875 L 59.082031 54 L 0.390625 54 Z M 0.390625 0.71875 " fill-opacity="1" fill-rule="nonzero"/></g></g></g></g></g></g></svg>