<svg xmlns="http://www.w3.org/2000/svg" xmlns:xlink="http://www.w3.org/1999/xlink" width="80" zoomAndPan="magnify" viewBox="0 0 60 60" height="80" preserveAspectRatio="xMidYMid meet" version="1.0"><defs><clipPath id="1897d3f7cb"><path d="M 0.492188 0 L 59.382812 0 L 59.382812 53.269531 L 0.492188 53.269531 Z M 0.492188 0 " clip-rule="nonzero"/></clipPath><clipPath id="67ed5c22f1"><path d="M 58.519531 11.257812 C 56.664062 4.960938 50.679688 0 43.605469 0 C 37.664062 0 32.503906 3.351562 29.894531 8.273438 C 27.289062 3.351562 22.128906 0 16.1875 0 C 8.785156 0 2.3125 4.960938 1.042969 12.164062 C -2.179688 30.425781 18.246094 44.722656 29.941406 53.269531 C 40.757812 45.367188 63.816406 29.25 58.519531 11.257812 Z M 58.519531 11.257812 " clip-rule="nonzero"/></clipPath><clipPath id="24dbfcb126"><path d="M 0.492188 0 L 59.382812 0 L 59.382812 53.269531 L 0.492188 53.269531 Z M 0.492188 0 " clip-rule="nonzero"/></clipPath><clipPath id="37ada69088"><path d="M 58.519531 11.257812 C 56.664062 4.960938 50.679688 0 43.605469 0 C 37.664062 0 32.503906 3.351562 29.894531 8.273438 C 27.289062 3.351562 22.128906 0 16.1875 0 C 8.785156 0 2.3125 4.960938 1.042969 12.164062 C -2.179688 30.425781 18.246094 44.722656 29.941406 53.269531 C 40.757812 45.367188 63.816406 29.25 58.519531 11.257812 Z M 58.519531 11.257812 " clip-rule="nonzero"/></clipPath><clipPath id="9ac5d9840a"><rect x="0" width="60" y="0" height="54"/></clipPath></defs><g clip-path="url(#1897d3f7cb)"><g clip-path="url(#67ed5c22f1)"><g transform="matrix(1, 0, 0, 1, 0, -0.000000000000001479)"><g clip-path="url(#9ac5d9840a)"><g clip-path="url(#24dbfcb126)"><g clip-path="url(#37ada69088)"><path fill="#ff8f15" d="M 0.703125 0 L 59.382812 0 L 59.382812 53.269531 L 0.703125 53.269531 Z M 0.703125 0 " fill-opacity="1" fill-rule="nonzero"/></g></g></g></g></g></g></svg>